G04 PROTEUS GERBER X2 FILE*
%TF.GenerationSoftware,Labcenter,Proteus,8.5-SP0-Build22067*%
%TF.CreationDate,2022-04-24T18:59:02+00:00*%
%TF.FileFunction,AssemblyDrawing,Top*%
%TF.FilePolarity,Positive*%
%TF.Part,Single*%
%FSLAX45Y45*%
%MOMM*%
G01*
%TA.AperFunction,Profile*%
%ADD71C,0.203200*%
%ADD22C,0.257380*%
%TA.AperFunction,Material*%
%ADD21C,0.203200*%
%ADD23C,0.308860*%
%ADD24C,0.172720*%
%ADD25C,0.193040*%
%ADD26C,0.240790*%
%ADD27C,0.106680*%
%ADD28C,0.172210*%
%ADD29C,0.050800*%
%ADD72C,0.361000*%
%ADD73C,0.191010*%
D71*
X+12700Y+0D02*
X+8012700Y+0D01*
X+8012700Y+9000000D01*
X+12700Y+9000000D01*
X+12700Y+0D01*
X+244540Y+4977840D02*
X+1280860Y+4977840D01*
X+1280860Y+6522160D01*
X+244540Y+6522160D01*
X+244540Y+4977840D01*
D22*
X+839916Y+5235230D02*
X+685485Y+5235230D01*
X+762700Y+5312445D01*
X+685485Y+5389661D01*
X+839916Y+5389661D01*
X+736962Y+5441138D02*
X+685485Y+5492615D01*
X+685485Y+5544092D01*
X+736962Y+5595569D01*
X+788439Y+5595569D01*
X+839916Y+5544092D01*
X+839916Y+5492615D01*
X+788439Y+5441138D01*
X+736962Y+5441138D01*
X+685485Y+5647046D02*
X+685485Y+5801477D01*
X+685485Y+5724261D02*
X+839916Y+5724261D01*
X+736962Y+5852954D02*
X+685485Y+5904431D01*
X+685485Y+5955908D01*
X+736962Y+6007385D01*
X+788439Y+6007385D01*
X+839916Y+5955908D01*
X+839916Y+5904431D01*
X+788439Y+5852954D01*
X+736962Y+5852954D01*
X+839916Y+6058862D02*
X+685485Y+6058862D01*
X+685485Y+6187554D01*
X+711223Y+6213293D01*
X+736962Y+6213293D01*
X+762700Y+6187554D01*
X+762700Y+6058862D01*
X+762700Y+6187554D02*
X+788439Y+6213293D01*
X+839916Y+6213293D01*
D21*
X+6744540Y+4969840D02*
X+7780860Y+4969840D01*
X+7780860Y+6514160D01*
X+6744540Y+6514160D01*
X+6744540Y+4969840D01*
D23*
X+7170041Y+5247818D02*
X+7170041Y+5433136D01*
X+7170041Y+5340477D02*
X+7355360Y+5340477D01*
X+7355360Y+5494909D02*
X+7231814Y+5494909D01*
X+7170041Y+5556681D01*
X+7170041Y+5618454D01*
X+7231814Y+5680227D01*
X+7355360Y+5680227D01*
X+7293587Y+5494909D02*
X+7293587Y+5680227D01*
X+7324473Y+5927318D02*
X+7355360Y+5896431D01*
X+7355360Y+5803772D01*
X+7293587Y+5742000D01*
X+7231814Y+5742000D01*
X+7170041Y+5803772D01*
X+7170041Y+5896431D01*
X+7200928Y+5927318D01*
X+7231814Y+5989091D02*
X+7170041Y+6050863D01*
X+7170041Y+6112636D01*
X+7231814Y+6174409D01*
X+7293587Y+6174409D01*
X+7355360Y+6112636D01*
X+7355360Y+6050863D01*
X+7293587Y+5989091D01*
X+7231814Y+5989091D01*
D21*
X+3240540Y+231840D02*
X+4276860Y+231840D01*
X+4276860Y+1268160D01*
X+3240540Y+1268160D01*
X+3240540Y+231840D01*
D24*
X+3413260Y+698184D02*
X+3413260Y+801816D01*
X+3516892Y+801816D01*
X+3413260Y+750000D02*
X+3482348Y+750000D01*
X+3551436Y+767272D02*
X+3585980Y+801816D01*
X+3620524Y+801816D01*
X+3655068Y+767272D01*
X+3655068Y+732728D01*
X+3620524Y+698184D01*
X+3585980Y+698184D01*
X+3551436Y+732728D01*
X+3551436Y+767272D01*
X+3689612Y+698184D02*
X+3689612Y+801816D01*
X+3793244Y+698184D01*
X+3793244Y+801816D01*
X+3827788Y+801816D02*
X+3931420Y+801816D01*
X+3879604Y+801816D02*
X+3879604Y+698184D01*
X+4069596Y+698184D02*
X+3965964Y+698184D01*
X+3965964Y+801816D01*
X+4069596Y+801816D01*
X+3965964Y+750000D02*
X+4035052Y+750000D01*
D21*
X+4232540Y+231840D02*
X+5776860Y+231840D01*
X+5776860Y+1268160D01*
X+4232540Y+1268160D01*
X+4232540Y+231840D01*
D25*
X+4464188Y+692088D02*
X+4464188Y+769304D01*
X+4502796Y+807912D01*
X+4541404Y+807912D01*
X+4580012Y+769304D01*
X+4580012Y+692088D01*
X+4464188Y+730696D02*
X+4580012Y+730696D01*
X+4618620Y+692088D02*
X+4618620Y+807912D01*
X+4715140Y+807912D01*
X+4734444Y+788608D01*
X+4734444Y+769304D01*
X+4715140Y+750000D01*
X+4618620Y+750000D01*
X+4715140Y+750000D02*
X+4734444Y+730696D01*
X+4734444Y+692088D01*
X+4773052Y+692088D02*
X+4773052Y+807912D01*
X+4850268Y+807912D01*
X+4888876Y+769304D01*
X+4888876Y+730696D01*
X+4850268Y+692088D01*
X+4773052Y+692088D01*
X+4927484Y+807912D02*
X+4927484Y+711392D01*
X+4946788Y+692088D01*
X+5024004Y+692088D01*
X+5043308Y+711392D01*
X+5043308Y+807912D01*
X+5101220Y+807912D02*
X+5178436Y+807912D01*
X+5139828Y+807912D02*
X+5139828Y+692088D01*
X+5101220Y+692088D02*
X+5178436Y+692088D01*
X+5236348Y+692088D02*
X+5236348Y+807912D01*
X+5352172Y+692088D01*
X+5352172Y+807912D01*
X+5390780Y+769304D02*
X+5429388Y+807912D01*
X+5467996Y+807912D01*
X+5506604Y+769304D01*
X+5506604Y+730696D01*
X+5467996Y+692088D01*
X+5429388Y+692088D01*
X+5390780Y+730696D01*
X+5390780Y+769304D01*
D21*
X+3371540Y+2112840D02*
X+4153860Y+2112840D01*
X+4153860Y+2514160D01*
X+3371540Y+2514160D01*
X+3371540Y+2112840D01*
D26*
X+3570067Y+2337579D02*
X+3618225Y+2385737D01*
X+3666383Y+2385737D01*
X+3714541Y+2337579D01*
X+3714541Y+2289420D01*
X+3666383Y+2241262D01*
X+3618225Y+2241262D01*
X+3570067Y+2289420D01*
X+3570067Y+2337579D01*
X+3666383Y+2289420D02*
X+3714541Y+2241262D01*
X+3810858Y+2337579D02*
X+3859016Y+2385737D01*
X+3859016Y+2241262D01*
D21*
X+3423800Y+1661100D02*
X+4617600Y+1661100D01*
X+4617600Y+1838900D01*
X+3423800Y+1838900D01*
X+3423800Y+1661100D01*
D27*
X+3935356Y+1717996D02*
X+3935356Y+1782004D01*
X+3988696Y+1782004D01*
X+3999364Y+1771336D01*
X+3999364Y+1760668D01*
X+3988696Y+1750000D01*
X+3935356Y+1750000D01*
X+3988696Y+1750000D02*
X+3999364Y+1739332D01*
X+3999364Y+1717996D01*
X+4042036Y+1760668D02*
X+4063372Y+1782004D01*
X+4063372Y+1717996D01*
D21*
X+4907800Y+1661100D02*
X+6101600Y+1661100D01*
X+6101600Y+1838900D01*
X+4907800Y+1838900D01*
X+4907800Y+1661100D01*
D27*
X+5419356Y+1717996D02*
X+5419356Y+1782004D01*
X+5472696Y+1782004D01*
X+5483364Y+1771336D01*
X+5483364Y+1760668D01*
X+5472696Y+1750000D01*
X+5419356Y+1750000D01*
X+5472696Y+1750000D02*
X+5483364Y+1739332D01*
X+5483364Y+1717996D01*
X+5515368Y+1771336D02*
X+5526036Y+1782004D01*
X+5558040Y+1782004D01*
X+5568708Y+1771336D01*
X+5568708Y+1760668D01*
X+5558040Y+1750000D01*
X+5526036Y+1750000D01*
X+5515368Y+1739332D01*
X+5515368Y+1717996D01*
X+5568708Y+1717996D01*
D21*
X+1641100Y+1673800D02*
X+2834900Y+1673800D01*
X+2834900Y+1851600D01*
X+1641100Y+1851600D01*
X+1641100Y+1673800D01*
D27*
X+2152656Y+1730696D02*
X+2152656Y+1794704D01*
X+2205996Y+1794704D01*
X+2216664Y+1784036D01*
X+2216664Y+1773368D01*
X+2205996Y+1762700D01*
X+2152656Y+1762700D01*
X+2205996Y+1762700D02*
X+2216664Y+1752032D01*
X+2216664Y+1730696D01*
X+2248668Y+1784036D02*
X+2259336Y+1794704D01*
X+2291340Y+1794704D01*
X+2302008Y+1784036D01*
X+2302008Y+1773368D01*
X+2291340Y+1762700D01*
X+2302008Y+1752032D01*
X+2302008Y+1741364D01*
X+2291340Y+1730696D01*
X+2259336Y+1730696D01*
X+2248668Y+1741364D01*
X+2270004Y+1762700D02*
X+2291340Y+1762700D01*
D21*
X+1615700Y+2120460D02*
X+2860300Y+2120460D01*
X+2860300Y+2407480D01*
X+1615700Y+2407480D01*
X+1615700Y+2120460D01*
D28*
X+2100231Y+2212306D02*
X+2100231Y+2315633D01*
X+2169115Y+2315633D01*
X+2203557Y+2281191D01*
X+2203557Y+2246748D01*
X+2169115Y+2212306D01*
X+2100231Y+2212306D01*
X+2272442Y+2281191D02*
X+2306884Y+2315633D01*
X+2306884Y+2212306D01*
D29*
X+1554205Y+2003740D02*
X+1552570Y+2045686D01*
X+1539309Y+2129579D01*
X+1511723Y+2213472D01*
X+1467200Y+2297365D01*
X+1399900Y+2381258D01*
X+1316041Y+2450956D01*
X+1232148Y+2497131D01*
X+1148255Y+2526033D01*
X+1064362Y+2540462D01*
X+1015240Y+2542705D01*
X+476275Y+2003740D02*
X+477910Y+2045686D01*
X+491171Y+2129579D01*
X+518757Y+2213472D01*
X+563280Y+2297365D01*
X+630580Y+2381258D01*
X+714439Y+2450956D01*
X+798332Y+2497131D01*
X+882225Y+2526033D01*
X+966118Y+2540462D01*
X+1015240Y+2542705D01*
X+476275Y+2003740D02*
X+477910Y+1961794D01*
X+491171Y+1877901D01*
X+518757Y+1794008D01*
X+563280Y+1710115D01*
X+630580Y+1626222D01*
X+714439Y+1556524D01*
X+798332Y+1510349D01*
X+882225Y+1481447D01*
X+966118Y+1467018D01*
X+1015240Y+1464775D01*
X+1554205Y+2003740D02*
X+1552570Y+1961794D01*
X+1539309Y+1877901D01*
X+1511723Y+1794008D01*
X+1467200Y+1710115D01*
X+1399900Y+1626222D01*
X+1316041Y+1556524D01*
X+1232148Y+1510349D01*
X+1148255Y+1481447D01*
X+1064362Y+1467018D01*
X+1015240Y+1464775D01*
D72*
X+1087441Y+1931539D02*
X+1123541Y+1895439D01*
X+1123541Y+1787138D01*
X+1051340Y+1714938D01*
X+979140Y+1714938D01*
X+906939Y+1787138D01*
X+906939Y+1895439D01*
X+943039Y+1931539D01*
X+943039Y+2039840D02*
X+906939Y+2075940D01*
X+906939Y+2184241D01*
X+943039Y+2220341D01*
X+979140Y+2220341D01*
X+1015240Y+2184241D01*
X+1015240Y+2075940D01*
X+1051340Y+2039840D01*
X+1123541Y+2039840D01*
X+1123541Y+2220341D01*
D29*
X+5170600Y+2250000D02*
X+5169682Y+2272814D01*
X+5162229Y+2318443D01*
X+5146682Y+2364072D01*
X+5121440Y+2409701D01*
X+5082898Y+2455231D01*
X+5037269Y+2490727D01*
X+4991640Y+2513847D01*
X+4946011Y+2527700D01*
X+4900382Y+2533646D01*
X+4886620Y+2533980D01*
X+4602640Y+2250000D02*
X+4603558Y+2272814D01*
X+4611011Y+2318443D01*
X+4626558Y+2364072D01*
X+4651800Y+2409701D01*
X+4690342Y+2455231D01*
X+4735971Y+2490727D01*
X+4781600Y+2513847D01*
X+4827229Y+2527700D01*
X+4872858Y+2533646D01*
X+4886620Y+2533980D01*
X+4602640Y+2250000D02*
X+4603558Y+2227186D01*
X+4611011Y+2181557D01*
X+4626558Y+2135928D01*
X+4651800Y+2090299D01*
X+4690342Y+2044769D01*
X+4735971Y+2009273D01*
X+4781600Y+1986153D01*
X+4827229Y+1972300D01*
X+4872858Y+1966354D01*
X+4886620Y+1966020D01*
X+5170600Y+2250000D02*
X+5169682Y+2227186D01*
X+5162229Y+2181557D01*
X+5146682Y+2135928D01*
X+5121440Y+2090299D01*
X+5082898Y+2044769D01*
X+5037269Y+2009273D01*
X+4991640Y+1986153D01*
X+4946011Y+1972300D01*
X+4900382Y+1966354D01*
X+4886620Y+1966020D01*
D73*
X+4848417Y+2211797D02*
X+4829316Y+2192696D01*
X+4772012Y+2192696D01*
X+4733810Y+2230899D01*
X+4733810Y+2269101D01*
X+4772012Y+2307304D01*
X+4829316Y+2307304D01*
X+4848417Y+2288203D01*
X+4924822Y+2269101D02*
X+4963025Y+2307304D01*
X+4963025Y+2192696D01*
D21*
X+3923800Y+2661100D02*
X+5117600Y+2661100D01*
X+5117600Y+2838900D01*
X+3923800Y+2838900D01*
X+3923800Y+2661100D01*
D27*
X+4435356Y+2717996D02*
X+4435356Y+2782004D01*
X+4488696Y+2782004D01*
X+4499364Y+2771336D01*
X+4499364Y+2760668D01*
X+4488696Y+2750000D01*
X+4435356Y+2750000D01*
X+4488696Y+2750000D02*
X+4499364Y+2739332D01*
X+4499364Y+2717996D01*
X+4584708Y+2739332D02*
X+4520700Y+2739332D01*
X+4563372Y+2782004D01*
X+4563372Y+2717996D01*
M02*
