  0
SECTION
  2
HEADER
  9
$ACADVER
  1
AC1009
  9
$INSUNITS
 70
     1
  0
ENDSEC
  0
SECTION
  2
TABLES
  0
TABLE
  2
LAYER
 70
     8
  0
LAYER
  2
0
 62
     7
 70
0
  6
CONTINUOUS
  0
LAYER
  2
1
 62
     1
 70
0
  6
CONTINUOUS
  0
LAYER
  2
2
 62
     2
 70
0
  6
CONTINUOUS
  0
LAYER
  2
3
 62
     3
 70
0
  6
CONTINUOUS
  0
LAYER
  2
4
 62
     4
 70
0
  6
CONTINUOUS
  0
LAYER
  2
5
 62
     5
 70
0
  6
CONTINUOUS
  0
LAYER
  2
6
 62
     6
 70
0
  6
CONTINUOUS
  0
LAYER
  2
7
 62
     7
 70
0
  6
CONTINUOUS
  0
ENDTAB
  0
TABLE
  2
STYLE
 70
     1
  0
STYLE
 70
     0
  2
STANDARD
  3
TXT
 40
0.00
 41
1.00
 42
1.00
 50
0.00
 71
     0
  0
ENDTAB
  0
ENDSEC
  0
SECTION
  2
BLOCKS
  0
BLOCK
  8
0
  2
EPAD
 70
0
 10
0.0
 20
0.0
  0
POLYLINE
  8
0
 66
1
 70
1
 40
0.5
 41
0.5
  0
VERTEX
  8
0
 10
-0.25
 20
0.0
 42
1.0
  0
VERTEX
  8
0
 10
0.25
 20
0.0
 42
1.0
  0
SEQEND
  8
0
  0
ENDBLK
  8
0
  0
BLOCK
  8
0
  2
RPAD
 70
0
 10
0.0
 20
0.0
  0
TRACE
  8
0
 10
-0.5
 20
-0.5
 11
-0.5
 21
0.5
 12
0.5
 22
-0.5
 13
0.5
 23
0.5
  0
ENDBLK
  8
0
  0
ENDSEC
0
SECTION
2
ENTITIES
0
POLYLINE
8
0
66
1
40
0.060000
41
0.060000
0
VERTEX
8
0
10
0.390551
20
-1.476378
0
VERTEX
8
0
10
0.390551
20
-1.332180
0
VERTEX
8
0
10
0.367089
20
-1.308717
0
VERTEX
8
0
10
0.203150
20
-1.144778
0
VERTEX
8
0
10
0.203150
20
-1.082677
0
SEQEND
8
0
0
POLYLINE
8
0
66
1
40
0.060000
41
0.060000
0
VERTEX
8
0
10
0.590551
20
-1.476378
0
VERTEX
8
0
10
0.590551
20
-1.360389
0
VERTEX
8
0
10
0.394213
20
-1.164051
0
VERTEX
8
0
10
0.394213
20
-1.089489
0
VERTEX
8
0
10
0.387402
20
-1.082677
0
VERTEX
8
0
10
0.387402
20
-0.892126
0
VERTEX
8
0
10
0.393701
20
-0.885827
0
SEQEND
8
0
0
POLYLINE
8
0
66
1
40
0.060000
41
0.060000
0
VERTEX
8
0
10
-0.198425
20
-0.885827
0
VERTEX
8
0
10
-0.198425
20
-1.081102
0
VERTEX
8
0
10
-0.196850
20
-1.082677
0
SEQEND
8
0
0
POLYLINE
8
0
66
1
40
0.060000
41
0.060000
0
VERTEX
8
0
10
-0.498701
20
-0.880827
0
VERTEX
8
0
10
-0.574453
20
-0.956579
0
VERTEX
8
0
10
-0.756081
20
-0.956579
0
VERTEX
8
0
10
-0.877179
20
-1.077677
0
VERTEX
8
0
10
-0.898701
20
-1.077677
0
SEQEND
8
0
0
POLYLINE
8
0
66
1
40
0.060000
41
0.060000
0
VERTEX
8
0
10
0.393701
20
-0.885827
0
VERTEX
8
0
10
0.393701
20
-0.695276
0
VERTEX
8
0
10
0.400000
20
-0.688976
0
SEQEND
8
0
0
POLYLINE
8
0
66
1
40
0.090000
41
0.090000
0
VERTEX
8
0
10
-0.393701
20
-1.282677
0
VERTEX
8
0
10
-0.200000
20
-1.476378
0
SEQEND
8
0
0
POLYLINE
8
0
66
1
40
0.070000
41
0.070000
0
VERTEX
8
0
10
0.787402
20
-1.082677
0
VERTEX
8
0
10
0.927606
20
-1.082677
0
VERTEX
8
0
10
1.451904
20
-0.558380
0
VERTEX
8
0
10
1.451904
20
0.606464
0
VERTEX
8
0
10
1.369391
20
0.688976
0
VERTEX
8
0
10
1.279528
20
0.688976
0
SEQEND
8
0
0
POLYLINE
8
0
66
1
40
0.090000
41
0.090000
0
VERTEX
8
0
10
-1.279528
20
0.692126
0
VERTEX
8
0
10
-1.399281
20
0.692126
0
VERTEX
8
0
10
-1.467707
20
0.623699
0
VERTEX
8
0
10
-1.467707
20
-0.999841
0
VERTEX
8
0
10
-1.384871
20
-1.082677
0
VERTEX
8
0
10
-1.181102
20
-1.082677
0
SEQEND
8
0
0
POLYLINE
8
0
66
1
40
0.090000
41
0.090000
0
VERTEX
8
0
10
-0.498701
20
-1.077677
0
VERTEX
8
0
10
-0.498701
20
-1.274186
0
VERTEX
8
0
10
-0.498701
20
-1.282677
0
VERTEX
8
0
10
-0.393701
20
-1.282677
0
SEQEND
8
0
0
POLYLINE
8
0
66
1
40
0.090000
41
0.090000
0
VERTEX
8
0
10
-1.181102
20
-1.082677
0
VERTEX
8
0
10
-1.181102
20
-1.158944
0
VERTEX
8
0
10
-1.065860
20
-1.274186
0
VERTEX
8
0
10
-0.498701
20
-1.274186
0
VERTEX
8
0
10
-0.402192
20
-1.274186
0
VERTEX
8
0
10
-0.393701
20
-1.282677
0
SEQEND
8
0
0
POLYLINE
8
0
66
1
40
0.090000
41
0.090000
0
VERTEX
8
0
10
-0.098425
20
-0.885827
0
VERTEX
8
0
10
-0.098425
20
-0.728143
0
VERTEX
8
0
10
-0.179803
20
-0.621654
0
VERTEX
8
0
10
-1.124803
20
-0.621654
0
VERTEX
8
0
10
-1.279528
20
-0.505064
0
VERTEX
8
0
10
-1.279528
20
0.292126
0
SEQEND
8
0
0
POLYLINE
8
0
66
1
40
0.090000
41
0.090000
0
VERTEX
8
0
10
-1.181102
20
-0.882677
0
VERTEX
8
0
10
-0.900551
20
-0.882677
0
VERTEX
8
0
10
-0.898701
20
-0.880827
0
SEQEND
8
0
0
POLYLINE
8
0
66
1
40
0.070000
41
0.070000
0
VERTEX
8
0
10
-0.898701
20
-0.880827
0
VERTEX
8
0
10
-0.755807
20
-0.737933
0
VERTEX
8
0
10
-0.436819
20
-0.737933
0
VERTEX
8
0
10
-0.358330
20
-0.816421
0
VERTEX
8
0
10
-0.358330
20
-1.091183
0
VERTEX
8
0
10
-0.158646
20
-1.290867
0
VERTEX
8
0
10
-0.047293
20
-1.290867
0
VERTEX
8
0
10
-0.001441
20
-1.336719
0
VERTEX
8
0
10
-0.001441
20
-1.474937
0
VERTEX
8
0
10
0.000000
20
-1.476378
0
SEQEND
8
0
0
POLYLINE
8
0
66
1
40
0.090000
41
0.090000
0
VERTEX
8
0
10
0.190551
20
-1.476378
0
VERTEX
8
0
10
0.060000
20
-1.476378
0
VERTEX
8
0
10
0.001575
20
-1.476378
0
SEQEND
8
0
0
POLYLINE
8
0
66
1
40
0.025000
41
0.025000
0
VERTEX
8
0
10
0.001575
20
-1.476378
0
VERTEX
8
0
10
0.000000
20
-1.476378
0
SEQEND
8
0
0
POLYLINE
8
0
66
1
40
0.080000
41
0.080000
0
VERTEX
8
0
10
0.001575
20
-0.885827
0
VERTEX
8
0
10
0.001575
20
-1.476378
0
VERTEX
8
0
10
0.001575
20
-1.508996
0
VERTEX
8
0
10
0.003794
20
-1.511215
0
VERTEX
8
0
10
0.000000
20
-1.476378
0
SEQEND
8
0
0
POLYLINE
8
0
66
1
40
0.070000
41
0.070000
0
VERTEX
8
0
10
0.012565
20
-0.886215
0
VERTEX
8
0
10
0.296298
20
-0.886215
0
VERTEX
8
0
10
0.299193
20
-0.889110
0
VERTEX
8
0
10
0.293701
20
-0.885827
0
SEQEND
8
0
0
POLYLINE
8
0
66
1
40
0.070000
41
0.070000
0
VERTEX
8
0
10
0.012565
20
-0.886215
0
VERTEX
8
0
10
0.001575
20
-0.885827
0
SEQEND
8
0
0
POLYLINE
8
0
66
1
40
0.025000
41
0.025000
0
VERTEX
8
0
10
0.001575
20
-0.885827
0
VERTEX
8
0
10
0.012178
20
-0.885827
0
SEQEND
8
0
0
POLYLINE
8
0
66
1
40
0.090000
41
0.090000
0
VERTEX
8
0
10
0.012178
20
-0.885827
0
VERTEX
8
0
10
0.069570
20
-0.885827
0
VERTEX
8
0
10
0.176717
20
-0.778680
0
VERTEX
8
0
10
0.176717
20
-0.615133
0
VERTEX
8
0
10
0.235197
20
-0.556654
0
VERTEX
8
0
10
1.088170
20
-0.556654
0
VERTEX
8
0
10
1.189932
20
-0.454891
0
VERTEX
8
0
10
1.278038
20
-0.366785
0
VERTEX
8
0
10
1.278038
20
0.228976
0
VERTEX
8
0
10
1.279528
20
0.288976
0
SEQEND
8
0
0
POLYLINE
8
0
66
1
40
0.070000
41
0.070000
0
VERTEX
8
0
10
0.000000
20
-0.688976
0
VERTEX
8
0
10
0.000000
20
-0.873649
0
VERTEX
8
0
10
0.012178
20
-0.885827
0
VERTEX
8
0
10
0.012565
20
-0.886215
0
SEQEND
8
0
0
INSERT
8
0
2
EPAD
10
-1.279528
20
0.292126
41
0.120000
42
0.120000
0
CIRCLE
8
0
10
-1.279528
20
0.292126
40
0.030000
0
INSERT
8
0
2
EPAD
10
-1.279528
20
0.492126
41
0.120000
42
0.120000
0
CIRCLE
8
0
10
-1.279528
20
0.492126
40
0.030000
0
INSERT
8
0
2
EPAD
10
-1.279528
20
0.692126
41
0.120000
42
0.120000
0
CIRCLE
8
0
10
-1.279528
20
0.692126
40
0.030000
0
INSERT
8
0
2
EPAD
10
1.279528
20
0.288976
41
0.120000
42
0.120000
0
CIRCLE
8
0
10
1.279528
20
0.288976
40
0.030000
0
INSERT
8
0
2
EPAD
10
1.279528
20
0.488976
41
0.120000
42
0.120000
0
CIRCLE
8
0
10
1.279528
20
0.488976
40
0.030000
0
INSERT
8
0
2
EPAD
10
1.279528
20
0.688976
41
0.120000
42
0.120000
0
CIRCLE
8
0
10
1.279528
20
0.688976
40
0.030000
0
INSERT
8
0
2
EPAD
10
0.000000
20
-1.476378
41
0.120000
42
0.120000
0
CIRCLE
8
0
10
0.000000
20
-1.476378
40
0.030000
0
INSERT
8
0
2
EPAD
10
-0.200000
20
-1.476378
41
0.120000
42
0.120000
0
CIRCLE
8
0
10
-0.200000
20
-1.476378
40
0.030000
0
INSERT
8
0
2
EPAD
10
0.190551
20
-1.476378
41
0.120000
42
0.120000
0
CIRCLE
8
0
10
0.190551
20
-1.476378
40
0.030000
0
INSERT
8
0
2
EPAD
10
0.390551
20
-1.476378
41
0.120000
42
0.120000
0
CIRCLE
8
0
10
0.390551
20
-1.476378
40
0.030000
0
INSERT
8
0
2
EPAD
10
0.590551
20
-1.476378
41
0.120000
42
0.120000
0
CIRCLE
8
0
10
0.590551
20
-1.476378
40
0.030000
0
INSERT
8
0
2
RPAD
10
-0.198425
20
-0.885827
41
0.080000
42
0.080000
50
0.000000
0
CIRCLE
8
0
10
-0.198425
20
-0.885827
40
0.025000
0
INSERT
8
0
2
RPAD
10
-0.098425
20
-0.885827
41
0.080000
42
0.080000
50
0.000000
0
CIRCLE
8
0
10
-0.098425
20
-0.885827
40
0.025000
0
INSERT
8
0
2
RPAD
10
0.001575
20
-0.885827
41
0.080000
42
0.080000
50
0.000000
0
CIRCLE
8
0
10
0.001575
20
-0.885827
40
0.025000
0
INSERT
8
0
2
EPAD
10
0.203150
20
-1.082677
41
0.070000
42
0.070000
0
CIRCLE
8
0
10
0.203150
20
-1.082677
40
0.025000
0
INSERT
8
0
2
EPAD
10
-0.196850
20
-1.082677
41
0.070000
42
0.070000
0
CIRCLE
8
0
10
-0.196850
20
-1.082677
40
0.025000
0
INSERT
8
0
2
EPAD
10
0.387402
20
-1.082677
41
0.070000
42
0.070000
0
CIRCLE
8
0
10
0.387402
20
-1.082677
40
0.025000
0
INSERT
8
0
2
EPAD
10
0.787402
20
-1.082677
41
0.070000
42
0.070000
0
CIRCLE
8
0
10
0.787402
20
-1.082677
40
0.025000
0
INSERT
8
0
2
EPAD
10
-0.498701
20
-1.077677
41
0.070000
42
0.070000
0
CIRCLE
8
0
10
-0.498701
20
-1.077677
40
0.025000
0
INSERT
8
0
2
EPAD
10
-0.898701
20
-1.077677
41
0.070000
42
0.070000
0
CIRCLE
8
0
10
-0.898701
20
-1.077677
40
0.025000
0
INSERT
8
0
2
EPAD
10
-0.498701
20
-0.880827
41
0.090000
42
0.090000
0
CIRCLE
8
0
10
-0.498701
20
-0.880827
40
0.025000
0
INSERT
8
0
2
EPAD
10
-0.898701
20
-0.880827
41
0.090000
42
0.090000
0
CIRCLE
8
0
10
-0.898701
20
-0.880827
40
0.025000
0
INSERT
8
0
2
EPAD
10
-1.181102
20
-1.082677
41
0.100000
42
0.100000
0
CIRCLE
8
0
10
-1.181102
20
-1.082677
40
0.025000
0
INSERT
8
0
2
EPAD
10
-1.181102
20
-0.882677
41
0.100000
42
0.100000
0
CIRCLE
8
0
10
-1.181102
20
-0.882677
40
0.025000
0
INSERT
8
0
2
EPAD
10
0.393701
20
-0.885827
41
0.080000
42
0.080000
0
CIRCLE
8
0
10
0.393701
20
-0.885827
40
0.025000
0
INSERT
8
0
2
EPAD
10
0.293701
20
-0.885827
41
0.080000
42
0.080000
0
CIRCLE
8
0
10
0.293701
20
-0.885827
40
0.025000
0
INSERT
8
0
2
EPAD
10
0.400000
20
-0.688976
41
0.070000
42
0.070000
0
CIRCLE
8
0
10
0.400000
20
-0.688976
40
0.025000
0
INSERT
8
0
2
EPAD
10
0.000000
20
-0.688976
41
0.070000
42
0.070000
0
CIRCLE
8
0
10
0.000000
20
-0.688976
40
0.025000
0
INSERT
8
0
2
EPAD
10
-0.688976
20
-0.393701
41
0.090000
42
0.090000
0
CIRCLE
8
0
10
-0.688976
20
-0.393701
40
0.025000
0
INSERT
8
0
2
EPAD
10
0.688976
20
-0.393701
41
0.090000
42
0.090000
0
CIRCLE
8
0
10
0.688976
20
-0.393701
40
0.025000
0
INSERT
8
0
2
EPAD
10
-0.688976
20
1.417323
41
0.090000
42
0.090000
0
CIRCLE
8
0
10
-0.688976
20
1.417323
40
0.025000
0
INSERT
8
0
2
EPAD
10
0.688976
20
1.417323
41
0.090000
42
0.090000
0
CIRCLE
8
0
10
0.688976
20
1.417323
40
0.025000
0
INSERT
8
0
2
EPAD
10
-0.649803
20
-0.791654
41
0.090000
42
0.090000
0
CIRCLE
8
0
10
-0.649803
20
-0.791654
40
0.025000
0
POLYLINE
8
0
66
1
40
0.008000
41
0.008000
0
VERTEX
8
0
10
-1.574803
20
-1.771654
0
VERTEX
8
0
10
1.574803
20
-1.771654
0
VERTEX
8
0
10
1.574803
20
1.771654
0
VERTEX
8
0
10
-1.574803
20
1.771654
0
VERTEX
8
0
10
-1.574803
20
-1.771654
0
SEQEND
8
0
0
POLYLINE
8
0
66
1
40
0.000000
41
0.000000
0
VERTEX
8
0
10
-1.129803
20
-0.266654
0
VERTEX
8
0
10
1.120197
20
-0.266654
0
SEQEND
8
0
0
POLYLINE
8
0
66
1
40
0.000000
41
0.000000
0
VERTEX
8
0
10
-1.129803
20
-0.262717
0
VERTEX
8
0
10
1.120197
20
-0.262717
0
SEQEND
8
0
0
POLYLINE
8
0
66
1
40
0.000000
41
0.000000
0
VERTEX
8
0
10
-1.129803
20
-0.258780
0
VERTEX
8
0
10
1.120197
20
-0.258780
0
SEQEND
8
0
0
POLYLINE
8
0
66
1
40
0.000000
41
0.000000
0
VERTEX
8
0
10
-1.129803
20
-0.254843
0
VERTEX
8
0
10
1.120197
20
-0.254843
0
SEQEND
8
0
0
POLYLINE
8
0
66
1
40
0.000000
41
0.000000
0
VERTEX
8
0
10
-1.129803
20
-0.250906
0
VERTEX
8
0
10
1.120197
20
-0.250906
0
SEQEND
8
0
0
POLYLINE
8
0
66
1
40
0.000000
41
0.000000
0
VERTEX
8
0
10
-1.129803
20
-0.246969
0
VERTEX
8
0
10
1.120197
20
-0.246969
0
SEQEND
8
0
0
POLYLINE
8
0
66
1
40
0.000000
41
0.000000
0
VERTEX
8
0
10
-1.129803
20
-0.243031
0
VERTEX
8
0
10
1.120197
20
-0.243031
0
SEQEND
8
0
0
POLYLINE
8
0
66
1
40
0.000000
41
0.000000
0
VERTEX
8
0
10
-1.129803
20
-0.239094
0
VERTEX
8
0
10
1.120197
20
-0.239094
0
SEQEND
8
0
0
POLYLINE
8
0
66
1
40
0.000000
41
0.000000
0
VERTEX
8
0
10
-1.129803
20
-0.235157
0
VERTEX
8
0
10
1.120197
20
-0.235157
0
SEQEND
8
0
0
POLYLINE
8
0
66
1
40
0.000000
41
0.000000
0
VERTEX
8
0
10
-1.129803
20
-0.231220
0
VERTEX
8
0
10
1.120197
20
-0.231220
0
SEQEND
8
0
0
POLYLINE
8
0
66
1
40
0.000000
41
0.000000
0
VERTEX
8
0
10
-1.129803
20
-0.227283
0
VERTEX
8
0
10
1.120197
20
-0.227283
0
SEQEND
8
0
0
POLYLINE
8
0
66
1
40
0.000000
41
0.000000
0
VERTEX
8
0
10
-1.129803
20
-0.223346
0
VERTEX
8
0
10
1.120197
20
-0.223346
0
SEQEND
8
0
0
POLYLINE
8
0
66
1
40
0.000000
41
0.000000
0
VERTEX
8
0
10
-1.129803
20
-0.219409
0
VERTEX
8
0
10
1.120197
20
-0.219409
0
SEQEND
8
0
0
POLYLINE
8
0
66
1
40
0.000000
41
0.000000
0
VERTEX
8
0
10
-1.129803
20
-0.215472
0
VERTEX
8
0
10
1.120197
20
-0.215472
0
SEQEND
8
0
0
POLYLINE
8
0
66
1
40
0.000000
41
0.000000
0
VERTEX
8
0
10
-1.129803
20
-0.211535
0
VERTEX
8
0
10
1.120197
20
-0.211535
0
SEQEND
8
0
0
POLYLINE
8
0
66
1
40
0.000000
41
0.000000
0
VERTEX
8
0
10
-1.129803
20
-0.207598
0
VERTEX
8
0
10
1.120197
20
-0.207598
0
SEQEND
8
0
0
POLYLINE
8
0
66
1
40
0.000000
41
0.000000
0
VERTEX
8
0
10
-1.129803
20
-0.203661
0
VERTEX
8
0
10
1.120197
20
-0.203661
0
SEQEND
8
0
0
POLYLINE
8
0
66
1
40
0.000000
41
0.000000
0
VERTEX
8
0
10
-1.129803
20
-0.199724
0
VERTEX
8
0
10
1.120197
20
-0.199724
0
SEQEND
8
0
0
POLYLINE
8
0
66
1
40
0.000000
41
0.000000
0
VERTEX
8
0
10
-1.129803
20
-0.195787
0
VERTEX
8
0
10
1.120197
20
-0.195787
0
SEQEND
8
0
0
POLYLINE
8
0
66
1
40
0.000000
41
0.000000
0
VERTEX
8
0
10
-1.129803
20
-0.191850
0
VERTEX
8
0
10
1.120197
20
-0.191850
0
SEQEND
8
0
0
POLYLINE
8
0
66
1
40
0.000000
41
0.000000
0
VERTEX
8
0
10
-1.129803
20
-0.187913
0
VERTEX
8
0
10
1.120197
20
-0.187913
0
SEQEND
8
0
0
POLYLINE
8
0
66
1
40
0.000000
41
0.000000
0
VERTEX
8
0
10
-1.129803
20
-0.183976
0
VERTEX
8
0
10
1.120197
20
-0.183976
0
SEQEND
8
0
0
POLYLINE
8
0
66
1
40
0.000000
41
0.000000
0
VERTEX
8
0
10
-1.129803
20
-0.180039
0
VERTEX
8
0
10
1.120197
20
-0.180039
0
SEQEND
8
0
0
POLYLINE
8
0
66
1
40
0.000000
41
0.000000
0
VERTEX
8
0
10
-1.129803
20
-0.176102
0
VERTEX
8
0
10
1.120197
20
-0.176102
0
SEQEND
8
0
0
POLYLINE
8
0
66
1
40
0.000000
41
0.000000
0
VERTEX
8
0
10
-1.129803
20
-0.172165
0
VERTEX
8
0
10
1.120197
20
-0.172165
0
SEQEND
8
0
0
POLYLINE
8
0
66
1
40
0.000000
41
0.000000
0
VERTEX
8
0
10
-1.129803
20
-0.168228
0
VERTEX
8
0
10
1.120197
20
-0.168228
0
SEQEND
8
0
0
POLYLINE
8
0
66
1
40
0.000000
41
0.000000
0
VERTEX
8
0
10
-1.129803
20
-0.164291
0
VERTEX
8
0
10
1.120197
20
-0.164291
0
SEQEND
8
0
0
POLYLINE
8
0
66
1
40
0.000000
41
0.000000
0
VERTEX
8
0
10
-1.129803
20
-0.160354
0
VERTEX
8
0
10
1.120197
20
-0.160354
0
SEQEND
8
0
0
POLYLINE
8
0
66
1
40
0.000000
41
0.000000
0
VERTEX
8
0
10
-1.129803
20
-0.156417
0
VERTEX
8
0
10
1.120197
20
-0.156417
0
SEQEND
8
0
0
POLYLINE
8
0
66
1
40
0.000000
41
0.000000
0
VERTEX
8
0
10
-1.129803
20
-0.152480
0
VERTEX
8
0
10
1.120197
20
-0.152480
0
SEQEND
8
0
0
POLYLINE
8
0
66
1
40
0.000000
41
0.000000
0
VERTEX
8
0
10
-1.129803
20
-0.148543
0
VERTEX
8
0
10
1.120197
20
-0.148543
0
SEQEND
8
0
0
POLYLINE
8
0
66
1
40
0.000000
41
0.000000
0
VERTEX
8
0
10
-1.129803
20
-0.144606
0
VERTEX
8
0
10
1.120197
20
-0.144606
0
SEQEND
8
0
0
POLYLINE
8
0
66
1
40
0.000000
41
0.000000
0
VERTEX
8
0
10
-1.129803
20
-0.140669
0
VERTEX
8
0
10
1.120197
20
-0.140669
0
SEQEND
8
0
0
POLYLINE
8
0
66
1
40
0.000000
41
0.000000
0
VERTEX
8
0
10
-1.129803
20
-0.136732
0
VERTEX
8
0
10
1.120197
20
-0.136732
0
SEQEND
8
0
0
POLYLINE
8
0
66
1
40
0.000000
41
0.000000
0
VERTEX
8
0
10
-1.129803
20
-0.132795
0
VERTEX
8
0
10
1.120197
20
-0.132795
0
SEQEND
8
0
0
POLYLINE
8
0
66
1
40
0.000000
41
0.000000
0
VERTEX
8
0
10
-1.129803
20
-0.128858
0
VERTEX
8
0
10
1.120197
20
-0.128858
0
SEQEND
8
0
0
POLYLINE
8
0
66
1
40
0.000000
41
0.000000
0
VERTEX
8
0
10
-1.129803
20
-0.124921
0
VERTEX
8
0
10
1.120197
20
-0.124921
0
SEQEND
8
0
0
POLYLINE
8
0
66
1
40
0.000000
41
0.000000
0
VERTEX
8
0
10
-1.129803
20
-0.120984
0
VERTEX
8
0
10
1.120197
20
-0.120984
0
SEQEND
8
0
0
POLYLINE
8
0
66
1
40
0.000000
41
0.000000
0
VERTEX
8
0
10
-1.129803
20
-0.117047
0
VERTEX
8
0
10
1.120197
20
-0.117047
0
SEQEND
8
0
0
POLYLINE
8
0
66
1
40
0.000000
41
0.000000
0
VERTEX
8
0
10
-1.129803
20
-0.113110
0
VERTEX
8
0
10
1.120197
20
-0.113110
0
SEQEND
8
0
0
POLYLINE
8
0
66
1
40
0.000000
41
0.000000
0
VERTEX
8
0
10
-1.129803
20
-0.109173
0
VERTEX
8
0
10
1.120197
20
-0.109173
0
SEQEND
8
0
0
POLYLINE
8
0
66
1
40
0.000000
41
0.000000
0
VERTEX
8
0
10
-1.129803
20
-0.105236
0
VERTEX
8
0
10
1.120197
20
-0.105236
0
SEQEND
8
0
0
POLYLINE
8
0
66
1
40
0.000000
41
0.000000
0
VERTEX
8
0
10
-1.129803
20
-0.101299
0
VERTEX
8
0
10
1.120197
20
-0.101299
0
SEQEND
8
0
0
POLYLINE
8
0
66
1
40
0.000000
41
0.000000
0
VERTEX
8
0
10
-1.129803
20
-0.097362
0
VERTEX
8
0
10
1.120197
20
-0.097362
0
SEQEND
8
0
0
POLYLINE
8
0
66
1
40
0.000000
41
0.000000
0
VERTEX
8
0
10
-1.129803
20
-0.093425
0
VERTEX
8
0
10
1.120197
20
-0.093425
0
SEQEND
8
0
0
POLYLINE
8
0
66
1
40
0.000000
41
0.000000
0
VERTEX
8
0
10
-1.129803
20
-0.089488
0
VERTEX
8
0
10
1.120197
20
-0.089488
0
SEQEND
8
0
0
POLYLINE
8
0
66
1
40
0.000000
41
0.000000
0
VERTEX
8
0
10
-1.129803
20
-0.085551
0
VERTEX
8
0
10
1.120197
20
-0.085551
0
SEQEND
8
0
0
POLYLINE
8
0
66
1
40
0.000000
41
0.000000
0
VERTEX
8
0
10
-1.129803
20
-0.081614
0
VERTEX
8
0
10
1.120197
20
-0.081614
0
SEQEND
8
0
0
POLYLINE
8
0
66
1
40
0.000000
41
0.000000
0
VERTEX
8
0
10
-1.129803
20
-0.077677
0
VERTEX
8
0
10
1.120197
20
-0.077677
0
SEQEND
8
0
0
POLYLINE
8
0
66
1
40
0.000000
41
0.000000
0
VERTEX
8
0
10
-1.129803
20
-0.073740
0
VERTEX
8
0
10
1.120197
20
-0.073740
0
SEQEND
8
0
0
POLYLINE
8
0
66
1
40
0.000000
41
0.000000
0
VERTEX
8
0
10
-1.129803
20
-0.069803
0
VERTEX
8
0
10
1.120197
20
-0.069803
0
SEQEND
8
0
0
POLYLINE
8
0
66
1
40
0.000000
41
0.000000
0
VERTEX
8
0
10
-1.129803
20
-0.065866
0
VERTEX
8
0
10
1.120197
20
-0.065866
0
SEQEND
8
0
0
POLYLINE
8
0
66
1
40
0.000000
41
0.000000
0
VERTEX
8
0
10
-1.129803
20
-0.061929
0
VERTEX
8
0
10
1.120197
20
-0.061929
0
SEQEND
8
0
0
POLYLINE
8
0
66
1
40
0.000000
41
0.000000
0
VERTEX
8
0
10
-1.129803
20
-0.057992
0
VERTEX
8
0
10
1.120197
20
-0.057992
0
SEQEND
8
0
0
POLYLINE
8
0
66
1
40
0.000000
41
0.000000
0
VERTEX
8
0
10
-1.129803
20
-0.054055
0
VERTEX
8
0
10
1.120197
20
-0.054055
0
SEQEND
8
0
0
POLYLINE
8
0
66
1
40
0.000000
41
0.000000
0
VERTEX
8
0
10
-1.129803
20
-0.050118
0
VERTEX
8
0
10
1.120197
20
-0.050118
0
SEQEND
8
0
0
POLYLINE
8
0
66
1
40
0.000000
41
0.000000
0
VERTEX
8
0
10
-1.129803
20
-0.046181
0
VERTEX
8
0
10
1.120197
20
-0.046181
0
SEQEND
8
0
0
POLYLINE
8
0
66
1
40
0.000000
41
0.000000
0
VERTEX
8
0
10
-1.129803
20
-0.042244
0
VERTEX
8
0
10
1.120197
20
-0.042244
0
SEQEND
8
0
0
POLYLINE
8
0
66
1
40
0.000000
41
0.000000
0
VERTEX
8
0
10
-1.129803
20
-0.038307
0
VERTEX
8
0
10
1.120197
20
-0.038307
0
SEQEND
8
0
0
POLYLINE
8
0
66
1
40
0.000000
41
0.000000
0
VERTEX
8
0
10
-1.129803
20
-0.034370
0
VERTEX
8
0
10
1.120197
20
-0.034370
0
SEQEND
8
0
0
POLYLINE
8
0
66
1
40
0.000000
41
0.000000
0
VERTEX
8
0
10
-1.129803
20
-0.030433
0
VERTEX
8
0
10
1.120197
20
-0.030433
0
SEQEND
8
0
0
POLYLINE
8
0
66
1
40
0.000000
41
0.000000
0
VERTEX
8
0
10
-1.129803
20
-0.026496
0
VERTEX
8
0
10
1.120197
20
-0.026496
0
SEQEND
8
0
0
POLYLINE
8
0
66
1
40
0.000000
41
0.000000
0
VERTEX
8
0
10
-1.129803
20
-0.022559
0
VERTEX
8
0
10
1.120197
20
-0.022559
0
SEQEND
8
0
0
POLYLINE
8
0
66
1
40
0.000000
41
0.000000
0
VERTEX
8
0
10
-1.129803
20
-0.018622
0
VERTEX
8
0
10
1.120197
20
-0.018622
0
SEQEND
8
0
0
POLYLINE
8
0
66
1
40
0.000000
41
0.000000
0
VERTEX
8
0
10
-1.129803
20
-0.014685
0
VERTEX
8
0
10
1.120197
20
-0.014685
0
SEQEND
8
0
0
POLYLINE
8
0
66
1
40
0.000000
41
0.000000
0
VERTEX
8
0
10
-1.129803
20
-0.010748
0
VERTEX
8
0
10
1.120197
20
-0.010748
0
SEQEND
8
0
0
POLYLINE
8
0
66
1
40
0.000000
41
0.000000
0
VERTEX
8
0
10
-1.129803
20
-0.006811
0
VERTEX
8
0
10
1.120197
20
-0.006811
0
SEQEND
8
0
0
POLYLINE
8
0
66
1
40
0.000000
41
0.000000
0
VERTEX
8
0
10
-1.129803
20
-0.002874
0
VERTEX
8
0
10
1.120197
20
-0.002874
0
SEQEND
8
0
0
POLYLINE
8
0
66
1
40
0.000000
41
0.000000
0
VERTEX
8
0
10
-1.129803
20
0.001063
0
VERTEX
8
0
10
1.120197
20
0.001063
0
SEQEND
8
0
0
POLYLINE
8
0
66
1
40
0.000000
41
0.000000
0
VERTEX
8
0
10
-1.129803
20
0.005000
0
VERTEX
8
0
10
1.120197
20
0.005000
0
SEQEND
8
0
0
POLYLINE
8
0
66
1
40
0.000000
41
0.000000
0
VERTEX
8
0
10
-1.129803
20
0.008937
0
VERTEX
8
0
10
1.120197
20
0.008937
0
SEQEND
8
0
0
POLYLINE
8
0
66
1
40
0.000000
41
0.000000
0
VERTEX
8
0
10
-1.129803
20
0.012874
0
VERTEX
8
0
10
1.120197
20
0.012874
0
SEQEND
8
0
0
POLYLINE
8
0
66
1
40
0.000000
41
0.000000
0
VERTEX
8
0
10
-1.129803
20
0.016811
0
VERTEX
8
0
10
1.120197
20
0.016811
0
SEQEND
8
0
0
POLYLINE
8
0
66
1
40
0.000000
41
0.000000
0
VERTEX
8
0
10
-1.129803
20
0.020748
0
VERTEX
8
0
10
1.120197
20
0.020748
0
SEQEND
8
0
0
POLYLINE
8
0
66
1
40
0.000000
41
0.000000
0
VERTEX
8
0
10
-1.129803
20
0.024685
0
VERTEX
8
0
10
1.120197
20
0.024685
0
SEQEND
8
0
0
POLYLINE
8
0
66
1
40
0.000000
41
0.000000
0
VERTEX
8
0
10
-1.129803
20
0.028622
0
VERTEX
8
0
10
1.120197
20
0.028622
0
SEQEND
8
0
0
POLYLINE
8
0
66
1
40
0.000000
41
0.000000
0
VERTEX
8
0
10
-1.129803
20
0.032559
0
VERTEX
8
0
10
1.120197
20
0.032559
0
SEQEND
8
0
0
POLYLINE
8
0
66
1
40
0.000000
41
0.000000
0
VERTEX
8
0
10
-1.129803
20
0.036496
0
VERTEX
8
0
10
1.120197
20
0.036496
0
SEQEND
8
0
0
POLYLINE
8
0
66
1
40
0.000000
41
0.000000
0
VERTEX
8
0
10
-1.129803
20
0.040433
0
VERTEX
8
0
10
1.120197
20
0.040433
0
SEQEND
8
0
0
POLYLINE
8
0
66
1
40
0.000000
41
0.000000
0
VERTEX
8
0
10
-1.129803
20
0.044370
0
VERTEX
8
0
10
1.120197
20
0.044370
0
SEQEND
8
0
0
POLYLINE
8
0
66
1
40
0.000000
41
0.000000
0
VERTEX
8
0
10
-1.129803
20
0.048307
0
VERTEX
8
0
10
1.120197
20
0.048307
0
SEQEND
8
0
0
POLYLINE
8
0
66
1
40
0.000000
41
0.000000
0
VERTEX
8
0
10
-1.129803
20
0.052244
0
VERTEX
8
0
10
1.120197
20
0.052244
0
SEQEND
8
0
0
POLYLINE
8
0
66
1
40
0.000000
41
0.000000
0
VERTEX
8
0
10
-1.129803
20
0.056181
0
VERTEX
8
0
10
1.120197
20
0.056181
0
SEQEND
8
0
0
POLYLINE
8
0
66
1
40
0.000000
41
0.000000
0
VERTEX
8
0
10
-1.129803
20
0.060118
0
VERTEX
8
0
10
1.120197
20
0.060118
0
SEQEND
8
0
0
POLYLINE
8
0
66
1
40
0.000000
41
0.000000
0
VERTEX
8
0
10
-1.129803
20
0.064055
0
VERTEX
8
0
10
1.120197
20
0.064055
0
SEQEND
8
0
0
POLYLINE
8
0
66
1
40
0.000000
41
0.000000
0
VERTEX
8
0
10
-1.129803
20
0.067992
0
VERTEX
8
0
10
1.120197
20
0.067992
0
SEQEND
8
0
0
POLYLINE
8
0
66
1
40
0.000000
41
0.000000
0
VERTEX
8
0
10
-1.129803
20
0.071929
0
VERTEX
8
0
10
1.120197
20
0.071929
0
SEQEND
8
0
0
POLYLINE
8
0
66
1
40
0.000000
41
0.000000
0
VERTEX
8
0
10
-1.129803
20
0.075866
0
VERTEX
8
0
10
1.120197
20
0.075866
0
SEQEND
8
0
0
POLYLINE
8
0
66
1
40
0.000000
41
0.000000
0
VERTEX
8
0
10
-1.129803
20
0.079803
0
VERTEX
8
0
10
1.120197
20
0.079803
0
SEQEND
8
0
0
POLYLINE
8
0
66
1
40
0.000000
41
0.000000
0
VERTEX
8
0
10
-1.129803
20
0.083740
0
VERTEX
8
0
10
1.120197
20
0.083740
0
SEQEND
8
0
0
POLYLINE
8
0
66
1
40
0.000000
41
0.000000
0
VERTEX
8
0
10
-1.129803
20
0.087677
0
VERTEX
8
0
10
1.120197
20
0.087677
0
SEQEND
8
0
0
POLYLINE
8
0
66
1
40
0.000000
41
0.000000
0
VERTEX
8
0
10
-1.129803
20
0.091614
0
VERTEX
8
0
10
1.120197
20
0.091614
0
SEQEND
8
0
0
POLYLINE
8
0
66
1
40
0.000000
41
0.000000
0
VERTEX
8
0
10
-1.129803
20
0.095551
0
VERTEX
8
0
10
1.120197
20
0.095551
0
SEQEND
8
0
0
POLYLINE
8
0
66
1
40
0.000000
41
0.000000
0
VERTEX
8
0
10
-1.129803
20
0.099488
0
VERTEX
8
0
10
1.120197
20
0.099488
0
SEQEND
8
0
0
POLYLINE
8
0
66
1
40
0.000000
41
0.000000
0
VERTEX
8
0
10
-1.129803
20
0.103425
0
VERTEX
8
0
10
1.120197
20
0.103425
0
SEQEND
8
0
0
POLYLINE
8
0
66
1
40
0.000000
41
0.000000
0
VERTEX
8
0
10
-1.129803
20
0.107362
0
VERTEX
8
0
10
1.120197
20
0.107362
0
SEQEND
8
0
0
POLYLINE
8
0
66
1
40
0.000000
41
0.000000
0
VERTEX
8
0
10
-1.129803
20
0.111299
0
VERTEX
8
0
10
1.120197
20
0.111299
0
SEQEND
8
0
0
POLYLINE
8
0
66
1
40
0.000000
41
0.000000
0
VERTEX
8
0
10
-1.129803
20
0.115236
0
VERTEX
8
0
10
1.120197
20
0.115236
0
SEQEND
8
0
0
POLYLINE
8
0
66
1
40
0.000000
41
0.000000
0
VERTEX
8
0
10
-1.129803
20
0.119173
0
VERTEX
8
0
10
1.120197
20
0.119173
0
SEQEND
8
0
0
POLYLINE
8
0
66
1
40
0.000000
41
0.000000
0
VERTEX
8
0
10
-1.129803
20
0.123110
0
VERTEX
8
0
10
1.120197
20
0.123110
0
SEQEND
8
0
0
POLYLINE
8
0
66
1
40
0.000000
41
0.000000
0
VERTEX
8
0
10
-1.129803
20
0.127047
0
VERTEX
8
0
10
1.120197
20
0.127047
0
SEQEND
8
0
0
POLYLINE
8
0
66
1
40
0.000000
41
0.000000
0
VERTEX
8
0
10
-1.129803
20
0.130984
0
VERTEX
8
0
10
1.120197
20
0.130984
0
SEQEND
8
0
0
POLYLINE
8
0
66
1
40
0.000000
41
0.000000
0
VERTEX
8
0
10
-1.129803
20
0.134921
0
VERTEX
8
0
10
1.120197
20
0.134921
0
SEQEND
8
0
0
POLYLINE
8
0
66
1
40
0.000000
41
0.000000
0
VERTEX
8
0
10
-1.129803
20
0.138858
0
VERTEX
8
0
10
1.120197
20
0.138858
0
SEQEND
8
0
0
POLYLINE
8
0
66
1
40
0.000000
41
0.000000
0
VERTEX
8
0
10
-1.129803
20
0.142795
0
VERTEX
8
0
10
1.120197
20
0.142795
0
SEQEND
8
0
0
POLYLINE
8
0
66
1
40
0.000000
41
0.000000
0
VERTEX
8
0
10
-1.129803
20
0.146732
0
VERTEX
8
0
10
1.120197
20
0.146732
0
SEQEND
8
0
0
POLYLINE
8
0
66
1
40
0.000000
41
0.000000
0
VERTEX
8
0
10
-1.129803
20
0.150669
0
VERTEX
8
0
10
1.120197
20
0.150669
0
SEQEND
8
0
0
POLYLINE
8
0
66
1
40
0.000000
41
0.000000
0
VERTEX
8
0
10
-1.129803
20
0.154606
0
VERTEX
8
0
10
1.120197
20
0.154606
0
SEQEND
8
0
0
POLYLINE
8
0
66
1
40
0.000000
41
0.000000
0
VERTEX
8
0
10
-1.129803
20
0.158543
0
VERTEX
8
0
10
1.120197
20
0.158543
0
SEQEND
8
0
0
POLYLINE
8
0
66
1
40
0.000000
41
0.000000
0
VERTEX
8
0
10
-1.129803
20
0.162480
0
VERTEX
8
0
10
1.120197
20
0.162480
0
SEQEND
8
0
0
POLYLINE
8
0
66
1
40
0.000000
41
0.000000
0
VERTEX
8
0
10
-1.129803
20
0.166417
0
VERTEX
8
0
10
1.120197
20
0.166417
0
SEQEND
8
0
0
POLYLINE
8
0
66
1
40
0.000000
41
0.000000
0
VERTEX
8
0
10
-1.129803
20
0.170354
0
VERTEX
8
0
10
1.120197
20
0.170354
0
SEQEND
8
0
0
POLYLINE
8
0
66
1
40
0.000000
41
0.000000
0
VERTEX
8
0
10
-1.129803
20
0.174291
0
VERTEX
8
0
10
1.120197
20
0.174291
0
SEQEND
8
0
0
POLYLINE
8
0
66
1
40
0.000000
41
0.000000
0
VERTEX
8
0
10
-1.129803
20
0.178228
0
VERTEX
8
0
10
1.120197
20
0.178228
0
SEQEND
8
0
0
POLYLINE
8
0
66
1
40
0.000000
41
0.000000
0
VERTEX
8
0
10
-1.129803
20
0.182165
0
VERTEX
8
0
10
1.120197
20
0.182165
0
SEQEND
8
0
0
POLYLINE
8
0
66
1
40
0.000000
41
0.000000
0
VERTEX
8
0
10
-1.129803
20
0.186102
0
VERTEX
8
0
10
1.120197
20
0.186102
0
SEQEND
8
0
0
POLYLINE
8
0
66
1
40
0.000000
41
0.000000
0
VERTEX
8
0
10
-1.129803
20
0.190039
0
VERTEX
8
0
10
1.120197
20
0.190039
0
SEQEND
8
0
0
POLYLINE
8
0
66
1
40
0.000000
41
0.000000
0
VERTEX
8
0
10
-1.129803
20
0.193976
0
VERTEX
8
0
10
1.120197
20
0.193976
0
SEQEND
8
0
0
POLYLINE
8
0
66
1
40
0.000000
41
0.000000
0
VERTEX
8
0
10
-1.129803
20
0.197913
0
VERTEX
8
0
10
1.120197
20
0.197913
0
SEQEND
8
0
0
POLYLINE
8
0
66
1
40
0.000000
41
0.000000
0
VERTEX
8
0
10
-1.129803
20
0.201850
0
VERTEX
8
0
10
1.120197
20
0.201850
0
SEQEND
8
0
0
POLYLINE
8
0
66
1
40
0.000000
41
0.000000
0
VERTEX
8
0
10
-1.129803
20
0.205787
0
VERTEX
8
0
10
1.120197
20
0.205787
0
SEQEND
8
0
0
POLYLINE
8
0
66
1
40
0.000000
41
0.000000
0
VERTEX
8
0
10
-1.129803
20
0.209724
0
VERTEX
8
0
10
1.120197
20
0.209724
0
SEQEND
8
0
0
POLYLINE
8
0
66
1
40
0.000000
41
0.000000
0
VERTEX
8
0
10
-1.129803
20
0.213661
0
VERTEX
8
0
10
1.120197
20
0.213661
0
SEQEND
8
0
0
POLYLINE
8
0
66
1
40
0.000000
41
0.000000
0
VERTEX
8
0
10
-1.129803
20
0.217598
0
VERTEX
8
0
10
1.120197
20
0.217598
0
SEQEND
8
0
0
POLYLINE
8
0
66
1
40
0.000000
41
0.000000
0
VERTEX
8
0
10
-1.129803
20
0.221535
0
VERTEX
8
0
10
1.120197
20
0.221535
0
SEQEND
8
0
0
POLYLINE
8
0
66
1
40
0.000000
41
0.000000
0
VERTEX
8
0
10
-1.129803
20
0.225472
0
VERTEX
8
0
10
1.120197
20
0.225472
0
SEQEND
8
0
0
POLYLINE
8
0
66
1
40
0.000000
41
0.000000
0
VERTEX
8
0
10
-1.129803
20
0.229409
0
VERTEX
8
0
10
1.120197
20
0.229409
0
SEQEND
8
0
0
POLYLINE
8
0
66
1
40
0.000000
41
0.000000
0
VERTEX
8
0
10
-1.129803
20
0.233346
0
VERTEX
8
0
10
1.120197
20
0.233346
0
SEQEND
8
0
0
POLYLINE
8
0
66
1
40
0.000000
41
0.000000
0
VERTEX
8
0
10
-1.129803
20
0.237283
0
VERTEX
8
0
10
1.120197
20
0.237283
0
SEQEND
8
0
0
POLYLINE
8
0
66
1
40
0.000000
41
0.000000
0
VERTEX
8
0
10
-1.129803
20
0.241220
0
VERTEX
8
0
10
1.120197
20
0.241220
0
SEQEND
8
0
0
POLYLINE
8
0
66
1
40
0.000000
41
0.000000
0
VERTEX
8
0
10
-1.129803
20
0.245157
0
VERTEX
8
0
10
1.120197
20
0.245157
0
SEQEND
8
0
0
POLYLINE
8
0
66
1
40
0.000000
41
0.000000
0
VERTEX
8
0
10
-1.129803
20
0.249094
0
VERTEX
8
0
10
1.120197
20
0.249094
0
SEQEND
8
0
0
POLYLINE
8
0
66
1
40
0.000000
41
0.000000
0
VERTEX
8
0
10
-1.129803
20
0.253031
0
VERTEX
8
0
10
1.120197
20
0.253031
0
SEQEND
8
0
0
POLYLINE
8
0
66
1
40
0.000000
41
0.000000
0
VERTEX
8
0
10
-1.129803
20
0.256969
0
VERTEX
8
0
10
1.120197
20
0.256969
0
SEQEND
8
0
0
POLYLINE
8
0
66
1
40
0.000000
41
0.000000
0
VERTEX
8
0
10
-1.129803
20
0.260906
0
VERTEX
8
0
10
1.120197
20
0.260906
0
SEQEND
8
0
0
POLYLINE
8
0
66
1
40
0.000000
41
0.000000
0
VERTEX
8
0
10
-1.129803
20
0.264843
0
VERTEX
8
0
10
1.120197
20
0.264843
0
SEQEND
8
0
0
POLYLINE
8
0
66
1
40
0.000000
41
0.000000
0
VERTEX
8
0
10
-1.129803
20
0.268780
0
VERTEX
8
0
10
1.120197
20
0.268780
0
SEQEND
8
0
0
POLYLINE
8
0
66
1
40
0.000000
41
0.000000
0
VERTEX
8
0
10
-1.129803
20
0.272717
0
VERTEX
8
0
10
1.120197
20
0.272717
0
SEQEND
8
0
0
POLYLINE
8
0
66
1
40
0.000000
41
0.000000
0
VERTEX
8
0
10
-1.129803
20
0.276654
0
VERTEX
8
0
10
1.120197
20
0.276654
0
SEQEND
8
0
0
POLYLINE
8
0
66
1
40
0.000000
41
0.000000
0
VERTEX
8
0
10
-1.129803
20
0.280591
0
VERTEX
8
0
10
1.120197
20
0.280591
0
SEQEND
8
0
0
POLYLINE
8
0
66
1
40
0.000000
41
0.000000
0
VERTEX
8
0
10
-1.129803
20
0.284528
0
VERTEX
8
0
10
1.120197
20
0.284528
0
SEQEND
8
0
0
POLYLINE
8
0
66
1
40
0.000000
41
0.000000
0
VERTEX
8
0
10
-1.129803
20
0.288465
0
VERTEX
8
0
10
1.120197
20
0.288465
0
SEQEND
8
0
0
POLYLINE
8
0
66
1
40
0.000000
41
0.000000
0
VERTEX
8
0
10
-1.129803
20
0.292402
0
VERTEX
8
0
10
1.120197
20
0.292402
0
SEQEND
8
0
0
POLYLINE
8
0
66
1
40
0.000000
41
0.000000
0
VERTEX
8
0
10
-1.129803
20
0.296339
0
VERTEX
8
0
10
1.120197
20
0.296339
0
SEQEND
8
0
0
POLYLINE
8
0
66
1
40
0.000000
41
0.000000
0
VERTEX
8
0
10
-1.129803
20
0.300276
0
VERTEX
8
0
10
1.120197
20
0.300276
0
SEQEND
8
0
0
POLYLINE
8
0
66
1
40
0.000000
41
0.000000
0
VERTEX
8
0
10
-1.129803
20
0.304213
0
VERTEX
8
0
10
1.120197
20
0.304213
0
SEQEND
8
0
0
POLYLINE
8
0
66
1
40
0.000000
41
0.000000
0
VERTEX
8
0
10
-1.129803
20
0.308150
0
VERTEX
8
0
10
1.120197
20
0.308150
0
SEQEND
8
0
0
POLYLINE
8
0
66
1
40
0.000000
41
0.000000
0
VERTEX
8
0
10
-1.129803
20
0.312087
0
VERTEX
8
0
10
1.120197
20
0.312087
0
SEQEND
8
0
0
POLYLINE
8
0
66
1
40
0.000000
41
0.000000
0
VERTEX
8
0
10
-1.129803
20
0.316024
0
VERTEX
8
0
10
1.120197
20
0.316024
0
SEQEND
8
0
0
POLYLINE
8
0
66
1
40
0.000000
41
0.000000
0
VERTEX
8
0
10
-1.129803
20
0.319961
0
VERTEX
8
0
10
1.120197
20
0.319961
0
SEQEND
8
0
0
POLYLINE
8
0
66
1
40
0.000000
41
0.000000
0
VERTEX
8
0
10
-1.129803
20
0.323898
0
VERTEX
8
0
10
1.120197
20
0.323898
0
SEQEND
8
0
0
POLYLINE
8
0
66
1
40
0.000000
41
0.000000
0
VERTEX
8
0
10
-1.129803
20
0.327835
0
VERTEX
8
0
10
1.120197
20
0.327835
0
SEQEND
8
0
0
POLYLINE
8
0
66
1
40
0.000000
41
0.000000
0
VERTEX
8
0
10
-1.129803
20
0.331772
0
VERTEX
8
0
10
1.120197
20
0.331772
0
SEQEND
8
0
0
POLYLINE
8
0
66
1
40
0.000000
41
0.000000
0
VERTEX
8
0
10
-1.129803
20
0.335709
0
VERTEX
8
0
10
1.120197
20
0.335709
0
SEQEND
8
0
0
POLYLINE
8
0
66
1
40
0.000000
41
0.000000
0
VERTEX
8
0
10
-1.129803
20
0.339646
0
VERTEX
8
0
10
1.120197
20
0.339646
0
SEQEND
8
0
0
POLYLINE
8
0
66
1
40
0.000000
41
0.000000
0
VERTEX
8
0
10
-1.129803
20
0.343583
0
VERTEX
8
0
10
1.120197
20
0.343583
0
SEQEND
8
0
0
POLYLINE
8
0
66
1
40
0.000000
41
0.000000
0
VERTEX
8
0
10
-1.129803
20
0.347520
0
VERTEX
8
0
10
1.120197
20
0.347520
0
SEQEND
8
0
0
POLYLINE
8
0
66
1
40
0.000000
41
0.000000
0
VERTEX
8
0
10
-1.129803
20
0.351457
0
VERTEX
8
0
10
1.120197
20
0.351457
0
SEQEND
8
0
0
POLYLINE
8
0
66
1
40
0.000000
41
0.000000
0
VERTEX
8
0
10
-1.129803
20
0.355394
0
VERTEX
8
0
10
1.120197
20
0.355394
0
SEQEND
8
0
0
POLYLINE
8
0
66
1
40
0.000000
41
0.000000
0
VERTEX
8
0
10
-1.129803
20
0.359331
0
VERTEX
8
0
10
1.120197
20
0.359331
0
SEQEND
8
0
0
POLYLINE
8
0
66
1
40
0.000000
41
0.000000
0
VERTEX
8
0
10
-1.129803
20
0.363268
0
VERTEX
8
0
10
1.120197
20
0.363268
0
SEQEND
8
0
0
POLYLINE
8
0
66
1
40
0.000000
41
0.000000
0
VERTEX
8
0
10
-1.129803
20
0.367205
0
VERTEX
8
0
10
1.120197
20
0.367205
0
SEQEND
8
0
0
POLYLINE
8
0
66
1
40
0.000000
41
0.000000
0
VERTEX
8
0
10
-1.129803
20
0.371142
0
VERTEX
8
0
10
1.120197
20
0.371142
0
SEQEND
8
0
0
POLYLINE
8
0
66
1
40
0.000000
41
0.000000
0
VERTEX
8
0
10
-1.129803
20
0.375079
0
VERTEX
8
0
10
1.120197
20
0.375079
0
SEQEND
8
0
0
POLYLINE
8
0
66
1
40
0.000000
41
0.000000
0
VERTEX
8
0
10
-1.129803
20
0.379016
0
VERTEX
8
0
10
1.120197
20
0.379016
0
SEQEND
8
0
0
POLYLINE
8
0
66
1
40
0.000000
41
0.000000
0
VERTEX
8
0
10
-1.129803
20
0.382953
0
VERTEX
8
0
10
1.120197
20
0.382953
0
SEQEND
8
0
0
POLYLINE
8
0
66
1
40
0.000000
41
0.000000
0
VERTEX
8
0
10
-1.129803
20
0.386890
0
VERTEX
8
0
10
1.120197
20
0.386890
0
SEQEND
8
0
0
POLYLINE
8
0
66
1
40
0.000000
41
0.000000
0
VERTEX
8
0
10
-1.129803
20
0.390827
0
VERTEX
8
0
10
1.120197
20
0.390827
0
SEQEND
8
0
0
POLYLINE
8
0
66
1
40
0.000000
41
0.000000
0
VERTEX
8
0
10
-1.129803
20
0.394764
0
VERTEX
8
0
10
1.120197
20
0.394764
0
SEQEND
8
0
0
POLYLINE
8
0
66
1
40
0.000000
41
0.000000
0
VERTEX
8
0
10
-1.129803
20
0.398701
0
VERTEX
8
0
10
1.120197
20
0.398701
0
SEQEND
8
0
0
POLYLINE
8
0
66
1
40
0.000000
41
0.000000
0
VERTEX
8
0
10
-1.129803
20
0.402638
0
VERTEX
8
0
10
1.120197
20
0.402638
0
SEQEND
8
0
0
POLYLINE
8
0
66
1
40
0.000000
41
0.000000
0
VERTEX
8
0
10
-1.129803
20
0.406575
0
VERTEX
8
0
10
1.120197
20
0.406575
0
SEQEND
8
0
0
POLYLINE
8
0
66
1
40
0.000000
41
0.000000
0
VERTEX
8
0
10
-1.129803
20
0.410512
0
VERTEX
8
0
10
1.120197
20
0.410512
0
SEQEND
8
0
0
POLYLINE
8
0
66
1
40
0.000000
41
0.000000
0
VERTEX
8
0
10
-1.129803
20
0.414449
0
VERTEX
8
0
10
1.120197
20
0.414449
0
SEQEND
8
0
0
POLYLINE
8
0
66
1
40
0.000000
41
0.000000
0
VERTEX
8
0
10
-1.129803
20
0.418386
0
VERTEX
8
0
10
1.120197
20
0.418386
0
SEQEND
8
0
0
POLYLINE
8
0
66
1
40
0.000000
41
0.000000
0
VERTEX
8
0
10
-1.129803
20
0.422323
0
VERTEX
8
0
10
1.120197
20
0.422323
0
SEQEND
8
0
0
POLYLINE
8
0
66
1
40
0.000000
41
0.000000
0
VERTEX
8
0
10
-1.129803
20
0.426260
0
VERTEX
8
0
10
1.120197
20
0.426260
0
SEQEND
8
0
0
POLYLINE
8
0
66
1
40
0.000000
41
0.000000
0
VERTEX
8
0
10
-1.129803
20
0.430197
0
VERTEX
8
0
10
1.120197
20
0.430197
0
SEQEND
8
0
0
POLYLINE
8
0
66
1
40
0.000000
41
0.000000
0
VERTEX
8
0
10
-1.129803
20
0.434134
0
VERTEX
8
0
10
1.120197
20
0.434134
0
SEQEND
8
0
0
POLYLINE
8
0
66
1
40
0.000000
41
0.000000
0
VERTEX
8
0
10
-1.129803
20
0.438071
0
VERTEX
8
0
10
1.120197
20
0.438071
0
SEQEND
8
0
0
POLYLINE
8
0
66
1
40
0.000000
41
0.000000
0
VERTEX
8
0
10
-1.129803
20
0.442008
0
VERTEX
8
0
10
1.120197
20
0.442008
0
SEQEND
8
0
0
POLYLINE
8
0
66
1
40
0.000000
41
0.000000
0
VERTEX
8
0
10
-1.129803
20
0.445945
0
VERTEX
8
0
10
1.120197
20
0.445945
0
SEQEND
8
0
0
POLYLINE
8
0
66
1
40
0.000000
41
0.000000
0
VERTEX
8
0
10
-1.129803
20
0.449882
0
VERTEX
8
0
10
1.120197
20
0.449882
0
SEQEND
8
0
0
POLYLINE
8
0
66
1
40
0.000000
41
0.000000
0
VERTEX
8
0
10
-1.129803
20
0.453819
0
VERTEX
8
0
10
1.120197
20
0.453819
0
SEQEND
8
0
0
POLYLINE
8
0
66
1
40
0.000000
41
0.000000
0
VERTEX
8
0
10
-1.129803
20
0.457756
0
VERTEX
8
0
10
1.120197
20
0.457756
0
SEQEND
8
0
0
POLYLINE
8
0
66
1
40
0.000000
41
0.000000
0
VERTEX
8
0
10
-1.129803
20
0.461693
0
VERTEX
8
0
10
1.120197
20
0.461693
0
SEQEND
8
0
0
POLYLINE
8
0
66
1
40
0.000000
41
0.000000
0
VERTEX
8
0
10
-1.129803
20
0.465630
0
VERTEX
8
0
10
1.120197
20
0.465630
0
SEQEND
8
0
0
POLYLINE
8
0
66
1
40
0.000000
41
0.000000
0
VERTEX
8
0
10
-1.129803
20
0.469567
0
VERTEX
8
0
10
1.120197
20
0.469567
0
SEQEND
8
0
0
POLYLINE
8
0
66
1
40
0.000000
41
0.000000
0
VERTEX
8
0
10
-1.129803
20
0.473504
0
VERTEX
8
0
10
1.120197
20
0.473504
0
SEQEND
8
0
0
POLYLINE
8
0
66
1
40
0.000000
41
0.000000
0
VERTEX
8
0
10
-1.129803
20
0.477441
0
VERTEX
8
0
10
1.120197
20
0.477441
0
SEQEND
8
0
0
POLYLINE
8
0
66
1
40
0.000000
41
0.000000
0
VERTEX
8
0
10
-1.129803
20
0.481378
0
VERTEX
8
0
10
1.120197
20
0.481378
0
SEQEND
8
0
0
POLYLINE
8
0
66
1
40
0.000000
41
0.000000
0
VERTEX
8
0
10
-1.129803
20
0.485315
0
VERTEX
8
0
10
1.120197
20
0.485315
0
SEQEND
8
0
0
POLYLINE
8
0
66
1
40
0.000000
41
0.000000
0
VERTEX
8
0
10
-1.129803
20
0.489252
0
VERTEX
8
0
10
1.120197
20
0.489252
0
SEQEND
8
0
0
POLYLINE
8
0
66
1
40
0.000000
41
0.000000
0
VERTEX
8
0
10
-1.129803
20
0.493189
0
VERTEX
8
0
10
1.120197
20
0.493189
0
SEQEND
8
0
0
POLYLINE
8
0
66
1
40
0.000000
41
0.000000
0
VERTEX
8
0
10
-1.129803
20
0.497126
0
VERTEX
8
0
10
1.120197
20
0.497126
0
SEQEND
8
0
0
POLYLINE
8
0
66
1
40
0.000000
41
0.000000
0
VERTEX
8
0
10
-1.129803
20
0.501063
0
VERTEX
8
0
10
1.120197
20
0.501063
0
SEQEND
8
0
0
POLYLINE
8
0
66
1
40
0.000000
41
0.000000
0
VERTEX
8
0
10
-1.129803
20
0.505000
0
VERTEX
8
0
10
1.120197
20
0.505000
0
SEQEND
8
0
0
POLYLINE
8
0
66
1
40
0.000000
41
0.000000
0
VERTEX
8
0
10
-1.129803
20
0.508937
0
VERTEX
8
0
10
1.120197
20
0.508937
0
SEQEND
8
0
0
POLYLINE
8
0
66
1
40
0.000000
41
0.000000
0
VERTEX
8
0
10
-1.129803
20
0.512874
0
VERTEX
8
0
10
1.120197
20
0.512874
0
SEQEND
8
0
0
POLYLINE
8
0
66
1
40
0.000000
41
0.000000
0
VERTEX
8
0
10
-1.129803
20
0.516811
0
VERTEX
8
0
10
1.120197
20
0.516811
0
SEQEND
8
0
0
POLYLINE
8
0
66
1
40
0.000000
41
0.000000
0
VERTEX
8
0
10
-1.129803
20
0.520748
0
VERTEX
8
0
10
1.120197
20
0.520748
0
SEQEND
8
0
0
POLYLINE
8
0
66
1
40
0.000000
41
0.000000
0
VERTEX
8
0
10
-1.129803
20
0.524685
0
VERTEX
8
0
10
1.120197
20
0.524685
0
SEQEND
8
0
0
POLYLINE
8
0
66
1
40
0.000000
41
0.000000
0
VERTEX
8
0
10
-1.129803
20
0.528622
0
VERTEX
8
0
10
1.120197
20
0.528622
0
SEQEND
8
0
0
POLYLINE
8
0
66
1
40
0.000000
41
0.000000
0
VERTEX
8
0
10
-1.129803
20
0.532559
0
VERTEX
8
0
10
1.120197
20
0.532559
0
SEQEND
8
0
0
POLYLINE
8
0
66
1
40
0.000000
41
0.000000
0
VERTEX
8
0
10
-1.129803
20
0.536496
0
VERTEX
8
0
10
1.120197
20
0.536496
0
SEQEND
8
0
0
POLYLINE
8
0
66
1
40
0.000000
41
0.000000
0
VERTEX
8
0
10
-1.129803
20
0.540433
0
VERTEX
8
0
10
1.120197
20
0.540433
0
SEQEND
8
0
0
POLYLINE
8
0
66
1
40
0.000000
41
0.000000
0
VERTEX
8
0
10
-1.129803
20
0.544370
0
VERTEX
8
0
10
1.120197
20
0.544370
0
SEQEND
8
0
0
POLYLINE
8
0
66
1
40
0.000000
41
0.000000
0
VERTEX
8
0
10
-1.129803
20
0.548307
0
VERTEX
8
0
10
1.120197
20
0.548307
0
SEQEND
8
0
0
POLYLINE
8
0
66
1
40
0.000000
41
0.000000
0
VERTEX
8
0
10
-1.129803
20
0.552244
0
VERTEX
8
0
10
1.120197
20
0.552244
0
SEQEND
8
0
0
POLYLINE
8
0
66
1
40
0.000000
41
0.000000
0
VERTEX
8
0
10
-1.129803
20
0.556181
0
VERTEX
8
0
10
1.120197
20
0.556181
0
SEQEND
8
0
0
POLYLINE
8
0
66
1
40
0.000000
41
0.000000
0
VERTEX
8
0
10
-1.129803
20
0.560118
0
VERTEX
8
0
10
1.120197
20
0.560118
0
SEQEND
8
0
0
POLYLINE
8
0
66
1
40
0.000000
41
0.000000
0
VERTEX
8
0
10
-1.129803
20
0.564055
0
VERTEX
8
0
10
1.120197
20
0.564055
0
SEQEND
8
0
0
POLYLINE
8
0
66
1
40
0.000000
41
0.000000
0
VERTEX
8
0
10
-1.129803
20
0.567992
0
VERTEX
8
0
10
1.120197
20
0.567992
0
SEQEND
8
0
0
POLYLINE
8
0
66
1
40
0.000000
41
0.000000
0
VERTEX
8
0
10
-1.129803
20
0.571929
0
VERTEX
8
0
10
1.120197
20
0.571929
0
SEQEND
8
0
0
POLYLINE
8
0
66
1
40
0.000000
41
0.000000
0
VERTEX
8
0
10
-1.129803
20
0.575866
0
VERTEX
8
0
10
1.120197
20
0.575866
0
SEQEND
8
0
0
POLYLINE
8
0
66
1
40
0.000000
41
0.000000
0
VERTEX
8
0
10
-1.129803
20
0.579803
0
VERTEX
8
0
10
1.120197
20
0.579803
0
SEQEND
8
0
0
POLYLINE
8
0
66
1
40
0.000000
41
0.000000
0
VERTEX
8
0
10
-1.129803
20
0.583740
0
VERTEX
8
0
10
1.120197
20
0.583740
0
SEQEND
8
0
0
POLYLINE
8
0
66
1
40
0.000000
41
0.000000
0
VERTEX
8
0
10
-1.129803
20
0.587677
0
VERTEX
8
0
10
1.120197
20
0.587677
0
SEQEND
8
0
0
POLYLINE
8
0
66
1
40
0.000000
41
0.000000
0
VERTEX
8
0
10
-1.129803
20
0.591614
0
VERTEX
8
0
10
1.120197
20
0.591614
0
SEQEND
8
0
0
POLYLINE
8
0
66
1
40
0.000000
41
0.000000
0
VERTEX
8
0
10
-1.129803
20
0.595551
0
VERTEX
8
0
10
1.120197
20
0.595551
0
SEQEND
8
0
0
POLYLINE
8
0
66
1
40
0.000000
41
0.000000
0
VERTEX
8
0
10
-1.129803
20
0.599488
0
VERTEX
8
0
10
1.120197
20
0.599488
0
SEQEND
8
0
0
POLYLINE
8
0
66
1
40
0.000000
41
0.000000
0
VERTEX
8
0
10
-1.129803
20
0.603425
0
VERTEX
8
0
10
1.120197
20
0.603425
0
SEQEND
8
0
0
POLYLINE
8
0
66
1
40
0.000000
41
0.000000
0
VERTEX
8
0
10
-1.129803
20
0.607362
0
VERTEX
8
0
10
1.120197
20
0.607362
0
SEQEND
8
0
0
POLYLINE
8
0
66
1
40
0.000000
41
0.000000
0
VERTEX
8
0
10
-1.129803
20
0.611299
0
VERTEX
8
0
10
1.120197
20
0.611299
0
SEQEND
8
0
0
POLYLINE
8
0
66
1
40
0.000000
41
0.000000
0
VERTEX
8
0
10
-1.129803
20
0.615236
0
VERTEX
8
0
10
1.120197
20
0.615236
0
SEQEND
8
0
0
POLYLINE
8
0
66
1
40
0.000000
41
0.000000
0
VERTEX
8
0
10
-1.129803
20
0.619173
0
VERTEX
8
0
10
1.120197
20
0.619173
0
SEQEND
8
0
0
POLYLINE
8
0
66
1
40
0.000000
41
0.000000
0
VERTEX
8
0
10
-1.129803
20
0.623110
0
VERTEX
8
0
10
1.120197
20
0.623110
0
SEQEND
8
0
0
POLYLINE
8
0
66
1
40
0.000000
41
0.000000
0
VERTEX
8
0
10
-1.129803
20
0.627047
0
VERTEX
8
0
10
1.120197
20
0.627047
0
SEQEND
8
0
0
POLYLINE
8
0
66
1
40
0.000000
41
0.000000
0
VERTEX
8
0
10
-1.129803
20
0.630984
0
VERTEX
8
0
10
1.120197
20
0.630984
0
SEQEND
8
0
0
POLYLINE
8
0
66
1
40
0.000000
41
0.000000
0
VERTEX
8
0
10
-1.129803
20
0.634921
0
VERTEX
8
0
10
1.120197
20
0.634921
0
SEQEND
8
0
0
POLYLINE
8
0
66
1
40
0.000000
41
0.000000
0
VERTEX
8
0
10
-1.129803
20
0.638858
0
VERTEX
8
0
10
1.120197
20
0.638858
0
SEQEND
8
0
0
POLYLINE
8
0
66
1
40
0.000000
41
0.000000
0
VERTEX
8
0
10
-1.129803
20
0.642795
0
VERTEX
8
0
10
1.120197
20
0.642795
0
SEQEND
8
0
0
POLYLINE
8
0
66
1
40
0.000000
41
0.000000
0
VERTEX
8
0
10
-1.129803
20
0.646732
0
VERTEX
8
0
10
1.120197
20
0.646732
0
SEQEND
8
0
0
POLYLINE
8
0
66
1
40
0.000000
41
0.000000
0
VERTEX
8
0
10
-1.129803
20
0.650669
0
VERTEX
8
0
10
1.120197
20
0.650669
0
SEQEND
8
0
0
POLYLINE
8
0
66
1
40
0.000000
41
0.000000
0
VERTEX
8
0
10
-1.129803
20
0.654606
0
VERTEX
8
0
10
1.120197
20
0.654606
0
SEQEND
8
0
0
POLYLINE
8
0
66
1
40
0.000000
41
0.000000
0
VERTEX
8
0
10
-1.129803
20
0.658543
0
VERTEX
8
0
10
1.120197
20
0.658543
0
SEQEND
8
0
0
POLYLINE
8
0
66
1
40
0.000000
41
0.000000
0
VERTEX
8
0
10
-1.129803
20
0.662480
0
VERTEX
8
0
10
1.120197
20
0.662480
0
SEQEND
8
0
0
POLYLINE
8
0
66
1
40
0.000000
41
0.000000
0
VERTEX
8
0
10
-1.129803
20
0.666417
0
VERTEX
8
0
10
1.120197
20
0.666417
0
SEQEND
8
0
0
POLYLINE
8
0
66
1
40
0.000000
41
0.000000
0
VERTEX
8
0
10
-1.129803
20
0.670354
0
VERTEX
8
0
10
1.120197
20
0.670354
0
SEQEND
8
0
0
POLYLINE
8
0
66
1
40
0.000000
41
0.000000
0
VERTEX
8
0
10
-1.129803
20
0.674291
0
VERTEX
8
0
10
1.120197
20
0.674291
0
SEQEND
8
0
0
POLYLINE
8
0
66
1
40
0.000000
41
0.000000
0
VERTEX
8
0
10
-1.129803
20
0.678228
0
VERTEX
8
0
10
1.120197
20
0.678228
0
SEQEND
8
0
0
POLYLINE
8
0
66
1
40
0.000000
41
0.000000
0
VERTEX
8
0
10
-1.129803
20
0.682165
0
VERTEX
8
0
10
1.120197
20
0.682165
0
SEQEND
8
0
0
POLYLINE
8
0
66
1
40
0.000000
41
0.000000
0
VERTEX
8
0
10
-1.129803
20
0.686102
0
VERTEX
8
0
10
1.120197
20
0.686102
0
SEQEND
8
0
0
POLYLINE
8
0
66
1
40
0.000000
41
0.000000
0
VERTEX
8
0
10
-1.129803
20
0.690039
0
VERTEX
8
0
10
1.120197
20
0.690039
0
SEQEND
8
0
0
POLYLINE
8
0
66
1
40
0.000000
41
0.000000
0
VERTEX
8
0
10
-1.129803
20
0.693976
0
VERTEX
8
0
10
1.120197
20
0.693976
0
SEQEND
8
0
0
POLYLINE
8
0
66
1
40
0.000000
41
0.000000
0
VERTEX
8
0
10
-1.129803
20
0.697913
0
VERTEX
8
0
10
1.120197
20
0.697913
0
SEQEND
8
0
0
POLYLINE
8
0
66
1
40
0.000000
41
0.000000
0
VERTEX
8
0
10
-1.129803
20
0.701850
0
VERTEX
8
0
10
1.120197
20
0.701850
0
SEQEND
8
0
0
POLYLINE
8
0
66
1
40
0.000000
41
0.000000
0
VERTEX
8
0
10
-1.129803
20
0.705787
0
VERTEX
8
0
10
1.120197
20
0.705787
0
SEQEND
8
0
0
POLYLINE
8
0
66
1
40
0.000000
41
0.000000
0
VERTEX
8
0
10
-1.129803
20
0.709724
0
VERTEX
8
0
10
1.120197
20
0.709724
0
SEQEND
8
0
0
POLYLINE
8
0
66
1
40
0.000000
41
0.000000
0
VERTEX
8
0
10
-1.129803
20
0.713661
0
VERTEX
8
0
10
1.120197
20
0.713661
0
SEQEND
8
0
0
POLYLINE
8
0
66
1
40
0.000000
41
0.000000
0
VERTEX
8
0
10
-1.129803
20
0.717598
0
VERTEX
8
0
10
1.120197
20
0.717598
0
SEQEND
8
0
0
POLYLINE
8
0
66
1
40
0.000000
41
0.000000
0
VERTEX
8
0
10
-1.129803
20
0.721535
0
VERTEX
8
0
10
1.120197
20
0.721535
0
SEQEND
8
0
0
POLYLINE
8
0
66
1
40
0.000000
41
0.000000
0
VERTEX
8
0
10
-1.129803
20
0.725472
0
VERTEX
8
0
10
1.120197
20
0.725472
0
SEQEND
8
0
0
POLYLINE
8
0
66
1
40
0.000000
41
0.000000
0
VERTEX
8
0
10
-1.129803
20
0.729409
0
VERTEX
8
0
10
1.120197
20
0.729409
0
SEQEND
8
0
0
POLYLINE
8
0
66
1
40
0.000000
41
0.000000
0
VERTEX
8
0
10
-1.129803
20
0.733346
0
VERTEX
8
0
10
1.120197
20
0.733346
0
SEQEND
8
0
0
POLYLINE
8
0
66
1
40
0.000000
41
0.000000
0
VERTEX
8
0
10
-1.129803
20
0.737283
0
VERTEX
8
0
10
1.120197
20
0.737283
0
SEQEND
8
0
0
POLYLINE
8
0
66
1
40
0.000000
41
0.000000
0
VERTEX
8
0
10
-1.129803
20
0.741220
0
VERTEX
8
0
10
1.120197
20
0.741220
0
SEQEND
8
0
0
POLYLINE
8
0
66
1
40
0.000000
41
0.000000
0
VERTEX
8
0
10
-1.129803
20
0.745157
0
VERTEX
8
0
10
1.120197
20
0.745157
0
SEQEND
8
0
0
POLYLINE
8
0
66
1
40
0.000000
41
0.000000
0
VERTEX
8
0
10
-1.129803
20
0.749094
0
VERTEX
8
0
10
1.120197
20
0.749094
0
SEQEND
8
0
0
POLYLINE
8
0
66
1
40
0.000000
41
0.000000
0
VERTEX
8
0
10
-1.129803
20
0.753031
0
VERTEX
8
0
10
1.120197
20
0.753031
0
SEQEND
8
0
0
POLYLINE
8
0
66
1
40
0.000000
41
0.000000
0
VERTEX
8
0
10
-1.129803
20
0.756969
0
VERTEX
8
0
10
1.120197
20
0.756969
0
SEQEND
8
0
0
POLYLINE
8
0
66
1
40
0.000000
41
0.000000
0
VERTEX
8
0
10
-1.129803
20
0.760906
0
VERTEX
8
0
10
1.120197
20
0.760906
0
SEQEND
8
0
0
POLYLINE
8
0
66
1
40
0.000000
41
0.000000
0
VERTEX
8
0
10
-1.129803
20
0.764843
0
VERTEX
8
0
10
1.120197
20
0.764843
0
SEQEND
8
0
0
POLYLINE
8
0
66
1
40
0.000000
41
0.000000
0
VERTEX
8
0
10
-1.129803
20
0.768780
0
VERTEX
8
0
10
1.120197
20
0.768780
0
SEQEND
8
0
0
POLYLINE
8
0
66
1
40
0.000000
41
0.000000
0
VERTEX
8
0
10
-1.129803
20
0.772717
0
VERTEX
8
0
10
1.120197
20
0.772717
0
SEQEND
8
0
0
POLYLINE
8
0
66
1
40
0.000000
41
0.000000
0
VERTEX
8
0
10
-1.129803
20
0.776654
0
VERTEX
8
0
10
1.120197
20
0.776654
0
SEQEND
8
0
0
POLYLINE
8
0
66
1
40
0.000000
41
0.000000
0
VERTEX
8
0
10
-1.129803
20
0.780591
0
VERTEX
8
0
10
1.120197
20
0.780591
0
SEQEND
8
0
0
POLYLINE
8
0
66
1
40
0.000000
41
0.000000
0
VERTEX
8
0
10
-1.129803
20
0.784528
0
VERTEX
8
0
10
1.120197
20
0.784528
0
SEQEND
8
0
0
POLYLINE
8
0
66
1
40
0.000000
41
0.000000
0
VERTEX
8
0
10
-1.129803
20
0.788465
0
VERTEX
8
0
10
1.120197
20
0.788465
0
SEQEND
8
0
0
POLYLINE
8
0
66
1
40
0.000000
41
0.000000
0
VERTEX
8
0
10
-1.129803
20
0.792402
0
VERTEX
8
0
10
1.120197
20
0.792402
0
SEQEND
8
0
0
POLYLINE
8
0
66
1
40
0.000000
41
0.000000
0
VERTEX
8
0
10
-1.129803
20
0.796339
0
VERTEX
8
0
10
1.120197
20
0.796339
0
SEQEND
8
0
0
POLYLINE
8
0
66
1
40
0.000000
41
0.000000
0
VERTEX
8
0
10
-1.129803
20
0.800276
0
VERTEX
8
0
10
1.120197
20
0.800276
0
SEQEND
8
0
0
POLYLINE
8
0
66
1
40
0.000000
41
0.000000
0
VERTEX
8
0
10
-1.129803
20
0.804213
0
VERTEX
8
0
10
1.120197
20
0.804213
0
SEQEND
8
0
0
POLYLINE
8
0
66
1
40
0.000000
41
0.000000
0
VERTEX
8
0
10
-1.129803
20
0.808150
0
VERTEX
8
0
10
1.120197
20
0.808150
0
SEQEND
8
0
0
POLYLINE
8
0
66
1
40
0.000000
41
0.000000
0
VERTEX
8
0
10
-1.129803
20
0.812087
0
VERTEX
8
0
10
1.120197
20
0.812087
0
SEQEND
8
0
0
POLYLINE
8
0
66
1
40
0.000000
41
0.000000
0
VERTEX
8
0
10
-1.129803
20
0.816024
0
VERTEX
8
0
10
1.120197
20
0.816024
0
SEQEND
8
0
0
POLYLINE
8
0
66
1
40
0.000000
41
0.000000
0
VERTEX
8
0
10
-1.129803
20
0.819961
0
VERTEX
8
0
10
1.120197
20
0.819961
0
SEQEND
8
0
0
POLYLINE
8
0
66
1
40
0.000000
41
0.000000
0
VERTEX
8
0
10
-1.129803
20
0.823898
0
VERTEX
8
0
10
1.120197
20
0.823898
0
SEQEND
8
0
0
POLYLINE
8
0
66
1
40
0.000000
41
0.000000
0
VERTEX
8
0
10
-1.129803
20
0.827835
0
VERTEX
8
0
10
1.120197
20
0.827835
0
SEQEND
8
0
0
POLYLINE
8
0
66
1
40
0.000000
41
0.000000
0
VERTEX
8
0
10
-1.129803
20
0.831772
0
VERTEX
8
0
10
1.120197
20
0.831772
0
SEQEND
8
0
0
POLYLINE
8
0
66
1
40
0.000000
41
0.000000
0
VERTEX
8
0
10
-1.129803
20
0.835709
0
VERTEX
8
0
10
1.120197
20
0.835709
0
SEQEND
8
0
0
POLYLINE
8
0
66
1
40
0.000000
41
0.000000
0
VERTEX
8
0
10
-1.129803
20
0.839646
0
VERTEX
8
0
10
1.120197
20
0.839646
0
SEQEND
8
0
0
POLYLINE
8
0
66
1
40
0.000000
41
0.000000
0
VERTEX
8
0
10
-1.129803
20
0.843583
0
VERTEX
8
0
10
1.120197
20
0.843583
0
SEQEND
8
0
0
POLYLINE
8
0
66
1
40
0.000000
41
0.000000
0
VERTEX
8
0
10
-1.129803
20
0.847520
0
VERTEX
8
0
10
1.120197
20
0.847520
0
SEQEND
8
0
0
POLYLINE
8
0
66
1
40
0.000000
41
0.000000
0
VERTEX
8
0
10
-1.129803
20
0.851457
0
VERTEX
8
0
10
1.120197
20
0.851457
0
SEQEND
8
0
0
POLYLINE
8
0
66
1
40
0.000000
41
0.000000
0
VERTEX
8
0
10
-1.129803
20
0.855394
0
VERTEX
8
0
10
1.120197
20
0.855394
0
SEQEND
8
0
0
POLYLINE
8
0
66
1
40
0.000000
41
0.000000
0
VERTEX
8
0
10
-1.129803
20
0.859331
0
VERTEX
8
0
10
1.120197
20
0.859331
0
SEQEND
8
0
0
POLYLINE
8
0
66
1
40
0.000000
41
0.000000
0
VERTEX
8
0
10
-1.129803
20
0.863268
0
VERTEX
8
0
10
1.120197
20
0.863268
0
SEQEND
8
0
0
POLYLINE
8
0
66
1
40
0.000000
41
0.000000
0
VERTEX
8
0
10
-1.129803
20
0.867205
0
VERTEX
8
0
10
1.120197
20
0.867205
0
SEQEND
8
0
0
POLYLINE
8
0
66
1
40
0.000000
41
0.000000
0
VERTEX
8
0
10
-1.129803
20
0.871142
0
VERTEX
8
0
10
1.120197
20
0.871142
0
SEQEND
8
0
0
POLYLINE
8
0
66
1
40
0.000000
41
0.000000
0
VERTEX
8
0
10
-1.129803
20
0.875079
0
VERTEX
8
0
10
1.120197
20
0.875079
0
SEQEND
8
0
0
POLYLINE
8
0
66
1
40
0.000000
41
0.000000
0
VERTEX
8
0
10
-1.129803
20
0.879016
0
VERTEX
8
0
10
1.120197
20
0.879016
0
SEQEND
8
0
0
POLYLINE
8
0
66
1
40
0.000000
41
0.000000
0
VERTEX
8
0
10
-1.129803
20
0.882953
0
VERTEX
8
0
10
1.120197
20
0.882953
0
SEQEND
8
0
0
POLYLINE
8
0
66
1
40
0.000000
41
0.000000
0
VERTEX
8
0
10
-1.129803
20
0.886890
0
VERTEX
8
0
10
1.120197
20
0.886890
0
SEQEND
8
0
0
POLYLINE
8
0
66
1
40
0.000000
41
0.000000
0
VERTEX
8
0
10
-1.129803
20
0.890827
0
VERTEX
8
0
10
1.120197
20
0.890827
0
SEQEND
8
0
0
POLYLINE
8
0
66
1
40
0.000000
41
0.000000
0
VERTEX
8
0
10
-1.129803
20
0.894764
0
VERTEX
8
0
10
1.120197
20
0.894764
0
SEQEND
8
0
0
POLYLINE
8
0
66
1
40
0.000000
41
0.000000
0
VERTEX
8
0
10
-1.129803
20
0.898701
0
VERTEX
8
0
10
1.120197
20
0.898701
0
SEQEND
8
0
0
POLYLINE
8
0
66
1
40
0.000000
41
0.000000
0
VERTEX
8
0
10
-1.129803
20
0.902638
0
VERTEX
8
0
10
1.120197
20
0.902638
0
SEQEND
8
0
0
POLYLINE
8
0
66
1
40
0.000000
41
0.000000
0
VERTEX
8
0
10
-1.129803
20
0.906575
0
VERTEX
8
0
10
1.120197
20
0.906575
0
SEQEND
8
0
0
POLYLINE
8
0
66
1
40
0.000000
41
0.000000
0
VERTEX
8
0
10
-1.129803
20
0.910512
0
VERTEX
8
0
10
1.120197
20
0.910512
0
SEQEND
8
0
0
POLYLINE
8
0
66
1
40
0.000000
41
0.000000
0
VERTEX
8
0
10
-1.129803
20
0.914449
0
VERTEX
8
0
10
1.120197
20
0.914449
0
SEQEND
8
0
0
POLYLINE
8
0
66
1
40
0.000000
41
0.000000
0
VERTEX
8
0
10
-1.129803
20
0.918386
0
VERTEX
8
0
10
1.120197
20
0.918386
0
SEQEND
8
0
0
POLYLINE
8
0
66
1
40
0.000000
41
0.000000
0
VERTEX
8
0
10
-1.129803
20
0.922323
0
VERTEX
8
0
10
1.120197
20
0.922323
0
SEQEND
8
0
0
POLYLINE
8
0
66
1
40
0.000000
41
0.000000
0
VERTEX
8
0
10
-1.129803
20
0.926260
0
VERTEX
8
0
10
1.120197
20
0.926260
0
SEQEND
8
0
0
POLYLINE
8
0
66
1
40
0.000000
41
0.000000
0
VERTEX
8
0
10
-1.129803
20
0.930197
0
VERTEX
8
0
10
1.120197
20
0.930197
0
SEQEND
8
0
0
POLYLINE
8
0
66
1
40
0.000000
41
0.000000
0
VERTEX
8
0
10
-1.129803
20
0.934134
0
VERTEX
8
0
10
1.120197
20
0.934134
0
SEQEND
8
0
0
POLYLINE
8
0
66
1
40
0.000000
41
0.000000
0
VERTEX
8
0
10
-1.129803
20
0.938071
0
VERTEX
8
0
10
1.120197
20
0.938071
0
SEQEND
8
0
0
POLYLINE
8
0
66
1
40
0.000000
41
0.000000
0
VERTEX
8
0
10
-1.129803
20
0.942008
0
VERTEX
8
0
10
1.120197
20
0.942008
0
SEQEND
8
0
0
POLYLINE
8
0
66
1
40
0.000000
41
0.000000
0
VERTEX
8
0
10
-1.129803
20
0.945945
0
VERTEX
8
0
10
1.120197
20
0.945945
0
SEQEND
8
0
0
POLYLINE
8
0
66
1
40
0.000000
41
0.000000
0
VERTEX
8
0
10
-1.129803
20
0.949882
0
VERTEX
8
0
10
1.120197
20
0.949882
0
SEQEND
8
0
0
POLYLINE
8
0
66
1
40
0.000000
41
0.000000
0
VERTEX
8
0
10
-1.129803
20
0.953819
0
VERTEX
8
0
10
1.120197
20
0.953819
0
SEQEND
8
0
0
POLYLINE
8
0
66
1
40
0.000000
41
0.000000
0
VERTEX
8
0
10
-1.129803
20
0.957756
0
VERTEX
8
0
10
1.120197
20
0.957756
0
SEQEND
8
0
0
POLYLINE
8
0
66
1
40
0.000000
41
0.000000
0
VERTEX
8
0
10
-1.129803
20
0.961693
0
VERTEX
8
0
10
1.120197
20
0.961693
0
SEQEND
8
0
0
POLYLINE
8
0
66
1
40
0.000000
41
0.000000
0
VERTEX
8
0
10
-1.129803
20
0.965630
0
VERTEX
8
0
10
1.120197
20
0.965630
0
SEQEND
8
0
0
POLYLINE
8
0
66
1
40
0.000000
41
0.000000
0
VERTEX
8
0
10
-1.129803
20
0.969567
0
VERTEX
8
0
10
1.120197
20
0.969567
0
SEQEND
8
0
0
POLYLINE
8
0
66
1
40
0.000000
41
0.000000
0
VERTEX
8
0
10
-1.129803
20
0.973504
0
VERTEX
8
0
10
1.120197
20
0.973504
0
SEQEND
8
0
0
POLYLINE
8
0
66
1
40
0.000000
41
0.000000
0
VERTEX
8
0
10
-1.129803
20
0.977441
0
VERTEX
8
0
10
1.120197
20
0.977441
0
SEQEND
8
0
0
POLYLINE
8
0
66
1
40
0.000000
41
0.000000
0
VERTEX
8
0
10
-1.129803
20
0.981378
0
VERTEX
8
0
10
1.120197
20
0.981378
0
SEQEND
8
0
0
POLYLINE
8
0
66
1
40
0.000000
41
0.000000
0
VERTEX
8
0
10
-1.129803
20
0.985315
0
VERTEX
8
0
10
1.120197
20
0.985315
0
SEQEND
8
0
0
POLYLINE
8
0
66
1
40
0.000000
41
0.000000
0
VERTEX
8
0
10
-1.129803
20
0.989252
0
VERTEX
8
0
10
1.120197
20
0.989252
0
SEQEND
8
0
0
POLYLINE
8
0
66
1
40
0.000000
41
0.000000
0
VERTEX
8
0
10
-1.129803
20
0.993189
0
VERTEX
8
0
10
1.120197
20
0.993189
0
SEQEND
8
0
0
POLYLINE
8
0
66
1
40
0.000000
41
0.000000
0
VERTEX
8
0
10
-1.129803
20
0.997126
0
VERTEX
8
0
10
1.120197
20
0.997126
0
SEQEND
8
0
0
POLYLINE
8
0
66
1
40
0.000000
41
0.000000
0
VERTEX
8
0
10
-1.129803
20
1.001063
0
VERTEX
8
0
10
1.120197
20
1.001063
0
SEQEND
8
0
0
POLYLINE
8
0
66
1
40
0.000000
41
0.000000
0
VERTEX
8
0
10
-1.129803
20
1.005000
0
VERTEX
8
0
10
1.120197
20
1.005000
0
SEQEND
8
0
0
POLYLINE
8
0
66
1
40
0.000000
41
0.000000
0
VERTEX
8
0
10
-1.129803
20
1.008937
0
VERTEX
8
0
10
1.120197
20
1.008937
0
SEQEND
8
0
0
POLYLINE
8
0
66
1
40
0.000000
41
0.000000
0
VERTEX
8
0
10
-1.129803
20
1.012874
0
VERTEX
8
0
10
1.120197
20
1.012874
0
SEQEND
8
0
0
POLYLINE
8
0
66
1
40
0.000000
41
0.000000
0
VERTEX
8
0
10
-1.129803
20
1.016811
0
VERTEX
8
0
10
1.120197
20
1.016811
0
SEQEND
8
0
0
POLYLINE
8
0
66
1
40
0.000000
41
0.000000
0
VERTEX
8
0
10
-1.129803
20
1.020748
0
VERTEX
8
0
10
1.120197
20
1.020748
0
SEQEND
8
0
0
POLYLINE
8
0
66
1
40
0.000000
41
0.000000
0
VERTEX
8
0
10
-1.129803
20
1.024685
0
VERTEX
8
0
10
1.120197
20
1.024685
0
SEQEND
8
0
0
POLYLINE
8
0
66
1
40
0.000000
41
0.000000
0
VERTEX
8
0
10
-1.129803
20
1.028622
0
VERTEX
8
0
10
1.120197
20
1.028622
0
SEQEND
8
0
0
POLYLINE
8
0
66
1
40
0.000000
41
0.000000
0
VERTEX
8
0
10
-1.129803
20
1.032559
0
VERTEX
8
0
10
1.120197
20
1.032559
0
SEQEND
8
0
0
POLYLINE
8
0
66
1
40
0.000000
41
0.000000
0
VERTEX
8
0
10
-1.129803
20
1.036496
0
VERTEX
8
0
10
1.120197
20
1.036496
0
SEQEND
8
0
0
POLYLINE
8
0
66
1
40
0.000000
41
0.000000
0
VERTEX
8
0
10
-1.129803
20
1.040433
0
VERTEX
8
0
10
1.120197
20
1.040433
0
SEQEND
8
0
0
POLYLINE
8
0
66
1
40
0.000000
41
0.000000
0
VERTEX
8
0
10
-1.129803
20
1.044370
0
VERTEX
8
0
10
1.120197
20
1.044370
0
SEQEND
8
0
0
POLYLINE
8
0
66
1
40
0.000000
41
0.000000
0
VERTEX
8
0
10
-1.129803
20
1.048307
0
VERTEX
8
0
10
1.120197
20
1.048307
0
SEQEND
8
0
0
POLYLINE
8
0
66
1
40
0.000000
41
0.000000
0
VERTEX
8
0
10
-1.129803
20
1.052244
0
VERTEX
8
0
10
1.120197
20
1.052244
0
SEQEND
8
0
0
POLYLINE
8
0
66
1
40
0.000000
41
0.000000
0
VERTEX
8
0
10
-1.129803
20
1.053346
0
VERTEX
8
0
10
1.120197
20
1.053346
0
SEQEND
8
0
0
POLYLINE
8
0
66
1
40
0.008000
41
0.008000
0
VERTEX
8
0
10
-1.129803
20
-0.266654
0
VERTEX
8
0
10
1.120197
20
-0.266654
0
VERTEX
8
0
10
1.120197
20
1.053346
0
VERTEX
8
0
10
-1.129803
20
1.053346
0
VERTEX
8
0
10
-1.129803
20
-0.266654
0
SEQEND
8
0
0
POLYLINE
8
0
66
1
40
0.000000
41
0.000000
0
VERTEX
8
0
10
-1.489803
20
0.835709
0
VERTEX
8
0
10
1.475197
20
0.835709
0
SEQEND
8
0
0
POLYLINE
8
0
66
1
40
0.000000
41
0.000000
0
VERTEX
8
0
10
-1.489803
20
0.839646
0
VERTEX
8
0
10
1.475197
20
0.839646
0
SEQEND
8
0
0
POLYLINE
8
0
66
1
40
0.000000
41
0.000000
0
VERTEX
8
0
10
-1.489803
20
0.843583
0
VERTEX
8
0
10
1.475197
20
0.843583
0
SEQEND
8
0
0
POLYLINE
8
0
66
1
40
0.000000
41
0.000000
0
VERTEX
8
0
10
-1.489803
20
0.847520
0
VERTEX
8
0
10
1.475197
20
0.847520
0
SEQEND
8
0
0
POLYLINE
8
0
66
1
40
0.000000
41
0.000000
0
VERTEX
8
0
10
-1.489803
20
0.851457
0
VERTEX
8
0
10
1.475197
20
0.851457
0
SEQEND
8
0
0
POLYLINE
8
0
66
1
40
0.000000
41
0.000000
0
VERTEX
8
0
10
-1.489803
20
0.855394
0
VERTEX
8
0
10
1.475197
20
0.855394
0
SEQEND
8
0
0
POLYLINE
8
0
66
1
40
0.000000
41
0.000000
0
VERTEX
8
0
10
-1.489803
20
0.859331
0
VERTEX
8
0
10
1.475197
20
0.859331
0
SEQEND
8
0
0
POLYLINE
8
0
66
1
40
0.000000
41
0.000000
0
VERTEX
8
0
10
-1.489803
20
0.863268
0
VERTEX
8
0
10
1.475197
20
0.863268
0
SEQEND
8
0
0
POLYLINE
8
0
66
1
40
0.000000
41
0.000000
0
VERTEX
8
0
10
-1.489803
20
0.867205
0
VERTEX
8
0
10
1.475197
20
0.867205
0
SEQEND
8
0
0
POLYLINE
8
0
66
1
40
0.000000
41
0.000000
0
VERTEX
8
0
10
-1.489803
20
0.871142
0
VERTEX
8
0
10
1.475197
20
0.871142
0
SEQEND
8
0
0
POLYLINE
8
0
66
1
40
0.000000
41
0.000000
0
VERTEX
8
0
10
-1.489803
20
0.875079
0
VERTEX
8
0
10
1.475197
20
0.875079
0
SEQEND
8
0
0
POLYLINE
8
0
66
1
40
0.000000
41
0.000000
0
VERTEX
8
0
10
-1.489803
20
0.879016
0
VERTEX
8
0
10
1.475197
20
0.879016
0
SEQEND
8
0
0
POLYLINE
8
0
66
1
40
0.000000
41
0.000000
0
VERTEX
8
0
10
-1.489803
20
0.882953
0
VERTEX
8
0
10
1.475197
20
0.882953
0
SEQEND
8
0
0
POLYLINE
8
0
66
1
40
0.000000
41
0.000000
0
VERTEX
8
0
10
-1.489803
20
0.886890
0
VERTEX
8
0
10
1.475197
20
0.886890
0
SEQEND
8
0
0
POLYLINE
8
0
66
1
40
0.000000
41
0.000000
0
VERTEX
8
0
10
-1.489803
20
0.890827
0
VERTEX
8
0
10
1.475197
20
0.890827
0
SEQEND
8
0
0
POLYLINE
8
0
66
1
40
0.000000
41
0.000000
0
VERTEX
8
0
10
-1.489803
20
0.894764
0
VERTEX
8
0
10
1.475197
20
0.894764
0
SEQEND
8
0
0
POLYLINE
8
0
66
1
40
0.000000
41
0.000000
0
VERTEX
8
0
10
-1.489803
20
0.898701
0
VERTEX
8
0
10
1.475197
20
0.898701
0
SEQEND
8
0
0
POLYLINE
8
0
66
1
40
0.000000
41
0.000000
0
VERTEX
8
0
10
-1.489803
20
0.902638
0
VERTEX
8
0
10
1.475197
20
0.902638
0
SEQEND
8
0
0
POLYLINE
8
0
66
1
40
0.000000
41
0.000000
0
VERTEX
8
0
10
-1.489803
20
0.906575
0
VERTEX
8
0
10
1.475197
20
0.906575
0
SEQEND
8
0
0
POLYLINE
8
0
66
1
40
0.000000
41
0.000000
0
VERTEX
8
0
10
-1.489803
20
0.910512
0
VERTEX
8
0
10
1.475197
20
0.910512
0
SEQEND
8
0
0
POLYLINE
8
0
66
1
40
0.000000
41
0.000000
0
VERTEX
8
0
10
-1.489803
20
0.914449
0
VERTEX
8
0
10
1.475197
20
0.914449
0
SEQEND
8
0
0
POLYLINE
8
0
66
1
40
0.000000
41
0.000000
0
VERTEX
8
0
10
-1.489803
20
0.918386
0
VERTEX
8
0
10
1.475197
20
0.918386
0
SEQEND
8
0
0
POLYLINE
8
0
66
1
40
0.000000
41
0.000000
0
VERTEX
8
0
10
-1.489803
20
0.922323
0
VERTEX
8
0
10
1.475197
20
0.922323
0
SEQEND
8
0
0
POLYLINE
8
0
66
1
40
0.000000
41
0.000000
0
VERTEX
8
0
10
-1.489803
20
0.926260
0
VERTEX
8
0
10
1.475197
20
0.926260
0
SEQEND
8
0
0
POLYLINE
8
0
66
1
40
0.000000
41
0.000000
0
VERTEX
8
0
10
-1.489803
20
0.930197
0
VERTEX
8
0
10
1.475197
20
0.930197
0
SEQEND
8
0
0
POLYLINE
8
0
66
1
40
0.000000
41
0.000000
0
VERTEX
8
0
10
-1.489803
20
0.934134
0
VERTEX
8
0
10
1.475197
20
0.934134
0
SEQEND
8
0
0
POLYLINE
8
0
66
1
40
0.000000
41
0.000000
0
VERTEX
8
0
10
-1.489803
20
0.938071
0
VERTEX
8
0
10
1.475197
20
0.938071
0
SEQEND
8
0
0
POLYLINE
8
0
66
1
40
0.000000
41
0.000000
0
VERTEX
8
0
10
-1.489803
20
0.942008
0
VERTEX
8
0
10
1.475197
20
0.942008
0
SEQEND
8
0
0
POLYLINE
8
0
66
1
40
0.000000
41
0.000000
0
VERTEX
8
0
10
-1.489803
20
0.945945
0
VERTEX
8
0
10
1.475197
20
0.945945
0
SEQEND
8
0
0
POLYLINE
8
0
66
1
40
0.000000
41
0.000000
0
VERTEX
8
0
10
-1.489803
20
0.949882
0
VERTEX
8
0
10
1.475197
20
0.949882
0
SEQEND
8
0
0
POLYLINE
8
0
66
1
40
0.000000
41
0.000000
0
VERTEX
8
0
10
-1.489803
20
0.953819
0
VERTEX
8
0
10
1.475197
20
0.953819
0
SEQEND
8
0
0
POLYLINE
8
0
66
1
40
0.000000
41
0.000000
0
VERTEX
8
0
10
-1.489803
20
0.957756
0
VERTEX
8
0
10
1.475197
20
0.957756
0
SEQEND
8
0
0
POLYLINE
8
0
66
1
40
0.000000
41
0.000000
0
VERTEX
8
0
10
-1.489803
20
0.961693
0
VERTEX
8
0
10
1.475197
20
0.961693
0
SEQEND
8
0
0
POLYLINE
8
0
66
1
40
0.000000
41
0.000000
0
VERTEX
8
0
10
-1.489803
20
0.965630
0
VERTEX
8
0
10
1.475197
20
0.965630
0
SEQEND
8
0
0
POLYLINE
8
0
66
1
40
0.000000
41
0.000000
0
VERTEX
8
0
10
-1.489803
20
0.969567
0
VERTEX
8
0
10
1.475197
20
0.969567
0
SEQEND
8
0
0
POLYLINE
8
0
66
1
40
0.000000
41
0.000000
0
VERTEX
8
0
10
-1.489803
20
0.973504
0
VERTEX
8
0
10
1.475197
20
0.973504
0
SEQEND
8
0
0
POLYLINE
8
0
66
1
40
0.000000
41
0.000000
0
VERTEX
8
0
10
-1.489803
20
0.977441
0
VERTEX
8
0
10
1.475197
20
0.977441
0
SEQEND
8
0
0
POLYLINE
8
0
66
1
40
0.000000
41
0.000000
0
VERTEX
8
0
10
-1.489803
20
0.981378
0
VERTEX
8
0
10
1.475197
20
0.981378
0
SEQEND
8
0
0
POLYLINE
8
0
66
1
40
0.000000
41
0.000000
0
VERTEX
8
0
10
-1.489803
20
0.985315
0
VERTEX
8
0
10
1.475197
20
0.985315
0
SEQEND
8
0
0
POLYLINE
8
0
66
1
40
0.000000
41
0.000000
0
VERTEX
8
0
10
-1.489803
20
0.989252
0
VERTEX
8
0
10
1.475197
20
0.989252
0
SEQEND
8
0
0
POLYLINE
8
0
66
1
40
0.000000
41
0.000000
0
VERTEX
8
0
10
-1.489803
20
0.993189
0
VERTEX
8
0
10
1.475197
20
0.993189
0
SEQEND
8
0
0
POLYLINE
8
0
66
1
40
0.000000
41
0.000000
0
VERTEX
8
0
10
-1.489803
20
0.997126
0
VERTEX
8
0
10
1.475197
20
0.997126
0
SEQEND
8
0
0
POLYLINE
8
0
66
1
40
0.000000
41
0.000000
0
VERTEX
8
0
10
-1.489803
20
1.001063
0
VERTEX
8
0
10
1.475197
20
1.001063
0
SEQEND
8
0
0
POLYLINE
8
0
66
1
40
0.000000
41
0.000000
0
VERTEX
8
0
10
-1.489803
20
1.005000
0
VERTEX
8
0
10
1.475197
20
1.005000
0
SEQEND
8
0
0
POLYLINE
8
0
66
1
40
0.000000
41
0.000000
0
VERTEX
8
0
10
-1.489803
20
1.008937
0
VERTEX
8
0
10
1.475197
20
1.008937
0
SEQEND
8
0
0
POLYLINE
8
0
66
1
40
0.000000
41
0.000000
0
VERTEX
8
0
10
-1.489803
20
1.012874
0
VERTEX
8
0
10
1.475197
20
1.012874
0
SEQEND
8
0
0
POLYLINE
8
0
66
1
40
0.000000
41
0.000000
0
VERTEX
8
0
10
-1.489803
20
1.016811
0
VERTEX
8
0
10
1.475197
20
1.016811
0
SEQEND
8
0
0
POLYLINE
8
0
66
1
40
0.000000
41
0.000000
0
VERTEX
8
0
10
-1.489803
20
1.020748
0
VERTEX
8
0
10
1.475197
20
1.020748
0
SEQEND
8
0
0
POLYLINE
8
0
66
1
40
0.000000
41
0.000000
0
VERTEX
8
0
10
-1.489803
20
1.024685
0
VERTEX
8
0
10
1.475197
20
1.024685
0
SEQEND
8
0
0
POLYLINE
8
0
66
1
40
0.000000
41
0.000000
0
VERTEX
8
0
10
-1.489803
20
1.028622
0
VERTEX
8
0
10
1.475197
20
1.028622
0
SEQEND
8
0
0
POLYLINE
8
0
66
1
40
0.000000
41
0.000000
0
VERTEX
8
0
10
-1.489803
20
1.032559
0
VERTEX
8
0
10
1.475197
20
1.032559
0
SEQEND
8
0
0
POLYLINE
8
0
66
1
40
0.000000
41
0.000000
0
VERTEX
8
0
10
-1.489803
20
1.036496
0
VERTEX
8
0
10
1.475197
20
1.036496
0
SEQEND
8
0
0
POLYLINE
8
0
66
1
40
0.000000
41
0.000000
0
VERTEX
8
0
10
-1.489803
20
1.040433
0
VERTEX
8
0
10
1.475197
20
1.040433
0
SEQEND
8
0
0
POLYLINE
8
0
66
1
40
0.000000
41
0.000000
0
VERTEX
8
0
10
-1.489803
20
1.044370
0
VERTEX
8
0
10
1.475197
20
1.044370
0
SEQEND
8
0
0
POLYLINE
8
0
66
1
40
0.000000
41
0.000000
0
VERTEX
8
0
10
-1.489803
20
1.048307
0
VERTEX
8
0
10
1.475197
20
1.048307
0
SEQEND
8
0
0
POLYLINE
8
0
66
1
40
0.000000
41
0.000000
0
VERTEX
8
0
10
-1.489803
20
1.052244
0
VERTEX
8
0
10
1.475197
20
1.052244
0
SEQEND
8
0
0
POLYLINE
8
0
66
1
40
0.000000
41
0.000000
0
VERTEX
8
0
10
-1.489803
20
1.056181
0
VERTEX
8
0
10
1.475197
20
1.056181
0
SEQEND
8
0
0
POLYLINE
8
0
66
1
40
0.000000
41
0.000000
0
VERTEX
8
0
10
-1.489803
20
1.060118
0
VERTEX
8
0
10
1.475197
20
1.060118
0
SEQEND
8
0
0
POLYLINE
8
0
66
1
40
0.000000
41
0.000000
0
VERTEX
8
0
10
-1.489803
20
1.064055
0
VERTEX
8
0
10
1.475197
20
1.064055
0
SEQEND
8
0
0
POLYLINE
8
0
66
1
40
0.000000
41
0.000000
0
VERTEX
8
0
10
-1.489803
20
1.067992
0
VERTEX
8
0
10
1.475197
20
1.067992
0
SEQEND
8
0
0
POLYLINE
8
0
66
1
40
0.000000
41
0.000000
0
VERTEX
8
0
10
-1.489803
20
1.071929
0
VERTEX
8
0
10
1.475197
20
1.071929
0
SEQEND
8
0
0
POLYLINE
8
0
66
1
40
0.000000
41
0.000000
0
VERTEX
8
0
10
-1.489803
20
1.075866
0
VERTEX
8
0
10
1.475197
20
1.075866
0
SEQEND
8
0
0
POLYLINE
8
0
66
1
40
0.000000
41
0.000000
0
VERTEX
8
0
10
-1.489803
20
1.079803
0
VERTEX
8
0
10
1.475197
20
1.079803
0
SEQEND
8
0
0
POLYLINE
8
0
66
1
40
0.000000
41
0.000000
0
VERTEX
8
0
10
-1.489803
20
1.083740
0
VERTEX
8
0
10
1.475197
20
1.083740
0
SEQEND
8
0
0
POLYLINE
8
0
66
1
40
0.000000
41
0.000000
0
VERTEX
8
0
10
-1.489803
20
1.087677
0
VERTEX
8
0
10
1.475197
20
1.087677
0
SEQEND
8
0
0
POLYLINE
8
0
66
1
40
0.000000
41
0.000000
0
VERTEX
8
0
10
-1.489803
20
1.091614
0
VERTEX
8
0
10
1.475197
20
1.091614
0
SEQEND
8
0
0
POLYLINE
8
0
66
1
40
0.000000
41
0.000000
0
VERTEX
8
0
10
-1.489803
20
1.095551
0
VERTEX
8
0
10
1.475197
20
1.095551
0
SEQEND
8
0
0
POLYLINE
8
0
66
1
40
0.000000
41
0.000000
0
VERTEX
8
0
10
-1.489803
20
1.099488
0
VERTEX
8
0
10
1.475197
20
1.099488
0
SEQEND
8
0
0
POLYLINE
8
0
66
1
40
0.000000
41
0.000000
0
VERTEX
8
0
10
-1.489803
20
1.103425
0
VERTEX
8
0
10
1.475197
20
1.103425
0
SEQEND
8
0
0
POLYLINE
8
0
66
1
40
0.000000
41
0.000000
0
VERTEX
8
0
10
-1.489803
20
1.107362
0
VERTEX
8
0
10
1.475197
20
1.107362
0
SEQEND
8
0
0
POLYLINE
8
0
66
1
40
0.000000
41
0.000000
0
VERTEX
8
0
10
-1.489803
20
1.111299
0
VERTEX
8
0
10
1.475197
20
1.111299
0
SEQEND
8
0
0
POLYLINE
8
0
66
1
40
0.000000
41
0.000000
0
VERTEX
8
0
10
-1.489803
20
1.115236
0
VERTEX
8
0
10
1.475197
20
1.115236
0
SEQEND
8
0
0
POLYLINE
8
0
66
1
40
0.000000
41
0.000000
0
VERTEX
8
0
10
-1.489803
20
1.119173
0
VERTEX
8
0
10
1.475197
20
1.119173
0
SEQEND
8
0
0
POLYLINE
8
0
66
1
40
0.000000
41
0.000000
0
VERTEX
8
0
10
-1.489803
20
1.123110
0
VERTEX
8
0
10
1.475197
20
1.123110
0
SEQEND
8
0
0
POLYLINE
8
0
66
1
40
0.000000
41
0.000000
0
VERTEX
8
0
10
-1.489803
20
1.127047
0
VERTEX
8
0
10
1.475197
20
1.127047
0
SEQEND
8
0
0
POLYLINE
8
0
66
1
40
0.000000
41
0.000000
0
VERTEX
8
0
10
-1.489803
20
1.130984
0
VERTEX
8
0
10
1.475197
20
1.130984
0
SEQEND
8
0
0
POLYLINE
8
0
66
1
40
0.000000
41
0.000000
0
VERTEX
8
0
10
-1.489803
20
1.134921
0
VERTEX
8
0
10
1.475197
20
1.134921
0
SEQEND
8
0
0
POLYLINE
8
0
66
1
40
0.000000
41
0.000000
0
VERTEX
8
0
10
-1.489803
20
1.138858
0
VERTEX
8
0
10
1.475197
20
1.138858
0
SEQEND
8
0
0
POLYLINE
8
0
66
1
40
0.000000
41
0.000000
0
VERTEX
8
0
10
-1.489803
20
1.142795
0
VERTEX
8
0
10
1.475197
20
1.142795
0
SEQEND
8
0
0
POLYLINE
8
0
66
1
40
0.000000
41
0.000000
0
VERTEX
8
0
10
-1.489803
20
1.146732
0
VERTEX
8
0
10
1.475197
20
1.146732
0
SEQEND
8
0
0
POLYLINE
8
0
66
1
40
0.000000
41
0.000000
0
VERTEX
8
0
10
-1.489803
20
1.150669
0
VERTEX
8
0
10
1.475197
20
1.150669
0
SEQEND
8
0
0
POLYLINE
8
0
66
1
40
0.000000
41
0.000000
0
VERTEX
8
0
10
-1.489803
20
1.154606
0
VERTEX
8
0
10
1.475197
20
1.154606
0
SEQEND
8
0
0
POLYLINE
8
0
66
1
40
0.000000
41
0.000000
0
VERTEX
8
0
10
-1.489803
20
1.158543
0
VERTEX
8
0
10
1.475197
20
1.158543
0
SEQEND
8
0
0
POLYLINE
8
0
66
1
40
0.000000
41
0.000000
0
VERTEX
8
0
10
-1.489803
20
1.162480
0
VERTEX
8
0
10
1.475197
20
1.162480
0
SEQEND
8
0
0
POLYLINE
8
0
66
1
40
0.000000
41
0.000000
0
VERTEX
8
0
10
-1.489803
20
1.166417
0
VERTEX
8
0
10
1.475197
20
1.166417
0
SEQEND
8
0
0
POLYLINE
8
0
66
1
40
0.000000
41
0.000000
0
VERTEX
8
0
10
-1.489803
20
1.170354
0
VERTEX
8
0
10
1.475197
20
1.170354
0
SEQEND
8
0
0
POLYLINE
8
0
66
1
40
0.000000
41
0.000000
0
VERTEX
8
0
10
-1.489803
20
1.174291
0
VERTEX
8
0
10
1.475197
20
1.174291
0
SEQEND
8
0
0
POLYLINE
8
0
66
1
40
0.000000
41
0.000000
0
VERTEX
8
0
10
-1.489803
20
1.178228
0
VERTEX
8
0
10
1.475197
20
1.178228
0
SEQEND
8
0
0
POLYLINE
8
0
66
1
40
0.000000
41
0.000000
0
VERTEX
8
0
10
-1.489803
20
1.182165
0
VERTEX
8
0
10
1.475197
20
1.182165
0
SEQEND
8
0
0
POLYLINE
8
0
66
1
40
0.000000
41
0.000000
0
VERTEX
8
0
10
-1.489803
20
1.186102
0
VERTEX
8
0
10
1.475197
20
1.186102
0
SEQEND
8
0
0
POLYLINE
8
0
66
1
40
0.000000
41
0.000000
0
VERTEX
8
0
10
-1.489803
20
1.190039
0
VERTEX
8
0
10
1.475197
20
1.190039
0
SEQEND
8
0
0
POLYLINE
8
0
66
1
40
0.000000
41
0.000000
0
VERTEX
8
0
10
-1.489803
20
1.193976
0
VERTEX
8
0
10
1.475197
20
1.193976
0
SEQEND
8
0
0
POLYLINE
8
0
66
1
40
0.000000
41
0.000000
0
VERTEX
8
0
10
-1.489803
20
1.197913
0
VERTEX
8
0
10
1.475197
20
1.197913
0
SEQEND
8
0
0
POLYLINE
8
0
66
1
40
0.000000
41
0.000000
0
VERTEX
8
0
10
-1.489803
20
1.201850
0
VERTEX
8
0
10
1.475197
20
1.201850
0
SEQEND
8
0
0
POLYLINE
8
0
66
1
40
0.000000
41
0.000000
0
VERTEX
8
0
10
-1.489803
20
1.205787
0
VERTEX
8
0
10
1.475197
20
1.205787
0
SEQEND
8
0
0
POLYLINE
8
0
66
1
40
0.000000
41
0.000000
0
VERTEX
8
0
10
-1.489803
20
1.209724
0
VERTEX
8
0
10
1.475197
20
1.209724
0
SEQEND
8
0
0
POLYLINE
8
0
66
1
40
0.000000
41
0.000000
0
VERTEX
8
0
10
-1.489803
20
1.213661
0
VERTEX
8
0
10
1.475197
20
1.213661
0
SEQEND
8
0
0
POLYLINE
8
0
66
1
40
0.000000
41
0.000000
0
VERTEX
8
0
10
-1.489803
20
1.217598
0
VERTEX
8
0
10
1.475197
20
1.217598
0
SEQEND
8
0
0
POLYLINE
8
0
66
1
40
0.000000
41
0.000000
0
VERTEX
8
0
10
-1.489803
20
1.221535
0
VERTEX
8
0
10
1.475197
20
1.221535
0
SEQEND
8
0
0
POLYLINE
8
0
66
1
40
0.000000
41
0.000000
0
VERTEX
8
0
10
-1.489803
20
1.225472
0
VERTEX
8
0
10
1.475197
20
1.225472
0
SEQEND
8
0
0
POLYLINE
8
0
66
1
40
0.000000
41
0.000000
0
VERTEX
8
0
10
-1.489803
20
1.229409
0
VERTEX
8
0
10
1.475197
20
1.229409
0
SEQEND
8
0
0
POLYLINE
8
0
66
1
40
0.000000
41
0.000000
0
VERTEX
8
0
10
-1.489803
20
1.233346
0
VERTEX
8
0
10
1.475197
20
1.233346
0
SEQEND
8
0
0
POLYLINE
8
0
66
1
40
0.000000
41
0.000000
0
VERTEX
8
0
10
-1.489803
20
1.237283
0
VERTEX
8
0
10
1.475197
20
1.237283
0
SEQEND
8
0
0
POLYLINE
8
0
66
1
40
0.000000
41
0.000000
0
VERTEX
8
0
10
-1.489803
20
1.241220
0
VERTEX
8
0
10
1.475197
20
1.241220
0
SEQEND
8
0
0
POLYLINE
8
0
66
1
40
0.000000
41
0.000000
0
VERTEX
8
0
10
-1.489803
20
1.245157
0
VERTEX
8
0
10
1.475197
20
1.245157
0
SEQEND
8
0
0
POLYLINE
8
0
66
1
40
0.000000
41
0.000000
0
VERTEX
8
0
10
-1.489803
20
1.249094
0
VERTEX
8
0
10
1.475197
20
1.249094
0
SEQEND
8
0
0
POLYLINE
8
0
66
1
40
0.000000
41
0.000000
0
VERTEX
8
0
10
-1.489803
20
1.253031
0
VERTEX
8
0
10
1.475197
20
1.253031
0
SEQEND
8
0
0
POLYLINE
8
0
66
1
40
0.000000
41
0.000000
0
VERTEX
8
0
10
-1.489803
20
1.256969
0
VERTEX
8
0
10
1.475197
20
1.256969
0
SEQEND
8
0
0
POLYLINE
8
0
66
1
40
0.000000
41
0.000000
0
VERTEX
8
0
10
-1.489803
20
1.260906
0
VERTEX
8
0
10
1.475197
20
1.260906
0
SEQEND
8
0
0
POLYLINE
8
0
66
1
40
0.000000
41
0.000000
0
VERTEX
8
0
10
-1.489803
20
1.264843
0
VERTEX
8
0
10
1.475197
20
1.264843
0
SEQEND
8
0
0
POLYLINE
8
0
66
1
40
0.000000
41
0.000000
0
VERTEX
8
0
10
-1.489803
20
1.268780
0
VERTEX
8
0
10
1.475197
20
1.268780
0
SEQEND
8
0
0
POLYLINE
8
0
66
1
40
0.000000
41
0.000000
0
VERTEX
8
0
10
-1.489803
20
1.272717
0
VERTEX
8
0
10
1.475197
20
1.272717
0
SEQEND
8
0
0
POLYLINE
8
0
66
1
40
0.000000
41
0.000000
0
VERTEX
8
0
10
-1.489803
20
1.276654
0
VERTEX
8
0
10
1.475197
20
1.276654
0
SEQEND
8
0
0
POLYLINE
8
0
66
1
40
0.000000
41
0.000000
0
VERTEX
8
0
10
-1.489803
20
1.280591
0
VERTEX
8
0
10
1.475197
20
1.280591
0
SEQEND
8
0
0
POLYLINE
8
0
66
1
40
0.000000
41
0.000000
0
VERTEX
8
0
10
-1.489803
20
1.284528
0
VERTEX
8
0
10
1.475197
20
1.284528
0
SEQEND
8
0
0
POLYLINE
8
0
66
1
40
0.000000
41
0.000000
0
VERTEX
8
0
10
-1.489803
20
1.288465
0
VERTEX
8
0
10
1.475197
20
1.288465
0
SEQEND
8
0
0
POLYLINE
8
0
66
1
40
0.000000
41
0.000000
0
VERTEX
8
0
10
-1.489803
20
1.292402
0
VERTEX
8
0
10
1.475197
20
1.292402
0
SEQEND
8
0
0
POLYLINE
8
0
66
1
40
0.000000
41
0.000000
0
VERTEX
8
0
10
-1.489803
20
1.296339
0
VERTEX
8
0
10
1.475197
20
1.296339
0
SEQEND
8
0
0
POLYLINE
8
0
66
1
40
0.000000
41
0.000000
0
VERTEX
8
0
10
-1.489803
20
1.300276
0
VERTEX
8
0
10
1.475197
20
1.300276
0
SEQEND
8
0
0
POLYLINE
8
0
66
1
40
0.000000
41
0.000000
0
VERTEX
8
0
10
-1.489803
20
1.304213
0
VERTEX
8
0
10
1.475197
20
1.304213
0
SEQEND
8
0
0
POLYLINE
8
0
66
1
40
0.000000
41
0.000000
0
VERTEX
8
0
10
-1.489803
20
1.308150
0
VERTEX
8
0
10
1.475197
20
1.308150
0
SEQEND
8
0
0
POLYLINE
8
0
66
1
40
0.000000
41
0.000000
0
VERTEX
8
0
10
-1.489803
20
1.312087
0
VERTEX
8
0
10
1.475197
20
1.312087
0
SEQEND
8
0
0
POLYLINE
8
0
66
1
40
0.000000
41
0.000000
0
VERTEX
8
0
10
-1.489803
20
1.316024
0
VERTEX
8
0
10
1.475197
20
1.316024
0
SEQEND
8
0
0
POLYLINE
8
0
66
1
40
0.000000
41
0.000000
0
VERTEX
8
0
10
-1.489803
20
1.319961
0
VERTEX
8
0
10
1.475197
20
1.319961
0
SEQEND
8
0
0
POLYLINE
8
0
66
1
40
0.000000
41
0.000000
0
VERTEX
8
0
10
-1.489803
20
1.323898
0
VERTEX
8
0
10
1.475197
20
1.323898
0
SEQEND
8
0
0
POLYLINE
8
0
66
1
40
0.000000
41
0.000000
0
VERTEX
8
0
10
-1.489803
20
1.327835
0
VERTEX
8
0
10
1.475197
20
1.327835
0
SEQEND
8
0
0
POLYLINE
8
0
66
1
40
0.000000
41
0.000000
0
VERTEX
8
0
10
-1.489803
20
1.331772
0
VERTEX
8
0
10
1.475197
20
1.331772
0
SEQEND
8
0
0
POLYLINE
8
0
66
1
40
0.000000
41
0.000000
0
VERTEX
8
0
10
-1.489803
20
1.335709
0
VERTEX
8
0
10
1.475197
20
1.335709
0
SEQEND
8
0
0
POLYLINE
8
0
66
1
40
0.000000
41
0.000000
0
VERTEX
8
0
10
-1.489803
20
1.339646
0
VERTEX
8
0
10
1.475197
20
1.339646
0
SEQEND
8
0
0
POLYLINE
8
0
66
1
40
0.000000
41
0.000000
0
VERTEX
8
0
10
-1.489803
20
1.343346
0
VERTEX
8
0
10
1.475197
20
1.343346
0
SEQEND
8
0
0
POLYLINE
8
0
66
1
40
0.008000
41
0.008000
0
VERTEX
8
0
10
-1.489803
20
0.833346
0
VERTEX
8
0
10
1.475197
20
0.833346
0
VERTEX
8
0
10
1.475197
20
1.343346
0
VERTEX
8
0
10
-1.489803
20
1.343346
0
VERTEX
8
0
10
-1.489803
20
0.833346
0
SEQEND
8
0
0
POLYLINE
8
0
66
1
40
0.000000
41
0.000000
0
VERTEX
8
0
10
-1.489803
20
1.501063
0
VERTEX
8
0
10
1.475197
20
1.501063
0
SEQEND
8
0
0
POLYLINE
8
0
66
1
40
0.000000
41
0.000000
0
VERTEX
8
0
10
-1.489803
20
1.505000
0
VERTEX
8
0
10
1.475197
20
1.505000
0
SEQEND
8
0
0
POLYLINE
8
0
66
1
40
0.000000
41
0.000000
0
VERTEX
8
0
10
-1.489803
20
1.508937
0
VERTEX
8
0
10
1.475197
20
1.508937
0
SEQEND
8
0
0
POLYLINE
8
0
66
1
40
0.000000
41
0.000000
0
VERTEX
8
0
10
-1.489803
20
1.512874
0
VERTEX
8
0
10
1.475197
20
1.512874
0
SEQEND
8
0
0
POLYLINE
8
0
66
1
40
0.000000
41
0.000000
0
VERTEX
8
0
10
-1.489803
20
1.516811
0
VERTEX
8
0
10
1.475197
20
1.516811
0
SEQEND
8
0
0
POLYLINE
8
0
66
1
40
0.000000
41
0.000000
0
VERTEX
8
0
10
-1.489803
20
1.520748
0
VERTEX
8
0
10
1.475197
20
1.520748
0
SEQEND
8
0
0
POLYLINE
8
0
66
1
40
0.000000
41
0.000000
0
VERTEX
8
0
10
-1.489803
20
1.524685
0
VERTEX
8
0
10
1.475197
20
1.524685
0
SEQEND
8
0
0
POLYLINE
8
0
66
1
40
0.000000
41
0.000000
0
VERTEX
8
0
10
-1.489803
20
1.528622
0
VERTEX
8
0
10
1.475197
20
1.528622
0
SEQEND
8
0
0
POLYLINE
8
0
66
1
40
0.000000
41
0.000000
0
VERTEX
8
0
10
-1.489803
20
1.532559
0
VERTEX
8
0
10
1.475197
20
1.532559
0
SEQEND
8
0
0
POLYLINE
8
0
66
1
40
0.000000
41
0.000000
0
VERTEX
8
0
10
-1.489803
20
1.536496
0
VERTEX
8
0
10
1.475197
20
1.536496
0
SEQEND
8
0
0
POLYLINE
8
0
66
1
40
0.000000
41
0.000000
0
VERTEX
8
0
10
-1.489803
20
1.540433
0
VERTEX
8
0
10
1.475197
20
1.540433
0
SEQEND
8
0
0
POLYLINE
8
0
66
1
40
0.000000
41
0.000000
0
VERTEX
8
0
10
-1.489803
20
1.544370
0
VERTEX
8
0
10
1.475197
20
1.544370
0
SEQEND
8
0
0
POLYLINE
8
0
66
1
40
0.000000
41
0.000000
0
VERTEX
8
0
10
-1.489803
20
1.548307
0
VERTEX
8
0
10
1.475197
20
1.548307
0
SEQEND
8
0
0
POLYLINE
8
0
66
1
40
0.000000
41
0.000000
0
VERTEX
8
0
10
-1.489803
20
1.552244
0
VERTEX
8
0
10
1.475197
20
1.552244
0
SEQEND
8
0
0
POLYLINE
8
0
66
1
40
0.000000
41
0.000000
0
VERTEX
8
0
10
-1.489803
20
1.556181
0
VERTEX
8
0
10
1.475197
20
1.556181
0
SEQEND
8
0
0
POLYLINE
8
0
66
1
40
0.000000
41
0.000000
0
VERTEX
8
0
10
-1.489803
20
1.560118
0
VERTEX
8
0
10
1.475197
20
1.560118
0
SEQEND
8
0
0
POLYLINE
8
0
66
1
40
0.000000
41
0.000000
0
VERTEX
8
0
10
-1.489803
20
1.564055
0
VERTEX
8
0
10
1.475197
20
1.564055
0
SEQEND
8
0
0
POLYLINE
8
0
66
1
40
0.000000
41
0.000000
0
VERTEX
8
0
10
-1.489803
20
1.567992
0
VERTEX
8
0
10
1.475197
20
1.567992
0
SEQEND
8
0
0
POLYLINE
8
0
66
1
40
0.000000
41
0.000000
0
VERTEX
8
0
10
-1.489803
20
1.571929
0
VERTEX
8
0
10
1.475197
20
1.571929
0
SEQEND
8
0
0
POLYLINE
8
0
66
1
40
0.000000
41
0.000000
0
VERTEX
8
0
10
-1.489803
20
1.575866
0
VERTEX
8
0
10
1.475197
20
1.575866
0
SEQEND
8
0
0
POLYLINE
8
0
66
1
40
0.000000
41
0.000000
0
VERTEX
8
0
10
-1.489803
20
1.579803
0
VERTEX
8
0
10
1.475197
20
1.579803
0
SEQEND
8
0
0
POLYLINE
8
0
66
1
40
0.000000
41
0.000000
0
VERTEX
8
0
10
-1.489803
20
1.583740
0
VERTEX
8
0
10
1.475197
20
1.583740
0
SEQEND
8
0
0
POLYLINE
8
0
66
1
40
0.000000
41
0.000000
0
VERTEX
8
0
10
-1.489803
20
1.587677
0
VERTEX
8
0
10
1.475197
20
1.587677
0
SEQEND
8
0
0
POLYLINE
8
0
66
1
40
0.000000
41
0.000000
0
VERTEX
8
0
10
-1.489803
20
1.591614
0
VERTEX
8
0
10
1.475197
20
1.591614
0
SEQEND
8
0
0
POLYLINE
8
0
66
1
40
0.000000
41
0.000000
0
VERTEX
8
0
10
-1.489803
20
1.595551
0
VERTEX
8
0
10
1.475197
20
1.595551
0
SEQEND
8
0
0
POLYLINE
8
0
66
1
40
0.000000
41
0.000000
0
VERTEX
8
0
10
-1.489803
20
1.599488
0
VERTEX
8
0
10
1.475197
20
1.599488
0
SEQEND
8
0
0
POLYLINE
8
0
66
1
40
0.000000
41
0.000000
0
VERTEX
8
0
10
-1.489803
20
1.603425
0
VERTEX
8
0
10
1.475197
20
1.603425
0
SEQEND
8
0
0
POLYLINE
8
0
66
1
40
0.000000
41
0.000000
0
VERTEX
8
0
10
-1.489803
20
1.607362
0
VERTEX
8
0
10
1.475197
20
1.607362
0
SEQEND
8
0
0
POLYLINE
8
0
66
1
40
0.000000
41
0.000000
0
VERTEX
8
0
10
-1.489803
20
1.611299
0
VERTEX
8
0
10
1.475197
20
1.611299
0
SEQEND
8
0
0
POLYLINE
8
0
66
1
40
0.000000
41
0.000000
0
VERTEX
8
0
10
-1.489803
20
1.615236
0
VERTEX
8
0
10
1.475197
20
1.615236
0
SEQEND
8
0
0
POLYLINE
8
0
66
1
40
0.000000
41
0.000000
0
VERTEX
8
0
10
-1.489803
20
1.619173
0
VERTEX
8
0
10
1.475197
20
1.619173
0
SEQEND
8
0
0
POLYLINE
8
0
66
1
40
0.000000
41
0.000000
0
VERTEX
8
0
10
-1.489803
20
1.623110
0
VERTEX
8
0
10
1.475197
20
1.623110
0
SEQEND
8
0
0
POLYLINE
8
0
66
1
40
0.000000
41
0.000000
0
VERTEX
8
0
10
-1.489803
20
1.627047
0
VERTEX
8
0
10
1.475197
20
1.627047
0
SEQEND
8
0
0
POLYLINE
8
0
66
1
40
0.000000
41
0.000000
0
VERTEX
8
0
10
-1.489803
20
1.630984
0
VERTEX
8
0
10
1.475197
20
1.630984
0
SEQEND
8
0
0
POLYLINE
8
0
66
1
40
0.000000
41
0.000000
0
VERTEX
8
0
10
-1.489803
20
1.634921
0
VERTEX
8
0
10
1.475197
20
1.634921
0
SEQEND
8
0
0
POLYLINE
8
0
66
1
40
0.000000
41
0.000000
0
VERTEX
8
0
10
-1.489803
20
1.638858
0
VERTEX
8
0
10
1.475197
20
1.638858
0
SEQEND
8
0
0
POLYLINE
8
0
66
1
40
0.000000
41
0.000000
0
VERTEX
8
0
10
-1.489803
20
1.642795
0
VERTEX
8
0
10
1.475197
20
1.642795
0
SEQEND
8
0
0
POLYLINE
8
0
66
1
40
0.000000
41
0.000000
0
VERTEX
8
0
10
-1.489803
20
1.646732
0
VERTEX
8
0
10
1.475197
20
1.646732
0
SEQEND
8
0
0
POLYLINE
8
0
66
1
40
0.000000
41
0.000000
0
VERTEX
8
0
10
-1.489803
20
1.650669
0
VERTEX
8
0
10
1.475197
20
1.650669
0
SEQEND
8
0
0
POLYLINE
8
0
66
1
40
0.000000
41
0.000000
0
VERTEX
8
0
10
-1.489803
20
1.654606
0
VERTEX
8
0
10
1.475197
20
1.654606
0
SEQEND
8
0
0
POLYLINE
8
0
66
1
40
0.000000
41
0.000000
0
VERTEX
8
0
10
-1.489803
20
1.658543
0
VERTEX
8
0
10
1.475197
20
1.658543
0
SEQEND
8
0
0
POLYLINE
8
0
66
1
40
0.000000
41
0.000000
0
VERTEX
8
0
10
-1.489803
20
1.662480
0
VERTEX
8
0
10
1.475197
20
1.662480
0
SEQEND
8
0
0
POLYLINE
8
0
66
1
40
0.000000
41
0.000000
0
VERTEX
8
0
10
-1.489803
20
1.666417
0
VERTEX
8
0
10
1.475197
20
1.666417
0
SEQEND
8
0
0
POLYLINE
8
0
66
1
40
0.000000
41
0.000000
0
VERTEX
8
0
10
-1.489803
20
1.670354
0
VERTEX
8
0
10
1.475197
20
1.670354
0
SEQEND
8
0
0
POLYLINE
8
0
66
1
40
0.000000
41
0.000000
0
VERTEX
8
0
10
-1.489803
20
1.674291
0
VERTEX
8
0
10
1.475197
20
1.674291
0
SEQEND
8
0
0
POLYLINE
8
0
66
1
40
0.000000
41
0.000000
0
VERTEX
8
0
10
-1.489803
20
1.678228
0
VERTEX
8
0
10
1.475197
20
1.678228
0
SEQEND
8
0
0
POLYLINE
8
0
66
1
40
0.000000
41
0.000000
0
VERTEX
8
0
10
-1.489803
20
1.682165
0
VERTEX
8
0
10
1.475197
20
1.682165
0
SEQEND
8
0
0
POLYLINE
8
0
66
1
40
0.000000
41
0.000000
0
VERTEX
8
0
10
-1.489803
20
1.686102
0
VERTEX
8
0
10
1.475197
20
1.686102
0
SEQEND
8
0
0
POLYLINE
8
0
66
1
40
0.000000
41
0.000000
0
VERTEX
8
0
10
-1.489803
20
1.690039
0
VERTEX
8
0
10
1.475197
20
1.690039
0
SEQEND
8
0
0
POLYLINE
8
0
66
1
40
0.000000
41
0.000000
0
VERTEX
8
0
10
-1.489803
20
1.693976
0
VERTEX
8
0
10
1.475197
20
1.693976
0
SEQEND
8
0
0
POLYLINE
8
0
66
1
40
0.000000
41
0.000000
0
VERTEX
8
0
10
-1.489803
20
1.697913
0
VERTEX
8
0
10
1.475197
20
1.697913
0
SEQEND
8
0
0
POLYLINE
8
0
66
1
40
0.000000
41
0.000000
0
VERTEX
8
0
10
-1.489803
20
1.701850
0
VERTEX
8
0
10
1.475197
20
1.701850
0
SEQEND
8
0
0
POLYLINE
8
0
66
1
40
0.000000
41
0.000000
0
VERTEX
8
0
10
-1.489803
20
1.705787
0
VERTEX
8
0
10
1.475197
20
1.705787
0
SEQEND
8
0
0
POLYLINE
8
0
66
1
40
0.000000
41
0.000000
0
VERTEX
8
0
10
-1.489803
20
1.709724
0
VERTEX
8
0
10
1.475197
20
1.709724
0
SEQEND
8
0
0
POLYLINE
8
0
66
1
40
0.000000
41
0.000000
0
VERTEX
8
0
10
-1.489803
20
1.713661
0
VERTEX
8
0
10
1.475197
20
1.713661
0
SEQEND
8
0
0
POLYLINE
8
0
66
1
40
0.000000
41
0.000000
0
VERTEX
8
0
10
-1.489803
20
1.717598
0
VERTEX
8
0
10
1.475197
20
1.717598
0
SEQEND
8
0
0
POLYLINE
8
0
66
1
40
0.000000
41
0.000000
0
VERTEX
8
0
10
-1.489803
20
1.718346
0
VERTEX
8
0
10
1.475197
20
1.718346
0
SEQEND
8
0
0
POLYLINE
8
0
66
1
40
0.008000
41
0.008000
0
VERTEX
8
0
10
-1.489803
20
1.498346
0
VERTEX
8
0
10
1.475197
20
1.498346
0
VERTEX
8
0
10
1.475197
20
1.718346
0
VERTEX
8
0
10
-1.489803
20
1.718346
0
VERTEX
8
0
10
-1.489803
20
1.498346
0
SEQEND
8
0
0
POLYLINE
8
0
66
1
40
0.000000
41
0.000000
0
VERTEX
8
0
10
0.750354
20
-1.676654
0
VERTEX
8
0
10
0.750354
20
-1.246654
0
SEQEND
8
0
0
POLYLINE
8
0
66
1
40
0.000000
41
0.000000
0
VERTEX
8
0
10
0.754291
20
-1.676654
0
VERTEX
8
0
10
0.754291
20
-1.246654
0
SEQEND
8
0
0
POLYLINE
8
0
66
1
40
0.000000
41
0.000000
0
VERTEX
8
0
10
0.758228
20
-1.676654
0
VERTEX
8
0
10
0.758228
20
-1.246654
0
SEQEND
8
0
0
POLYLINE
8
0
66
1
40
0.000000
41
0.000000
0
VERTEX
8
0
10
0.762165
20
-1.676654
0
VERTEX
8
0
10
0.762165
20
-1.246654
0
SEQEND
8
0
0
POLYLINE
8
0
66
1
40
0.000000
41
0.000000
0
VERTEX
8
0
10
0.766102
20
-1.676654
0
VERTEX
8
0
10
0.766102
20
-1.246654
0
SEQEND
8
0
0
POLYLINE
8
0
66
1
40
0.000000
41
0.000000
0
VERTEX
8
0
10
0.770039
20
-1.676654
0
VERTEX
8
0
10
0.770039
20
-1.246654
0
SEQEND
8
0
0
POLYLINE
8
0
66
1
40
0.000000
41
0.000000
0
VERTEX
8
0
10
0.773976
20
-1.676654
0
VERTEX
8
0
10
0.773976
20
-1.246654
0
SEQEND
8
0
0
POLYLINE
8
0
66
1
40
0.000000
41
0.000000
0
VERTEX
8
0
10
0.777913
20
-1.676654
0
VERTEX
8
0
10
0.777913
20
-1.246654
0
SEQEND
8
0
0
POLYLINE
8
0
66
1
40
0.000000
41
0.000000
0
VERTEX
8
0
10
0.781850
20
-1.676654
0
VERTEX
8
0
10
0.781850
20
-1.246654
0
SEQEND
8
0
0
POLYLINE
8
0
66
1
40
0.000000
41
0.000000
0
VERTEX
8
0
10
0.785787
20
-1.676654
0
VERTEX
8
0
10
0.785787
20
-1.246654
0
SEQEND
8
0
0
POLYLINE
8
0
66
1
40
0.000000
41
0.000000
0
VERTEX
8
0
10
0.789724
20
-1.676654
0
VERTEX
8
0
10
0.789724
20
-1.246654
0
SEQEND
8
0
0
POLYLINE
8
0
66
1
40
0.000000
41
0.000000
0
VERTEX
8
0
10
0.793661
20
-1.676654
0
VERTEX
8
0
10
0.793661
20
-1.246654
0
SEQEND
8
0
0
POLYLINE
8
0
66
1
40
0.000000
41
0.000000
0
VERTEX
8
0
10
0.797598
20
-1.676654
0
VERTEX
8
0
10
0.797598
20
-1.246654
0
SEQEND
8
0
0
POLYLINE
8
0
66
1
40
0.000000
41
0.000000
0
VERTEX
8
0
10
0.801535
20
-1.676654
0
VERTEX
8
0
10
0.801535
20
-1.246654
0
SEQEND
8
0
0
POLYLINE
8
0
66
1
40
0.000000
41
0.000000
0
VERTEX
8
0
10
0.805472
20
-1.676654
0
VERTEX
8
0
10
0.805472
20
-1.246654
0
SEQEND
8
0
0
POLYLINE
8
0
66
1
40
0.000000
41
0.000000
0
VERTEX
8
0
10
0.809409
20
-1.676654
0
VERTEX
8
0
10
0.809409
20
-1.246654
0
SEQEND
8
0
0
POLYLINE
8
0
66
1
40
0.000000
41
0.000000
0
VERTEX
8
0
10
0.813346
20
-1.676654
0
VERTEX
8
0
10
0.813346
20
-1.246654
0
SEQEND
8
0
0
POLYLINE
8
0
66
1
40
0.000000
41
0.000000
0
VERTEX
8
0
10
0.817283
20
-1.676654
0
VERTEX
8
0
10
0.817283
20
-1.246654
0
SEQEND
8
0
0
POLYLINE
8
0
66
1
40
0.000000
41
0.000000
0
VERTEX
8
0
10
0.821220
20
-1.676654
0
VERTEX
8
0
10
0.821220
20
-1.246654
0
SEQEND
8
0
0
POLYLINE
8
0
66
1
40
0.000000
41
0.000000
0
VERTEX
8
0
10
0.825157
20
-1.676654
0
VERTEX
8
0
10
0.825157
20
-1.246654
0
SEQEND
8
0
0
POLYLINE
8
0
66
1
40
0.000000
41
0.000000
0
VERTEX
8
0
10
0.829094
20
-1.676654
0
VERTEX
8
0
10
0.829094
20
-1.246654
0
SEQEND
8
0
0
POLYLINE
8
0
66
1
40
0.000000
41
0.000000
0
VERTEX
8
0
10
0.833031
20
-1.676654
0
VERTEX
8
0
10
0.833031
20
-1.246654
0
SEQEND
8
0
0
POLYLINE
8
0
66
1
40
0.000000
41
0.000000
0
VERTEX
8
0
10
0.836969
20
-1.676654
0
VERTEX
8
0
10
0.836969
20
-1.246654
0
SEQEND
8
0
0
POLYLINE
8
0
66
1
40
0.000000
41
0.000000
0
VERTEX
8
0
10
0.840906
20
-1.676654
0
VERTEX
8
0
10
0.840906
20
-1.246654
0
SEQEND
8
0
0
POLYLINE
8
0
66
1
40
0.000000
41
0.000000
0
VERTEX
8
0
10
0.844843
20
-1.676654
0
VERTEX
8
0
10
0.844843
20
-1.246654
0
SEQEND
8
0
0
POLYLINE
8
0
66
1
40
0.000000
41
0.000000
0
VERTEX
8
0
10
0.848780
20
-1.676654
0
VERTEX
8
0
10
0.848780
20
-1.246654
0
SEQEND
8
0
0
POLYLINE
8
0
66
1
40
0.000000
41
0.000000
0
VERTEX
8
0
10
0.852717
20
-1.676654
0
VERTEX
8
0
10
0.852717
20
-1.246654
0
SEQEND
8
0
0
POLYLINE
8
0
66
1
40
0.000000
41
0.000000
0
VERTEX
8
0
10
0.856654
20
-1.676654
0
VERTEX
8
0
10
0.856654
20
-1.246654
0
SEQEND
8
0
0
POLYLINE
8
0
66
1
40
0.000000
41
0.000000
0
VERTEX
8
0
10
0.860591
20
-1.676654
0
VERTEX
8
0
10
0.860591
20
-1.246654
0
SEQEND
8
0
0
POLYLINE
8
0
66
1
40
0.000000
41
0.000000
0
VERTEX
8
0
10
0.864528
20
-1.676654
0
VERTEX
8
0
10
0.864528
20
-1.246654
0
SEQEND
8
0
0
POLYLINE
8
0
66
1
40
0.000000
41
0.000000
0
VERTEX
8
0
10
0.868465
20
-1.676654
0
VERTEX
8
0
10
0.868465
20
-1.246654
0
SEQEND
8
0
0
POLYLINE
8
0
66
1
40
0.000000
41
0.000000
0
VERTEX
8
0
10
0.872402
20
-1.676654
0
VERTEX
8
0
10
0.872402
20
-1.246654
0
SEQEND
8
0
0
POLYLINE
8
0
66
1
40
0.000000
41
0.000000
0
VERTEX
8
0
10
0.876339
20
-1.676654
0
VERTEX
8
0
10
0.876339
20
-1.246654
0
SEQEND
8
0
0
POLYLINE
8
0
66
1
40
0.000000
41
0.000000
0
VERTEX
8
0
10
0.880276
20
-1.676654
0
VERTEX
8
0
10
0.880276
20
-1.246654
0
SEQEND
8
0
0
POLYLINE
8
0
66
1
40
0.000000
41
0.000000
0
VERTEX
8
0
10
0.884213
20
-1.676654
0
VERTEX
8
0
10
0.884213
20
-1.246654
0
SEQEND
8
0
0
POLYLINE
8
0
66
1
40
0.000000
41
0.000000
0
VERTEX
8
0
10
0.888150
20
-1.676654
0
VERTEX
8
0
10
0.888150
20
-1.246654
0
SEQEND
8
0
0
POLYLINE
8
0
66
1
40
0.000000
41
0.000000
0
VERTEX
8
0
10
0.892087
20
-1.676654
0
VERTEX
8
0
10
0.892087
20
-1.246654
0
SEQEND
8
0
0
POLYLINE
8
0
66
1
40
0.000000
41
0.000000
0
VERTEX
8
0
10
0.896024
20
-1.676654
0
VERTEX
8
0
10
0.896024
20
-1.246654
0
SEQEND
8
0
0
POLYLINE
8
0
66
1
40
0.000000
41
0.000000
0
VERTEX
8
0
10
0.899961
20
-1.676654
0
VERTEX
8
0
10
0.899961
20
-1.246654
0
SEQEND
8
0
0
POLYLINE
8
0
66
1
40
0.000000
41
0.000000
0
VERTEX
8
0
10
0.903898
20
-1.676654
0
VERTEX
8
0
10
0.903898
20
-1.246654
0
SEQEND
8
0
0
POLYLINE
8
0
66
1
40
0.000000
41
0.000000
0
VERTEX
8
0
10
0.907835
20
-1.676654
0
VERTEX
8
0
10
0.907835
20
-1.246654
0
SEQEND
8
0
0
POLYLINE
8
0
66
1
40
0.000000
41
0.000000
0
VERTEX
8
0
10
0.911772
20
-1.676654
0
VERTEX
8
0
10
0.911772
20
-1.246654
0
SEQEND
8
0
0
POLYLINE
8
0
66
1
40
0.000000
41
0.000000
0
VERTEX
8
0
10
0.915709
20
-1.676654
0
VERTEX
8
0
10
0.915709
20
-1.246654
0
SEQEND
8
0
0
POLYLINE
8
0
66
1
40
0.000000
41
0.000000
0
VERTEX
8
0
10
0.919646
20
-1.676654
0
VERTEX
8
0
10
0.919646
20
-1.246654
0
SEQEND
8
0
0
POLYLINE
8
0
66
1
40
0.000000
41
0.000000
0
VERTEX
8
0
10
0.923583
20
-1.676654
0
VERTEX
8
0
10
0.923583
20
-1.246654
0
SEQEND
8
0
0
POLYLINE
8
0
66
1
40
0.000000
41
0.000000
0
VERTEX
8
0
10
0.927520
20
-1.676654
0
VERTEX
8
0
10
0.927520
20
-1.246654
0
SEQEND
8
0
0
POLYLINE
8
0
66
1
40
0.000000
41
0.000000
0
VERTEX
8
0
10
0.931457
20
-1.676654
0
VERTEX
8
0
10
0.931457
20
-1.246654
0
SEQEND
8
0
0
POLYLINE
8
0
66
1
40
0.000000
41
0.000000
0
VERTEX
8
0
10
0.935394
20
-1.676654
0
VERTEX
8
0
10
0.935394
20
-1.246654
0
SEQEND
8
0
0
POLYLINE
8
0
66
1
40
0.000000
41
0.000000
0
VERTEX
8
0
10
0.939331
20
-1.676654
0
VERTEX
8
0
10
0.939331
20
-1.246654
0
SEQEND
8
0
0
POLYLINE
8
0
66
1
40
0.000000
41
0.000000
0
VERTEX
8
0
10
0.943268
20
-1.676654
0
VERTEX
8
0
10
0.943268
20
-1.246654
0
SEQEND
8
0
0
POLYLINE
8
0
66
1
40
0.000000
41
0.000000
0
VERTEX
8
0
10
0.947205
20
-1.676654
0
VERTEX
8
0
10
0.947205
20
-1.246654
0
SEQEND
8
0
0
POLYLINE
8
0
66
1
40
0.000000
41
0.000000
0
VERTEX
8
0
10
0.951142
20
-1.676654
0
VERTEX
8
0
10
0.951142
20
-1.246654
0
SEQEND
8
0
0
POLYLINE
8
0
66
1
40
0.000000
41
0.000000
0
VERTEX
8
0
10
0.955079
20
-1.676654
0
VERTEX
8
0
10
0.955079
20
-1.246654
0
SEQEND
8
0
0
POLYLINE
8
0
66
1
40
0.000000
41
0.000000
0
VERTEX
8
0
10
0.959016
20
-1.676654
0
VERTEX
8
0
10
0.959016
20
-1.246654
0
SEQEND
8
0
0
POLYLINE
8
0
66
1
40
0.000000
41
0.000000
0
VERTEX
8
0
10
0.962953
20
-1.676654
0
VERTEX
8
0
10
0.962953
20
-1.246654
0
SEQEND
8
0
0
POLYLINE
8
0
66
1
40
0.000000
41
0.000000
0
VERTEX
8
0
10
0.966890
20
-1.676654
0
VERTEX
8
0
10
0.966890
20
-1.246654
0
SEQEND
8
0
0
POLYLINE
8
0
66
1
40
0.000000
41
0.000000
0
VERTEX
8
0
10
0.970827
20
-1.676654
0
VERTEX
8
0
10
0.970827
20
-1.246654
0
SEQEND
8
0
0
POLYLINE
8
0
66
1
40
0.000000
41
0.000000
0
VERTEX
8
0
10
0.974764
20
-1.676654
0
VERTEX
8
0
10
0.974764
20
-1.246654
0
SEQEND
8
0
0
POLYLINE
8
0
66
1
40
0.000000
41
0.000000
0
VERTEX
8
0
10
0.978701
20
-1.676654
0
VERTEX
8
0
10
0.978701
20
-1.246654
0
SEQEND
8
0
0
POLYLINE
8
0
66
1
40
0.000000
41
0.000000
0
VERTEX
8
0
10
0.982638
20
-1.676654
0
VERTEX
8
0
10
0.982638
20
-1.246654
0
SEQEND
8
0
0
POLYLINE
8
0
66
1
40
0.000000
41
0.000000
0
VERTEX
8
0
10
0.986575
20
-1.676654
0
VERTEX
8
0
10
0.986575
20
-1.246654
0
SEQEND
8
0
0
POLYLINE
8
0
66
1
40
0.000000
41
0.000000
0
VERTEX
8
0
10
0.990512
20
-1.676654
0
VERTEX
8
0
10
0.990512
20
-1.246654
0
SEQEND
8
0
0
POLYLINE
8
0
66
1
40
0.000000
41
0.000000
0
VERTEX
8
0
10
0.994449
20
-1.676654
0
VERTEX
8
0
10
0.994449
20
-1.246654
0
SEQEND
8
0
0
POLYLINE
8
0
66
1
40
0.000000
41
0.000000
0
VERTEX
8
0
10
0.998386
20
-1.676654
0
VERTEX
8
0
10
0.998386
20
-1.246654
0
SEQEND
8
0
0
POLYLINE
8
0
66
1
40
0.000000
41
0.000000
0
VERTEX
8
0
10
1.002323
20
-1.676654
0
VERTEX
8
0
10
1.002323
20
-1.246654
0
SEQEND
8
0
0
POLYLINE
8
0
66
1
40
0.000000
41
0.000000
0
VERTEX
8
0
10
1.006260
20
-1.676654
0
VERTEX
8
0
10
1.006260
20
-1.246654
0
SEQEND
8
0
0
POLYLINE
8
0
66
1
40
0.000000
41
0.000000
0
VERTEX
8
0
10
1.010197
20
-1.676654
0
VERTEX
8
0
10
1.010197
20
-1.246654
0
SEQEND
8
0
0
POLYLINE
8
0
66
1
40
0.000000
41
0.000000
0
VERTEX
8
0
10
1.014134
20
-1.676654
0
VERTEX
8
0
10
1.014134
20
-1.246654
0
SEQEND
8
0
0
POLYLINE
8
0
66
1
40
0.000000
41
0.000000
0
VERTEX
8
0
10
1.018071
20
-1.676654
0
VERTEX
8
0
10
1.018071
20
-1.246654
0
SEQEND
8
0
0
POLYLINE
8
0
66
1
40
0.000000
41
0.000000
0
VERTEX
8
0
10
1.022008
20
-1.676654
0
VERTEX
8
0
10
1.022008
20
-1.246654
0
SEQEND
8
0
0
POLYLINE
8
0
66
1
40
0.000000
41
0.000000
0
VERTEX
8
0
10
1.025945
20
-1.676654
0
VERTEX
8
0
10
1.025945
20
-1.246654
0
SEQEND
8
0
0
POLYLINE
8
0
66
1
40
0.000000
41
0.000000
0
VERTEX
8
0
10
1.029882
20
-1.676654
0
VERTEX
8
0
10
1.029882
20
-1.246654
0
SEQEND
8
0
0
POLYLINE
8
0
66
1
40
0.000000
41
0.000000
0
VERTEX
8
0
10
1.033819
20
-1.676654
0
VERTEX
8
0
10
1.033819
20
-1.246654
0
SEQEND
8
0
0
POLYLINE
8
0
66
1
40
0.000000
41
0.000000
0
VERTEX
8
0
10
1.037756
20
-1.676654
0
VERTEX
8
0
10
1.037756
20
-1.246654
0
SEQEND
8
0
0
POLYLINE
8
0
66
1
40
0.000000
41
0.000000
0
VERTEX
8
0
10
1.041693
20
-1.676654
0
VERTEX
8
0
10
1.041693
20
-1.246654
0
SEQEND
8
0
0
POLYLINE
8
0
66
1
40
0.000000
41
0.000000
0
VERTEX
8
0
10
1.045630
20
-1.676654
0
VERTEX
8
0
10
1.045630
20
-1.246654
0
SEQEND
8
0
0
POLYLINE
8
0
66
1
40
0.000000
41
0.000000
0
VERTEX
8
0
10
1.049567
20
-1.676654
0
VERTEX
8
0
10
1.049567
20
-1.246654
0
SEQEND
8
0
0
POLYLINE
8
0
66
1
40
0.000000
41
0.000000
0
VERTEX
8
0
10
1.053504
20
-1.676654
0
VERTEX
8
0
10
1.053504
20
-1.246654
0
SEQEND
8
0
0
POLYLINE
8
0
66
1
40
0.000000
41
0.000000
0
VERTEX
8
0
10
1.057441
20
-1.676654
0
VERTEX
8
0
10
1.057441
20
-1.246654
0
SEQEND
8
0
0
POLYLINE
8
0
66
1
40
0.000000
41
0.000000
0
VERTEX
8
0
10
1.061378
20
-1.676654
0
VERTEX
8
0
10
1.061378
20
-1.246654
0
SEQEND
8
0
0
POLYLINE
8
0
66
1
40
0.000000
41
0.000000
0
VERTEX
8
0
10
1.065315
20
-1.676654
0
VERTEX
8
0
10
1.065315
20
-1.246654
0
SEQEND
8
0
0
POLYLINE
8
0
66
1
40
0.000000
41
0.000000
0
VERTEX
8
0
10
1.069252
20
-1.676654
0
VERTEX
8
0
10
1.069252
20
-1.246654
0
SEQEND
8
0
0
POLYLINE
8
0
66
1
40
0.000000
41
0.000000
0
VERTEX
8
0
10
1.073189
20
-1.676654
0
VERTEX
8
0
10
1.073189
20
-1.246654
0
SEQEND
8
0
0
POLYLINE
8
0
66
1
40
0.000000
41
0.000000
0
VERTEX
8
0
10
1.077126
20
-1.676654
0
VERTEX
8
0
10
1.077126
20
-1.246654
0
SEQEND
8
0
0
POLYLINE
8
0
66
1
40
0.000000
41
0.000000
0
VERTEX
8
0
10
1.081063
20
-1.676654
0
VERTEX
8
0
10
1.081063
20
-1.246654
0
SEQEND
8
0
0
POLYLINE
8
0
66
1
40
0.000000
41
0.000000
0
VERTEX
8
0
10
1.085000
20
-1.676654
0
VERTEX
8
0
10
1.085000
20
-1.246654
0
SEQEND
8
0
0
POLYLINE
8
0
66
1
40
0.000000
41
0.000000
0
VERTEX
8
0
10
1.088937
20
-1.676654
0
VERTEX
8
0
10
1.088937
20
-1.246654
0
SEQEND
8
0
0
POLYLINE
8
0
66
1
40
0.000000
41
0.000000
0
VERTEX
8
0
10
1.092874
20
-1.676654
0
VERTEX
8
0
10
1.092874
20
-1.246654
0
SEQEND
8
0
0
POLYLINE
8
0
66
1
40
0.000000
41
0.000000
0
VERTEX
8
0
10
1.096811
20
-1.676654
0
VERTEX
8
0
10
1.096811
20
-1.246654
0
SEQEND
8
0
0
POLYLINE
8
0
66
1
40
0.000000
41
0.000000
0
VERTEX
8
0
10
1.100748
20
-1.676654
0
VERTEX
8
0
10
1.100748
20
-1.246654
0
SEQEND
8
0
0
POLYLINE
8
0
66
1
40
0.000000
41
0.000000
0
VERTEX
8
0
10
1.104685
20
-1.676654
0
VERTEX
8
0
10
1.104685
20
-1.246654
0
SEQEND
8
0
0
POLYLINE
8
0
66
1
40
0.000000
41
0.000000
0
VERTEX
8
0
10
1.108622
20
-1.676654
0
VERTEX
8
0
10
1.108622
20
-1.246654
0
SEQEND
8
0
0
POLYLINE
8
0
66
1
40
0.000000
41
0.000000
0
VERTEX
8
0
10
1.112559
20
-1.676654
0
VERTEX
8
0
10
1.112559
20
-1.246654
0
SEQEND
8
0
0
POLYLINE
8
0
66
1
40
0.000000
41
0.000000
0
VERTEX
8
0
10
1.116496
20
-1.676654
0
VERTEX
8
0
10
1.116496
20
-1.246654
0
SEQEND
8
0
0
POLYLINE
8
0
66
1
40
0.000000
41
0.000000
0
VERTEX
8
0
10
1.120433
20
-1.676654
0
VERTEX
8
0
10
1.120433
20
-1.246654
0
SEQEND
8
0
0
POLYLINE
8
0
66
1
40
0.000000
41
0.000000
0
VERTEX
8
0
10
1.124370
20
-1.676654
0
VERTEX
8
0
10
1.124370
20
-1.246654
0
SEQEND
8
0
0
POLYLINE
8
0
66
1
40
0.000000
41
0.000000
0
VERTEX
8
0
10
1.128307
20
-1.676654
0
VERTEX
8
0
10
1.128307
20
-1.246654
0
SEQEND
8
0
0
POLYLINE
8
0
66
1
40
0.000000
41
0.000000
0
VERTEX
8
0
10
1.132244
20
-1.676654
0
VERTEX
8
0
10
1.132244
20
-1.246654
0
SEQEND
8
0
0
POLYLINE
8
0
66
1
40
0.000000
41
0.000000
0
VERTEX
8
0
10
1.136181
20
-1.676654
0
VERTEX
8
0
10
1.136181
20
-1.246654
0
SEQEND
8
0
0
POLYLINE
8
0
66
1
40
0.000000
41
0.000000
0
VERTEX
8
0
10
1.140118
20
-1.676654
0
VERTEX
8
0
10
1.140118
20
-1.246654
0
SEQEND
8
0
0
POLYLINE
8
0
66
1
40
0.000000
41
0.000000
0
VERTEX
8
0
10
1.144055
20
-1.676654
0
VERTEX
8
0
10
1.144055
20
-1.246654
0
SEQEND
8
0
0
POLYLINE
8
0
66
1
40
0.000000
41
0.000000
0
VERTEX
8
0
10
1.147992
20
-1.676654
0
VERTEX
8
0
10
1.147992
20
-1.246654
0
SEQEND
8
0
0
POLYLINE
8
0
66
1
40
0.000000
41
0.000000
0
VERTEX
8
0
10
1.151929
20
-1.676654
0
VERTEX
8
0
10
1.151929
20
-1.246654
0
SEQEND
8
0
0
POLYLINE
8
0
66
1
40
0.000000
41
0.000000
0
VERTEX
8
0
10
1.155866
20
-1.676654
0
VERTEX
8
0
10
1.155866
20
-1.246654
0
SEQEND
8
0
0
POLYLINE
8
0
66
1
40
0.000000
41
0.000000
0
VERTEX
8
0
10
1.159803
20
-1.676654
0
VERTEX
8
0
10
1.159803
20
-1.246654
0
SEQEND
8
0
0
POLYLINE
8
0
66
1
40
0.000000
41
0.000000
0
VERTEX
8
0
10
1.163740
20
-1.676654
0
VERTEX
8
0
10
1.163740
20
-1.246654
0
SEQEND
8
0
0
POLYLINE
8
0
66
1
40
0.000000
41
0.000000
0
VERTEX
8
0
10
1.167677
20
-1.676654
0
VERTEX
8
0
10
1.167677
20
-1.246654
0
SEQEND
8
0
0
POLYLINE
8
0
66
1
40
0.000000
41
0.000000
0
VERTEX
8
0
10
1.171614
20
-1.676654
0
VERTEX
8
0
10
1.171614
20
-1.246654
0
SEQEND
8
0
0
POLYLINE
8
0
66
1
40
0.000000
41
0.000000
0
VERTEX
8
0
10
1.175551
20
-1.676654
0
VERTEX
8
0
10
1.175551
20
-1.246654
0
SEQEND
8
0
0
POLYLINE
8
0
66
1
40
0.000000
41
0.000000
0
VERTEX
8
0
10
1.179488
20
-1.676654
0
VERTEX
8
0
10
1.179488
20
-1.246654
0
SEQEND
8
0
0
POLYLINE
8
0
66
1
40
0.000000
41
0.000000
0
VERTEX
8
0
10
1.183425
20
-1.676654
0
VERTEX
8
0
10
1.183425
20
-1.246654
0
SEQEND
8
0
0
POLYLINE
8
0
66
1
40
0.000000
41
0.000000
0
VERTEX
8
0
10
1.187362
20
-1.676654
0
VERTEX
8
0
10
1.187362
20
-1.246654
0
SEQEND
8
0
0
POLYLINE
8
0
66
1
40
0.000000
41
0.000000
0
VERTEX
8
0
10
1.191299
20
-1.676654
0
VERTEX
8
0
10
1.191299
20
-1.246654
0
SEQEND
8
0
0
POLYLINE
8
0
66
1
40
0.000000
41
0.000000
0
VERTEX
8
0
10
1.195236
20
-1.676654
0
VERTEX
8
0
10
1.195236
20
-1.246654
0
SEQEND
8
0
0
POLYLINE
8
0
66
1
40
0.000000
41
0.000000
0
VERTEX
8
0
10
1.199173
20
-1.676654
0
VERTEX
8
0
10
1.199173
20
-1.246654
0
SEQEND
8
0
0
POLYLINE
8
0
66
1
40
0.000000
41
0.000000
0
VERTEX
8
0
10
1.203110
20
-1.676654
0
VERTEX
8
0
10
1.203110
20
-1.246654
0
SEQEND
8
0
0
POLYLINE
8
0
66
1
40
0.000000
41
0.000000
0
VERTEX
8
0
10
1.207047
20
-1.676654
0
VERTEX
8
0
10
1.207047
20
-1.246654
0
SEQEND
8
0
0
POLYLINE
8
0
66
1
40
0.000000
41
0.000000
0
VERTEX
8
0
10
1.210984
20
-1.676654
0
VERTEX
8
0
10
1.210984
20
-1.246654
0
SEQEND
8
0
0
POLYLINE
8
0
66
1
40
0.000000
41
0.000000
0
VERTEX
8
0
10
1.214921
20
-1.676654
0
VERTEX
8
0
10
1.214921
20
-1.246654
0
SEQEND
8
0
0
POLYLINE
8
0
66
1
40
0.000000
41
0.000000
0
VERTEX
8
0
10
1.218858
20
-1.676654
0
VERTEX
8
0
10
1.218858
20
-1.246654
0
SEQEND
8
0
0
POLYLINE
8
0
66
1
40
0.000000
41
0.000000
0
VERTEX
8
0
10
1.222795
20
-1.676654
0
VERTEX
8
0
10
1.222795
20
-1.246654
0
SEQEND
8
0
0
POLYLINE
8
0
66
1
40
0.000000
41
0.000000
0
VERTEX
8
0
10
1.226732
20
-1.676654
0
VERTEX
8
0
10
1.226732
20
-1.246654
0
SEQEND
8
0
0
POLYLINE
8
0
66
1
40
0.000000
41
0.000000
0
VERTEX
8
0
10
1.230669
20
-1.676654
0
VERTEX
8
0
10
1.230669
20
-1.246654
0
SEQEND
8
0
0
POLYLINE
8
0
66
1
40
0.000000
41
0.000000
0
VERTEX
8
0
10
1.234606
20
-1.676654
0
VERTEX
8
0
10
1.234606
20
-1.246654
0
SEQEND
8
0
0
POLYLINE
8
0
66
1
40
0.000000
41
0.000000
0
VERTEX
8
0
10
1.238543
20
-1.676654
0
VERTEX
8
0
10
1.238543
20
-1.246654
0
SEQEND
8
0
0
POLYLINE
8
0
66
1
40
0.000000
41
0.000000
0
VERTEX
8
0
10
1.242480
20
-1.676654
0
VERTEX
8
0
10
1.242480
20
-1.246654
0
SEQEND
8
0
0
POLYLINE
8
0
66
1
40
0.000000
41
0.000000
0
VERTEX
8
0
10
1.246417
20
-1.676654
0
VERTEX
8
0
10
1.246417
20
-1.246654
0
SEQEND
8
0
0
POLYLINE
8
0
66
1
40
0.000000
41
0.000000
0
VERTEX
8
0
10
1.250354
20
-1.676654
0
VERTEX
8
0
10
1.250354
20
-1.246654
0
SEQEND
8
0
0
POLYLINE
8
0
66
1
40
0.000000
41
0.000000
0
VERTEX
8
0
10
1.254291
20
-1.676654
0
VERTEX
8
0
10
1.254291
20
-1.246654
0
SEQEND
8
0
0
POLYLINE
8
0
66
1
40
0.000000
41
0.000000
0
VERTEX
8
0
10
1.258228
20
-1.676654
0
VERTEX
8
0
10
1.258228
20
-1.246654
0
SEQEND
8
0
0
POLYLINE
8
0
66
1
40
0.000000
41
0.000000
0
VERTEX
8
0
10
1.262165
20
-1.676654
0
VERTEX
8
0
10
1.262165
20
-1.246654
0
SEQEND
8
0
0
POLYLINE
8
0
66
1
40
0.000000
41
0.000000
0
VERTEX
8
0
10
1.266102
20
-1.676654
0
VERTEX
8
0
10
1.266102
20
-1.246654
0
SEQEND
8
0
0
POLYLINE
8
0
66
1
40
0.000000
41
0.000000
0
VERTEX
8
0
10
1.270039
20
-1.676654
0
VERTEX
8
0
10
1.270039
20
-1.246654
0
SEQEND
8
0
0
POLYLINE
8
0
66
1
40
0.000000
41
0.000000
0
VERTEX
8
0
10
1.273976
20
-1.676654
0
VERTEX
8
0
10
1.273976
20
-1.246654
0
SEQEND
8
0
0
POLYLINE
8
0
66
1
40
0.000000
41
0.000000
0
VERTEX
8
0
10
1.277913
20
-1.676654
0
VERTEX
8
0
10
1.277913
20
-1.246654
0
SEQEND
8
0
0
POLYLINE
8
0
66
1
40
0.000000
41
0.000000
0
VERTEX
8
0
10
1.281850
20
-1.676654
0
VERTEX
8
0
10
1.281850
20
-1.246654
0
SEQEND
8
0
0
POLYLINE
8
0
66
1
40
0.000000
41
0.000000
0
VERTEX
8
0
10
1.285787
20
-1.676654
0
VERTEX
8
0
10
1.285787
20
-1.246654
0
SEQEND
8
0
0
POLYLINE
8
0
66
1
40
0.000000
41
0.000000
0
VERTEX
8
0
10
1.289724
20
-1.676654
0
VERTEX
8
0
10
1.289724
20
-1.246654
0
SEQEND
8
0
0
POLYLINE
8
0
66
1
40
0.000000
41
0.000000
0
VERTEX
8
0
10
1.293661
20
-1.676654
0
VERTEX
8
0
10
1.293661
20
-1.246654
0
SEQEND
8
0
0
POLYLINE
8
0
66
1
40
0.000000
41
0.000000
0
VERTEX
8
0
10
1.297598
20
-1.676654
0
VERTEX
8
0
10
1.297598
20
-1.246654
0
SEQEND
8
0
0
POLYLINE
8
0
66
1
40
0.000000
41
0.000000
0
VERTEX
8
0
10
1.301535
20
-1.676654
0
VERTEX
8
0
10
1.301535
20
-1.246654
0
SEQEND
8
0
0
POLYLINE
8
0
66
1
40
0.000000
41
0.000000
0
VERTEX
8
0
10
1.305472
20
-1.676654
0
VERTEX
8
0
10
1.305472
20
-1.246654
0
SEQEND
8
0
0
POLYLINE
8
0
66
1
40
0.000000
41
0.000000
0
VERTEX
8
0
10
1.309409
20
-1.676654
0
VERTEX
8
0
10
1.309409
20
-1.246654
0
SEQEND
8
0
0
POLYLINE
8
0
66
1
40
0.000000
41
0.000000
0
VERTEX
8
0
10
1.313346
20
-1.676654
0
VERTEX
8
0
10
1.313346
20
-1.246654
0
SEQEND
8
0
0
POLYLINE
8
0
66
1
40
0.000000
41
0.000000
0
VERTEX
8
0
10
1.317283
20
-1.676654
0
VERTEX
8
0
10
1.317283
20
-1.246654
0
SEQEND
8
0
0
POLYLINE
8
0
66
1
40
0.000000
41
0.000000
0
VERTEX
8
0
10
1.321220
20
-1.676654
0
VERTEX
8
0
10
1.321220
20
-1.246654
0
SEQEND
8
0
0
POLYLINE
8
0
66
1
40
0.000000
41
0.000000
0
VERTEX
8
0
10
1.325157
20
-1.676654
0
VERTEX
8
0
10
1.325157
20
-1.246654
0
SEQEND
8
0
0
POLYLINE
8
0
66
1
40
0.000000
41
0.000000
0
VERTEX
8
0
10
1.329094
20
-1.676654
0
VERTEX
8
0
10
1.329094
20
-1.246654
0
SEQEND
8
0
0
POLYLINE
8
0
66
1
40
0.000000
41
0.000000
0
VERTEX
8
0
10
1.333031
20
-1.676654
0
VERTEX
8
0
10
1.333031
20
-1.246654
0
SEQEND
8
0
0
POLYLINE
8
0
66
1
40
0.000000
41
0.000000
0
VERTEX
8
0
10
1.336969
20
-1.676654
0
VERTEX
8
0
10
1.336969
20
-1.246654
0
SEQEND
8
0
0
POLYLINE
8
0
66
1
40
0.000000
41
0.000000
0
VERTEX
8
0
10
1.340906
20
-1.676654
0
VERTEX
8
0
10
1.340906
20
-1.246654
0
SEQEND
8
0
0
POLYLINE
8
0
66
1
40
0.000000
41
0.000000
0
VERTEX
8
0
10
1.344843
20
-1.676654
0
VERTEX
8
0
10
1.344843
20
-1.246654
0
SEQEND
8
0
0
POLYLINE
8
0
66
1
40
0.000000
41
0.000000
0
VERTEX
8
0
10
1.348780
20
-1.676654
0
VERTEX
8
0
10
1.348780
20
-1.246654
0
SEQEND
8
0
0
POLYLINE
8
0
66
1
40
0.000000
41
0.000000
0
VERTEX
8
0
10
1.352717
20
-1.676654
0
VERTEX
8
0
10
1.352717
20
-1.246654
0
SEQEND
8
0
0
POLYLINE
8
0
66
1
40
0.000000
41
0.000000
0
VERTEX
8
0
10
1.356654
20
-1.676654
0
VERTEX
8
0
10
1.356654
20
-1.246654
0
SEQEND
8
0
0
POLYLINE
8
0
66
1
40
0.000000
41
0.000000
0
VERTEX
8
0
10
1.360591
20
-1.676654
0
VERTEX
8
0
10
1.360591
20
-1.246654
0
SEQEND
8
0
0
POLYLINE
8
0
66
1
40
0.000000
41
0.000000
0
VERTEX
8
0
10
1.364528
20
-1.676654
0
VERTEX
8
0
10
1.364528
20
-1.246654
0
SEQEND
8
0
0
POLYLINE
8
0
66
1
40
0.000000
41
0.000000
0
VERTEX
8
0
10
1.368465
20
-1.676654
0
VERTEX
8
0
10
1.368465
20
-1.246654
0
SEQEND
8
0
0
POLYLINE
8
0
66
1
40
0.000000
41
0.000000
0
VERTEX
8
0
10
1.372402
20
-1.676654
0
VERTEX
8
0
10
1.372402
20
-1.246654
0
SEQEND
8
0
0
POLYLINE
8
0
66
1
40
0.000000
41
0.000000
0
VERTEX
8
0
10
1.376339
20
-1.676654
0
VERTEX
8
0
10
1.376339
20
-1.246654
0
SEQEND
8
0
0
POLYLINE
8
0
66
1
40
0.000000
41
0.000000
0
VERTEX
8
0
10
1.380276
20
-1.676654
0
VERTEX
8
0
10
1.380276
20
-1.246654
0
SEQEND
8
0
0
POLYLINE
8
0
66
1
40
0.000000
41
0.000000
0
VERTEX
8
0
10
1.384213
20
-1.676654
0
VERTEX
8
0
10
1.384213
20
-1.246654
0
SEQEND
8
0
0
POLYLINE
8
0
66
1
40
0.000000
41
0.000000
0
VERTEX
8
0
10
1.388150
20
-1.676654
0
VERTEX
8
0
10
1.388150
20
-1.246654
0
SEQEND
8
0
0
POLYLINE
8
0
66
1
40
0.000000
41
0.000000
0
VERTEX
8
0
10
1.392087
20
-1.676654
0
VERTEX
8
0
10
1.392087
20
-1.246654
0
SEQEND
8
0
0
POLYLINE
8
0
66
1
40
0.000000
41
0.000000
0
VERTEX
8
0
10
1.396024
20
-1.676654
0
VERTEX
8
0
10
1.396024
20
-1.246654
0
SEQEND
8
0
0
POLYLINE
8
0
66
1
40
0.000000
41
0.000000
0
VERTEX
8
0
10
1.399961
20
-1.676654
0
VERTEX
8
0
10
1.399961
20
-1.246654
0
SEQEND
8
0
0
POLYLINE
8
0
66
1
40
0.000000
41
0.000000
0
VERTEX
8
0
10
1.403898
20
-1.676654
0
VERTEX
8
0
10
1.403898
20
-1.246654
0
SEQEND
8
0
0
POLYLINE
8
0
66
1
40
0.000000
41
0.000000
0
VERTEX
8
0
10
1.407835
20
-1.676654
0
VERTEX
8
0
10
1.407835
20
-1.246654
0
SEQEND
8
0
0
POLYLINE
8
0
66
1
40
0.000000
41
0.000000
0
VERTEX
8
0
10
1.411772
20
-1.676654
0
VERTEX
8
0
10
1.411772
20
-1.246654
0
SEQEND
8
0
0
POLYLINE
8
0
66
1
40
0.000000
41
0.000000
0
VERTEX
8
0
10
1.415709
20
-1.676654
0
VERTEX
8
0
10
1.415709
20
-1.246654
0
SEQEND
8
0
0
POLYLINE
8
0
66
1
40
0.000000
41
0.000000
0
VERTEX
8
0
10
1.419646
20
-1.676654
0
VERTEX
8
0
10
1.419646
20
-1.246654
0
SEQEND
8
0
0
POLYLINE
8
0
66
1
40
0.000000
41
0.000000
0
VERTEX
8
0
10
1.423583
20
-1.676654
0
VERTEX
8
0
10
1.423583
20
-1.246654
0
SEQEND
8
0
0
POLYLINE
8
0
66
1
40
0.000000
41
0.000000
0
VERTEX
8
0
10
1.427520
20
-1.676654
0
VERTEX
8
0
10
1.427520
20
-1.246654
0
SEQEND
8
0
0
POLYLINE
8
0
66
1
40
0.000000
41
0.000000
0
VERTEX
8
0
10
1.431457
20
-1.676654
0
VERTEX
8
0
10
1.431457
20
-1.246654
0
SEQEND
8
0
0
POLYLINE
8
0
66
1
40
0.000000
41
0.000000
0
VERTEX
8
0
10
1.435394
20
-1.676654
0
VERTEX
8
0
10
1.435394
20
-1.246654
0
SEQEND
8
0
0
POLYLINE
8
0
66
1
40
0.000000
41
0.000000
0
VERTEX
8
0
10
1.439331
20
-1.676654
0
VERTEX
8
0
10
1.439331
20
-1.246654
0
SEQEND
8
0
0
POLYLINE
8
0
66
1
40
0.000000
41
0.000000
0
VERTEX
8
0
10
1.443268
20
-1.676654
0
VERTEX
8
0
10
1.443268
20
-1.246654
0
SEQEND
8
0
0
POLYLINE
8
0
66
1
40
0.000000
41
0.000000
0
VERTEX
8
0
10
1.447205
20
-1.676654
0
VERTEX
8
0
10
1.447205
20
-1.246654
0
SEQEND
8
0
0
POLYLINE
8
0
66
1
40
0.000000
41
0.000000
0
VERTEX
8
0
10
1.451142
20
-1.676654
0
VERTEX
8
0
10
1.451142
20
-1.246654
0
SEQEND
8
0
0
POLYLINE
8
0
66
1
40
0.000000
41
0.000000
0
VERTEX
8
0
10
1.455079
20
-1.676654
0
VERTEX
8
0
10
1.455079
20
-1.246654
0
SEQEND
8
0
0
POLYLINE
8
0
66
1
40
0.000000
41
0.000000
0
VERTEX
8
0
10
1.459016
20
-1.676654
0
VERTEX
8
0
10
1.459016
20
-1.246654
0
SEQEND
8
0
0
POLYLINE
8
0
66
1
40
0.000000
41
0.000000
0
VERTEX
8
0
10
1.462953
20
-1.676654
0
VERTEX
8
0
10
1.462953
20
-1.246654
0
SEQEND
8
0
0
POLYLINE
8
0
66
1
40
0.000000
41
0.000000
0
VERTEX
8
0
10
1.466890
20
-1.676654
0
VERTEX
8
0
10
1.466890
20
-1.246654
0
SEQEND
8
0
0
POLYLINE
8
0
66
1
40
0.000000
41
0.000000
0
VERTEX
8
0
10
1.470827
20
-1.676654
0
VERTEX
8
0
10
1.470827
20
-1.246654
0
SEQEND
8
0
0
POLYLINE
8
0
66
1
40
0.000000
41
0.000000
0
VERTEX
8
0
10
1.474764
20
-1.676654
0
VERTEX
8
0
10
1.474764
20
-1.246654
0
SEQEND
8
0
0
POLYLINE
8
0
66
1
40
0.000000
41
0.000000
0
VERTEX
8
0
10
1.478701
20
-1.676654
0
VERTEX
8
0
10
1.478701
20
-1.246654
0
SEQEND
8
0
0
POLYLINE
8
0
66
1
40
0.000000
41
0.000000
0
VERTEX
8
0
10
1.482638
20
-1.676654
0
VERTEX
8
0
10
1.482638
20
-1.246654
0
SEQEND
8
0
0
POLYLINE
8
0
66
1
40
0.000000
41
0.000000
0
VERTEX
8
0
10
1.486575
20
-1.676654
0
VERTEX
8
0
10
1.486575
20
-1.246654
0
SEQEND
8
0
0
POLYLINE
8
0
66
1
40
0.000000
41
0.000000
0
VERTEX
8
0
10
1.490512
20
-1.676654
0
VERTEX
8
0
10
1.490512
20
-1.246654
0
SEQEND
8
0
0
POLYLINE
8
0
66
1
40
0.000000
41
0.000000
0
VERTEX
8
0
10
1.494449
20
-1.676654
0
VERTEX
8
0
10
1.494449
20
-1.246654
0
SEQEND
8
0
0
POLYLINE
8
0
66
1
40
0.000000
41
0.000000
0
VERTEX
8
0
10
1.498386
20
-1.676654
0
VERTEX
8
0
10
1.498386
20
-1.246654
0
SEQEND
8
0
0
POLYLINE
8
0
66
1
40
0.000000
41
0.000000
0
VERTEX
8
0
10
1.502323
20
-1.676654
0
VERTEX
8
0
10
1.502323
20
-1.246654
0
SEQEND
8
0
0
POLYLINE
8
0
66
1
40
0.000000
41
0.000000
0
VERTEX
8
0
10
1.506260
20
-1.676654
0
VERTEX
8
0
10
1.506260
20
-1.246654
0
SEQEND
8
0
0
POLYLINE
8
0
66
1
40
0.000000
41
0.000000
0
VERTEX
8
0
10
1.510197
20
-1.676654
0
VERTEX
8
0
10
1.510197
20
-1.246654
0
SEQEND
8
0
0
POLYLINE
8
0
66
1
40
0.000000
41
0.000000
0
VERTEX
8
0
10
1.514134
20
-1.676654
0
VERTEX
8
0
10
1.514134
20
-1.246654
0
SEQEND
8
0
0
POLYLINE
8
0
66
1
40
0.000000
41
0.000000
0
VERTEX
8
0
10
1.515197
20
-1.676654
0
VERTEX
8
0
10
1.515197
20
-1.246654
0
SEQEND
8
0
0
POLYLINE
8
0
66
1
40
0.008000
41
0.008000
0
VERTEX
8
0
10
0.750197
20
-1.676654
0
VERTEX
8
0
10
1.515197
20
-1.676654
0
VERTEX
8
0
10
1.515197
20
-1.246654
0
VERTEX
8
0
10
0.750197
20
-1.246654
0
VERTEX
8
0
10
0.750197
20
-1.676654
0
SEQEND
8
0
0
POLYLINE
8
0
66
1
40
0.000000
41
0.000000
0
VERTEX
8
0
10
-1.422874
20
-1.676654
0
VERTEX
8
0
10
-1.422874
20
-1.396654
0
SEQEND
8
0
0
POLYLINE
8
0
66
1
40
0.000000
41
0.000000
0
VERTEX
8
0
10
-1.418937
20
-1.676654
0
VERTEX
8
0
10
-1.418937
20
-1.396654
0
SEQEND
8
0
0
POLYLINE
8
0
66
1
40
0.000000
41
0.000000
0
VERTEX
8
0
10
-1.415000
20
-1.676654
0
VERTEX
8
0
10
-1.415000
20
-1.396654
0
SEQEND
8
0
0
POLYLINE
8
0
66
1
40
0.000000
41
0.000000
0
VERTEX
8
0
10
-1.411063
20
-1.676654
0
VERTEX
8
0
10
-1.411063
20
-1.396654
0
SEQEND
8
0
0
POLYLINE
8
0
66
1
40
0.000000
41
0.000000
0
VERTEX
8
0
10
-1.407126
20
-1.676654
0
VERTEX
8
0
10
-1.407126
20
-1.396654
0
SEQEND
8
0
0
POLYLINE
8
0
66
1
40
0.000000
41
0.000000
0
VERTEX
8
0
10
-1.403189
20
-1.676654
0
VERTEX
8
0
10
-1.403189
20
-1.396654
0
SEQEND
8
0
0
POLYLINE
8
0
66
1
40
0.000000
41
0.000000
0
VERTEX
8
0
10
-1.399252
20
-1.676654
0
VERTEX
8
0
10
-1.399252
20
-1.396654
0
SEQEND
8
0
0
POLYLINE
8
0
66
1
40
0.000000
41
0.000000
0
VERTEX
8
0
10
-1.395315
20
-1.676654
0
VERTEX
8
0
10
-1.395315
20
-1.396654
0
SEQEND
8
0
0
POLYLINE
8
0
66
1
40
0.000000
41
0.000000
0
VERTEX
8
0
10
-1.391378
20
-1.676654
0
VERTEX
8
0
10
-1.391378
20
-1.396654
0
SEQEND
8
0
0
POLYLINE
8
0
66
1
40
0.000000
41
0.000000
0
VERTEX
8
0
10
-1.387441
20
-1.676654
0
VERTEX
8
0
10
-1.387441
20
-1.396654
0
SEQEND
8
0
0
POLYLINE
8
0
66
1
40
0.000000
41
0.000000
0
VERTEX
8
0
10
-1.383504
20
-1.676654
0
VERTEX
8
0
10
-1.383504
20
-1.396654
0
SEQEND
8
0
0
POLYLINE
8
0
66
1
40
0.000000
41
0.000000
0
VERTEX
8
0
10
-1.379567
20
-1.676654
0
VERTEX
8
0
10
-1.379567
20
-1.396654
0
SEQEND
8
0
0
POLYLINE
8
0
66
1
40
0.000000
41
0.000000
0
VERTEX
8
0
10
-1.375630
20
-1.676654
0
VERTEX
8
0
10
-1.375630
20
-1.396654
0
SEQEND
8
0
0
POLYLINE
8
0
66
1
40
0.000000
41
0.000000
0
VERTEX
8
0
10
-1.371693
20
-1.676654
0
VERTEX
8
0
10
-1.371693
20
-1.396654
0
SEQEND
8
0
0
POLYLINE
8
0
66
1
40
0.000000
41
0.000000
0
VERTEX
8
0
10
-1.367756
20
-1.676654
0
VERTEX
8
0
10
-1.367756
20
-1.396654
0
SEQEND
8
0
0
POLYLINE
8
0
66
1
40
0.000000
41
0.000000
0
VERTEX
8
0
10
-1.363819
20
-1.676654
0
VERTEX
8
0
10
-1.363819
20
-1.396654
0
SEQEND
8
0
0
POLYLINE
8
0
66
1
40
0.000000
41
0.000000
0
VERTEX
8
0
10
-1.359882
20
-1.676654
0
VERTEX
8
0
10
-1.359882
20
-1.396654
0
SEQEND
8
0
0
POLYLINE
8
0
66
1
40
0.000000
41
0.000000
0
VERTEX
8
0
10
-1.355945
20
-1.676654
0
VERTEX
8
0
10
-1.355945
20
-1.396654
0
SEQEND
8
0
0
POLYLINE
8
0
66
1
40
0.000000
41
0.000000
0
VERTEX
8
0
10
-1.352008
20
-1.676654
0
VERTEX
8
0
10
-1.352008
20
-1.396654
0
SEQEND
8
0
0
POLYLINE
8
0
66
1
40
0.000000
41
0.000000
0
VERTEX
8
0
10
-1.348071
20
-1.676654
0
VERTEX
8
0
10
-1.348071
20
-1.396654
0
SEQEND
8
0
0
POLYLINE
8
0
66
1
40
0.000000
41
0.000000
0
VERTEX
8
0
10
-1.344134
20
-1.676654
0
VERTEX
8
0
10
-1.344134
20
-1.396654
0
SEQEND
8
0
0
POLYLINE
8
0
66
1
40
0.000000
41
0.000000
0
VERTEX
8
0
10
-1.340197
20
-1.676654
0
VERTEX
8
0
10
-1.340197
20
-1.396654
0
SEQEND
8
0
0
POLYLINE
8
0
66
1
40
0.000000
41
0.000000
0
VERTEX
8
0
10
-1.336260
20
-1.676654
0
VERTEX
8
0
10
-1.336260
20
-1.396654
0
SEQEND
8
0
0
POLYLINE
8
0
66
1
40
0.000000
41
0.000000
0
VERTEX
8
0
10
-1.332323
20
-1.676654
0
VERTEX
8
0
10
-1.332323
20
-1.396654
0
SEQEND
8
0
0
POLYLINE
8
0
66
1
40
0.000000
41
0.000000
0
VERTEX
8
0
10
-1.328386
20
-1.676654
0
VERTEX
8
0
10
-1.328386
20
-1.396654
0
SEQEND
8
0
0
POLYLINE
8
0
66
1
40
0.000000
41
0.000000
0
VERTEX
8
0
10
-1.324449
20
-1.676654
0
VERTEX
8
0
10
-1.324449
20
-1.396654
0
SEQEND
8
0
0
POLYLINE
8
0
66
1
40
0.000000
41
0.000000
0
VERTEX
8
0
10
-1.320512
20
-1.676654
0
VERTEX
8
0
10
-1.320512
20
-1.396654
0
SEQEND
8
0
0
POLYLINE
8
0
66
1
40
0.000000
41
0.000000
0
VERTEX
8
0
10
-1.316575
20
-1.676654
0
VERTEX
8
0
10
-1.316575
20
-1.396654
0
SEQEND
8
0
0
POLYLINE
8
0
66
1
40
0.000000
41
0.000000
0
VERTEX
8
0
10
-1.312638
20
-1.676654
0
VERTEX
8
0
10
-1.312638
20
-1.396654
0
SEQEND
8
0
0
POLYLINE
8
0
66
1
40
0.000000
41
0.000000
0
VERTEX
8
0
10
-1.308701
20
-1.676654
0
VERTEX
8
0
10
-1.308701
20
-1.396654
0
SEQEND
8
0
0
POLYLINE
8
0
66
1
40
0.000000
41
0.000000
0
VERTEX
8
0
10
-1.304764
20
-1.676654
0
VERTEX
8
0
10
-1.304764
20
-1.396654
0
SEQEND
8
0
0
POLYLINE
8
0
66
1
40
0.000000
41
0.000000
0
VERTEX
8
0
10
-1.300827
20
-1.676654
0
VERTEX
8
0
10
-1.300827
20
-1.396654
0
SEQEND
8
0
0
POLYLINE
8
0
66
1
40
0.000000
41
0.000000
0
VERTEX
8
0
10
-1.296890
20
-1.676654
0
VERTEX
8
0
10
-1.296890
20
-1.396654
0
SEQEND
8
0
0
POLYLINE
8
0
66
1
40
0.000000
41
0.000000
0
VERTEX
8
0
10
-1.292953
20
-1.676654
0
VERTEX
8
0
10
-1.292953
20
-1.396654
0
SEQEND
8
0
0
POLYLINE
8
0
66
1
40
0.000000
41
0.000000
0
VERTEX
8
0
10
-1.289016
20
-1.676654
0
VERTEX
8
0
10
-1.289016
20
-1.396654
0
SEQEND
8
0
0
POLYLINE
8
0
66
1
40
0.000000
41
0.000000
0
VERTEX
8
0
10
-1.285079
20
-1.676654
0
VERTEX
8
0
10
-1.285079
20
-1.396654
0
SEQEND
8
0
0
POLYLINE
8
0
66
1
40
0.000000
41
0.000000
0
VERTEX
8
0
10
-1.281142
20
-1.676654
0
VERTEX
8
0
10
-1.281142
20
-1.396654
0
SEQEND
8
0
0
POLYLINE
8
0
66
1
40
0.000000
41
0.000000
0
VERTEX
8
0
10
-1.277205
20
-1.676654
0
VERTEX
8
0
10
-1.277205
20
-1.396654
0
SEQEND
8
0
0
POLYLINE
8
0
66
1
40
0.000000
41
0.000000
0
VERTEX
8
0
10
-1.273268
20
-1.676654
0
VERTEX
8
0
10
-1.273268
20
-1.396654
0
SEQEND
8
0
0
POLYLINE
8
0
66
1
40
0.000000
41
0.000000
0
VERTEX
8
0
10
-1.269331
20
-1.676654
0
VERTEX
8
0
10
-1.269331
20
-1.396654
0
SEQEND
8
0
0
POLYLINE
8
0
66
1
40
0.000000
41
0.000000
0
VERTEX
8
0
10
-1.265394
20
-1.676654
0
VERTEX
8
0
10
-1.265394
20
-1.396654
0
SEQEND
8
0
0
POLYLINE
8
0
66
1
40
0.000000
41
0.000000
0
VERTEX
8
0
10
-1.261457
20
-1.676654
0
VERTEX
8
0
10
-1.261457
20
-1.396654
0
SEQEND
8
0
0
POLYLINE
8
0
66
1
40
0.000000
41
0.000000
0
VERTEX
8
0
10
-1.257520
20
-1.676654
0
VERTEX
8
0
10
-1.257520
20
-1.396654
0
SEQEND
8
0
0
POLYLINE
8
0
66
1
40
0.000000
41
0.000000
0
VERTEX
8
0
10
-1.253583
20
-1.676654
0
VERTEX
8
0
10
-1.253583
20
-1.396654
0
SEQEND
8
0
0
POLYLINE
8
0
66
1
40
0.000000
41
0.000000
0
VERTEX
8
0
10
-1.249646
20
-1.676654
0
VERTEX
8
0
10
-1.249646
20
-1.396654
0
SEQEND
8
0
0
POLYLINE
8
0
66
1
40
0.000000
41
0.000000
0
VERTEX
8
0
10
-1.245709
20
-1.676654
0
VERTEX
8
0
10
-1.245709
20
-1.396654
0
SEQEND
8
0
0
POLYLINE
8
0
66
1
40
0.000000
41
0.000000
0
VERTEX
8
0
10
-1.241772
20
-1.676654
0
VERTEX
8
0
10
-1.241772
20
-1.396654
0
SEQEND
8
0
0
POLYLINE
8
0
66
1
40
0.000000
41
0.000000
0
VERTEX
8
0
10
-1.237835
20
-1.676654
0
VERTEX
8
0
10
-1.237835
20
-1.396654
0
SEQEND
8
0
0
POLYLINE
8
0
66
1
40
0.000000
41
0.000000
0
VERTEX
8
0
10
-1.233898
20
-1.676654
0
VERTEX
8
0
10
-1.233898
20
-1.396654
0
SEQEND
8
0
0
POLYLINE
8
0
66
1
40
0.000000
41
0.000000
0
VERTEX
8
0
10
-1.229961
20
-1.676654
0
VERTEX
8
0
10
-1.229961
20
-1.396654
0
SEQEND
8
0
0
POLYLINE
8
0
66
1
40
0.000000
41
0.000000
0
VERTEX
8
0
10
-1.226024
20
-1.676654
0
VERTEX
8
0
10
-1.226024
20
-1.396654
0
SEQEND
8
0
0
POLYLINE
8
0
66
1
40
0.000000
41
0.000000
0
VERTEX
8
0
10
-1.222087
20
-1.676654
0
VERTEX
8
0
10
-1.222087
20
-1.396654
0
SEQEND
8
0
0
POLYLINE
8
0
66
1
40
0.000000
41
0.000000
0
VERTEX
8
0
10
-1.218150
20
-1.676654
0
VERTEX
8
0
10
-1.218150
20
-1.396654
0
SEQEND
8
0
0
POLYLINE
8
0
66
1
40
0.000000
41
0.000000
0
VERTEX
8
0
10
-1.214213
20
-1.676654
0
VERTEX
8
0
10
-1.214213
20
-1.396654
0
SEQEND
8
0
0
POLYLINE
8
0
66
1
40
0.000000
41
0.000000
0
VERTEX
8
0
10
-1.210276
20
-1.676654
0
VERTEX
8
0
10
-1.210276
20
-1.396654
0
SEQEND
8
0
0
POLYLINE
8
0
66
1
40
0.000000
41
0.000000
0
VERTEX
8
0
10
-1.206339
20
-1.676654
0
VERTEX
8
0
10
-1.206339
20
-1.396654
0
SEQEND
8
0
0
POLYLINE
8
0
66
1
40
0.000000
41
0.000000
0
VERTEX
8
0
10
-1.202402
20
-1.676654
0
VERTEX
8
0
10
-1.202402
20
-1.396654
0
SEQEND
8
0
0
POLYLINE
8
0
66
1
40
0.000000
41
0.000000
0
VERTEX
8
0
10
-1.198465
20
-1.676654
0
VERTEX
8
0
10
-1.198465
20
-1.396654
0
SEQEND
8
0
0
POLYLINE
8
0
66
1
40
0.000000
41
0.000000
0
VERTEX
8
0
10
-1.194528
20
-1.676654
0
VERTEX
8
0
10
-1.194528
20
-1.396654
0
SEQEND
8
0
0
POLYLINE
8
0
66
1
40
0.000000
41
0.000000
0
VERTEX
8
0
10
-1.190591
20
-1.676654
0
VERTEX
8
0
10
-1.190591
20
-1.396654
0
SEQEND
8
0
0
POLYLINE
8
0
66
1
40
0.000000
41
0.000000
0
VERTEX
8
0
10
-1.186654
20
-1.676654
0
VERTEX
8
0
10
-1.186654
20
-1.396654
0
SEQEND
8
0
0
POLYLINE
8
0
66
1
40
0.000000
41
0.000000
0
VERTEX
8
0
10
-1.182717
20
-1.676654
0
VERTEX
8
0
10
-1.182717
20
-1.396654
0
SEQEND
8
0
0
POLYLINE
8
0
66
1
40
0.000000
41
0.000000
0
VERTEX
8
0
10
-1.178780
20
-1.676654
0
VERTEX
8
0
10
-1.178780
20
-1.396654
0
SEQEND
8
0
0
POLYLINE
8
0
66
1
40
0.000000
41
0.000000
0
VERTEX
8
0
10
-1.174843
20
-1.676654
0
VERTEX
8
0
10
-1.174843
20
-1.396654
0
SEQEND
8
0
0
POLYLINE
8
0
66
1
40
0.000000
41
0.000000
0
VERTEX
8
0
10
-1.170906
20
-1.676654
0
VERTEX
8
0
10
-1.170906
20
-1.396654
0
SEQEND
8
0
0
POLYLINE
8
0
66
1
40
0.000000
41
0.000000
0
VERTEX
8
0
10
-1.166969
20
-1.676654
0
VERTEX
8
0
10
-1.166969
20
-1.396654
0
SEQEND
8
0
0
POLYLINE
8
0
66
1
40
0.000000
41
0.000000
0
VERTEX
8
0
10
-1.163031
20
-1.676654
0
VERTEX
8
0
10
-1.163031
20
-1.396654
0
SEQEND
8
0
0
POLYLINE
8
0
66
1
40
0.000000
41
0.000000
0
VERTEX
8
0
10
-1.159094
20
-1.676654
0
VERTEX
8
0
10
-1.159094
20
-1.396654
0
SEQEND
8
0
0
POLYLINE
8
0
66
1
40
0.000000
41
0.000000
0
VERTEX
8
0
10
-1.155157
20
-1.676654
0
VERTEX
8
0
10
-1.155157
20
-1.396654
0
SEQEND
8
0
0
POLYLINE
8
0
66
1
40
0.000000
41
0.000000
0
VERTEX
8
0
10
-1.151220
20
-1.676654
0
VERTEX
8
0
10
-1.151220
20
-1.396654
0
SEQEND
8
0
0
POLYLINE
8
0
66
1
40
0.000000
41
0.000000
0
VERTEX
8
0
10
-1.147283
20
-1.676654
0
VERTEX
8
0
10
-1.147283
20
-1.396654
0
SEQEND
8
0
0
POLYLINE
8
0
66
1
40
0.000000
41
0.000000
0
VERTEX
8
0
10
-1.143346
20
-1.676654
0
VERTEX
8
0
10
-1.143346
20
-1.396654
0
SEQEND
8
0
0
POLYLINE
8
0
66
1
40
0.000000
41
0.000000
0
VERTEX
8
0
10
-1.139409
20
-1.676654
0
VERTEX
8
0
10
-1.139409
20
-1.396654
0
SEQEND
8
0
0
POLYLINE
8
0
66
1
40
0.000000
41
0.000000
0
VERTEX
8
0
10
-1.135472
20
-1.676654
0
VERTEX
8
0
10
-1.135472
20
-1.396654
0
SEQEND
8
0
0
POLYLINE
8
0
66
1
40
0.000000
41
0.000000
0
VERTEX
8
0
10
-1.131535
20
-1.676654
0
VERTEX
8
0
10
-1.131535
20
-1.396654
0
SEQEND
8
0
0
POLYLINE
8
0
66
1
40
0.000000
41
0.000000
0
VERTEX
8
0
10
-1.127598
20
-1.676654
0
VERTEX
8
0
10
-1.127598
20
-1.396654
0
SEQEND
8
0
0
POLYLINE
8
0
66
1
40
0.000000
41
0.000000
0
VERTEX
8
0
10
-1.123661
20
-1.676654
0
VERTEX
8
0
10
-1.123661
20
-1.396654
0
SEQEND
8
0
0
POLYLINE
8
0
66
1
40
0.000000
41
0.000000
0
VERTEX
8
0
10
-1.119724
20
-1.676654
0
VERTEX
8
0
10
-1.119724
20
-1.396654
0
SEQEND
8
0
0
POLYLINE
8
0
66
1
40
0.000000
41
0.000000
0
VERTEX
8
0
10
-1.115787
20
-1.676654
0
VERTEX
8
0
10
-1.115787
20
-1.396654
0
SEQEND
8
0
0
POLYLINE
8
0
66
1
40
0.000000
41
0.000000
0
VERTEX
8
0
10
-1.111850
20
-1.676654
0
VERTEX
8
0
10
-1.111850
20
-1.396654
0
SEQEND
8
0
0
POLYLINE
8
0
66
1
40
0.000000
41
0.000000
0
VERTEX
8
0
10
-1.107913
20
-1.676654
0
VERTEX
8
0
10
-1.107913
20
-1.396654
0
SEQEND
8
0
0
POLYLINE
8
0
66
1
40
0.000000
41
0.000000
0
VERTEX
8
0
10
-1.103976
20
-1.676654
0
VERTEX
8
0
10
-1.103976
20
-1.396654
0
SEQEND
8
0
0
POLYLINE
8
0
66
1
40
0.000000
41
0.000000
0
VERTEX
8
0
10
-1.100039
20
-1.676654
0
VERTEX
8
0
10
-1.100039
20
-1.396654
0
SEQEND
8
0
0
POLYLINE
8
0
66
1
40
0.000000
41
0.000000
0
VERTEX
8
0
10
-1.096102
20
-1.676654
0
VERTEX
8
0
10
-1.096102
20
-1.396654
0
SEQEND
8
0
0
POLYLINE
8
0
66
1
40
0.000000
41
0.000000
0
VERTEX
8
0
10
-1.092165
20
-1.676654
0
VERTEX
8
0
10
-1.092165
20
-1.396654
0
SEQEND
8
0
0
POLYLINE
8
0
66
1
40
0.000000
41
0.000000
0
VERTEX
8
0
10
-1.088228
20
-1.676654
0
VERTEX
8
0
10
-1.088228
20
-1.396654
0
SEQEND
8
0
0
POLYLINE
8
0
66
1
40
0.000000
41
0.000000
0
VERTEX
8
0
10
-1.084291
20
-1.676654
0
VERTEX
8
0
10
-1.084291
20
-1.396654
0
SEQEND
8
0
0
POLYLINE
8
0
66
1
40
0.000000
41
0.000000
0
VERTEX
8
0
10
-1.080354
20
-1.676654
0
VERTEX
8
0
10
-1.080354
20
-1.396654
0
SEQEND
8
0
0
POLYLINE
8
0
66
1
40
0.000000
41
0.000000
0
VERTEX
8
0
10
-1.076417
20
-1.676654
0
VERTEX
8
0
10
-1.076417
20
-1.396654
0
SEQEND
8
0
0
POLYLINE
8
0
66
1
40
0.000000
41
0.000000
0
VERTEX
8
0
10
-1.072480
20
-1.676654
0
VERTEX
8
0
10
-1.072480
20
-1.396654
0
SEQEND
8
0
0
POLYLINE
8
0
66
1
40
0.000000
41
0.000000
0
VERTEX
8
0
10
-1.068543
20
-1.676654
0
VERTEX
8
0
10
-1.068543
20
-1.396654
0
SEQEND
8
0
0
POLYLINE
8
0
66
1
40
0.000000
41
0.000000
0
VERTEX
8
0
10
-1.064606
20
-1.676654
0
VERTEX
8
0
10
-1.064606
20
-1.396654
0
SEQEND
8
0
0
POLYLINE
8
0
66
1
40
0.000000
41
0.000000
0
VERTEX
8
0
10
-1.060669
20
-1.676654
0
VERTEX
8
0
10
-1.060669
20
-1.396654
0
SEQEND
8
0
0
POLYLINE
8
0
66
1
40
0.000000
41
0.000000
0
VERTEX
8
0
10
-1.056732
20
-1.676654
0
VERTEX
8
0
10
-1.056732
20
-1.396654
0
SEQEND
8
0
0
POLYLINE
8
0
66
1
40
0.000000
41
0.000000
0
VERTEX
8
0
10
-1.052795
20
-1.676654
0
VERTEX
8
0
10
-1.052795
20
-1.396654
0
SEQEND
8
0
0
POLYLINE
8
0
66
1
40
0.000000
41
0.000000
0
VERTEX
8
0
10
-1.048858
20
-1.676654
0
VERTEX
8
0
10
-1.048858
20
-1.396654
0
SEQEND
8
0
0
POLYLINE
8
0
66
1
40
0.000000
41
0.000000
0
VERTEX
8
0
10
-1.044921
20
-1.676654
0
VERTEX
8
0
10
-1.044921
20
-1.396654
0
SEQEND
8
0
0
POLYLINE
8
0
66
1
40
0.000000
41
0.000000
0
VERTEX
8
0
10
-1.040984
20
-1.676654
0
VERTEX
8
0
10
-1.040984
20
-1.396654
0
SEQEND
8
0
0
POLYLINE
8
0
66
1
40
0.000000
41
0.000000
0
VERTEX
8
0
10
-1.037047
20
-1.676654
0
VERTEX
8
0
10
-1.037047
20
-1.396654
0
SEQEND
8
0
0
POLYLINE
8
0
66
1
40
0.000000
41
0.000000
0
VERTEX
8
0
10
-1.033110
20
-1.676654
0
VERTEX
8
0
10
-1.033110
20
-1.396654
0
SEQEND
8
0
0
POLYLINE
8
0
66
1
40
0.000000
41
0.000000
0
VERTEX
8
0
10
-1.029173
20
-1.676654
0
VERTEX
8
0
10
-1.029173
20
-1.396654
0
SEQEND
8
0
0
POLYLINE
8
0
66
1
40
0.000000
41
0.000000
0
VERTEX
8
0
10
-1.025236
20
-1.676654
0
VERTEX
8
0
10
-1.025236
20
-1.396654
0
SEQEND
8
0
0
POLYLINE
8
0
66
1
40
0.000000
41
0.000000
0
VERTEX
8
0
10
-1.021299
20
-1.676654
0
VERTEX
8
0
10
-1.021299
20
-1.396654
0
SEQEND
8
0
0
POLYLINE
8
0
66
1
40
0.000000
41
0.000000
0
VERTEX
8
0
10
-1.017362
20
-1.676654
0
VERTEX
8
0
10
-1.017362
20
-1.396654
0
SEQEND
8
0
0
POLYLINE
8
0
66
1
40
0.000000
41
0.000000
0
VERTEX
8
0
10
-1.013425
20
-1.676654
0
VERTEX
8
0
10
-1.013425
20
-1.396654
0
SEQEND
8
0
0
POLYLINE
8
0
66
1
40
0.000000
41
0.000000
0
VERTEX
8
0
10
-1.009488
20
-1.676654
0
VERTEX
8
0
10
-1.009488
20
-1.396654
0
SEQEND
8
0
0
POLYLINE
8
0
66
1
40
0.000000
41
0.000000
0
VERTEX
8
0
10
-1.005551
20
-1.676654
0
VERTEX
8
0
10
-1.005551
20
-1.396654
0
SEQEND
8
0
0
POLYLINE
8
0
66
1
40
0.000000
41
0.000000
0
VERTEX
8
0
10
-1.001614
20
-1.676654
0
VERTEX
8
0
10
-1.001614
20
-1.396654
0
SEQEND
8
0
0
POLYLINE
8
0
66
1
40
0.000000
41
0.000000
0
VERTEX
8
0
10
-0.997677
20
-1.676654
0
VERTEX
8
0
10
-0.997677
20
-1.396654
0
SEQEND
8
0
0
POLYLINE
8
0
66
1
40
0.000000
41
0.000000
0
VERTEX
8
0
10
-0.993740
20
-1.676654
0
VERTEX
8
0
10
-0.993740
20
-1.396654
0
SEQEND
8
0
0
POLYLINE
8
0
66
1
40
0.000000
41
0.000000
0
VERTEX
8
0
10
-0.989803
20
-1.676654
0
VERTEX
8
0
10
-0.989803
20
-1.396654
0
SEQEND
8
0
0
POLYLINE
8
0
66
1
40
0.000000
41
0.000000
0
VERTEX
8
0
10
-0.985866
20
-1.676654
0
VERTEX
8
0
10
-0.985866
20
-1.396654
0
SEQEND
8
0
0
POLYLINE
8
0
66
1
40
0.000000
41
0.000000
0
VERTEX
8
0
10
-0.981929
20
-1.676654
0
VERTEX
8
0
10
-0.981929
20
-1.396654
0
SEQEND
8
0
0
POLYLINE
8
0
66
1
40
0.000000
41
0.000000
0
VERTEX
8
0
10
-0.977992
20
-1.676654
0
VERTEX
8
0
10
-0.977992
20
-1.396654
0
SEQEND
8
0
0
POLYLINE
8
0
66
1
40
0.000000
41
0.000000
0
VERTEX
8
0
10
-0.974055
20
-1.676654
0
VERTEX
8
0
10
-0.974055
20
-1.396654
0
SEQEND
8
0
0
POLYLINE
8
0
66
1
40
0.000000
41
0.000000
0
VERTEX
8
0
10
-0.970118
20
-1.676654
0
VERTEX
8
0
10
-0.970118
20
-1.396654
0
SEQEND
8
0
0
POLYLINE
8
0
66
1
40
0.000000
41
0.000000
0
VERTEX
8
0
10
-0.966181
20
-1.676654
0
VERTEX
8
0
10
-0.966181
20
-1.396654
0
SEQEND
8
0
0
POLYLINE
8
0
66
1
40
0.000000
41
0.000000
0
VERTEX
8
0
10
-0.962244
20
-1.676654
0
VERTEX
8
0
10
-0.962244
20
-1.396654
0
SEQEND
8
0
0
POLYLINE
8
0
66
1
40
0.000000
41
0.000000
0
VERTEX
8
0
10
-0.958307
20
-1.676654
0
VERTEX
8
0
10
-0.958307
20
-1.396654
0
SEQEND
8
0
0
POLYLINE
8
0
66
1
40
0.000000
41
0.000000
0
VERTEX
8
0
10
-0.954370
20
-1.676654
0
VERTEX
8
0
10
-0.954370
20
-1.396654
0
SEQEND
8
0
0
POLYLINE
8
0
66
1
40
0.000000
41
0.000000
0
VERTEX
8
0
10
-0.950433
20
-1.676654
0
VERTEX
8
0
10
-0.950433
20
-1.396654
0
SEQEND
8
0
0
POLYLINE
8
0
66
1
40
0.000000
41
0.000000
0
VERTEX
8
0
10
-0.946496
20
-1.676654
0
VERTEX
8
0
10
-0.946496
20
-1.396654
0
SEQEND
8
0
0
POLYLINE
8
0
66
1
40
0.000000
41
0.000000
0
VERTEX
8
0
10
-0.942559
20
-1.676654
0
VERTEX
8
0
10
-0.942559
20
-1.396654
0
SEQEND
8
0
0
POLYLINE
8
0
66
1
40
0.000000
41
0.000000
0
VERTEX
8
0
10
-0.938622
20
-1.676654
0
VERTEX
8
0
10
-0.938622
20
-1.396654
0
SEQEND
8
0
0
POLYLINE
8
0
66
1
40
0.000000
41
0.000000
0
VERTEX
8
0
10
-0.934685
20
-1.676654
0
VERTEX
8
0
10
-0.934685
20
-1.396654
0
SEQEND
8
0
0
POLYLINE
8
0
66
1
40
0.000000
41
0.000000
0
VERTEX
8
0
10
-0.930748
20
-1.676654
0
VERTEX
8
0
10
-0.930748
20
-1.396654
0
SEQEND
8
0
0
POLYLINE
8
0
66
1
40
0.000000
41
0.000000
0
VERTEX
8
0
10
-0.926811
20
-1.676654
0
VERTEX
8
0
10
-0.926811
20
-1.396654
0
SEQEND
8
0
0
POLYLINE
8
0
66
1
40
0.000000
41
0.000000
0
VERTEX
8
0
10
-0.922874
20
-1.676654
0
VERTEX
8
0
10
-0.922874
20
-1.396654
0
SEQEND
8
0
0
POLYLINE
8
0
66
1
40
0.000000
41
0.000000
0
VERTEX
8
0
10
-0.918937
20
-1.676654
0
VERTEX
8
0
10
-0.918937
20
-1.396654
0
SEQEND
8
0
0
POLYLINE
8
0
66
1
40
0.000000
41
0.000000
0
VERTEX
8
0
10
-0.915000
20
-1.676654
0
VERTEX
8
0
10
-0.915000
20
-1.396654
0
SEQEND
8
0
0
POLYLINE
8
0
66
1
40
0.000000
41
0.000000
0
VERTEX
8
0
10
-0.911063
20
-1.676654
0
VERTEX
8
0
10
-0.911063
20
-1.396654
0
SEQEND
8
0
0
POLYLINE
8
0
66
1
40
0.000000
41
0.000000
0
VERTEX
8
0
10
-0.907126
20
-1.676654
0
VERTEX
8
0
10
-0.907126
20
-1.396654
0
SEQEND
8
0
0
POLYLINE
8
0
66
1
40
0.000000
41
0.000000
0
VERTEX
8
0
10
-0.903189
20
-1.676654
0
VERTEX
8
0
10
-0.903189
20
-1.396654
0
SEQEND
8
0
0
POLYLINE
8
0
66
1
40
0.000000
41
0.000000
0
VERTEX
8
0
10
-0.899252
20
-1.676654
0
VERTEX
8
0
10
-0.899252
20
-1.396654
0
SEQEND
8
0
0
POLYLINE
8
0
66
1
40
0.000000
41
0.000000
0
VERTEX
8
0
10
-0.895315
20
-1.676654
0
VERTEX
8
0
10
-0.895315
20
-1.396654
0
SEQEND
8
0
0
POLYLINE
8
0
66
1
40
0.000000
41
0.000000
0
VERTEX
8
0
10
-0.891378
20
-1.676654
0
VERTEX
8
0
10
-0.891378
20
-1.396654
0
SEQEND
8
0
0
POLYLINE
8
0
66
1
40
0.000000
41
0.000000
0
VERTEX
8
0
10
-0.887441
20
-1.676654
0
VERTEX
8
0
10
-0.887441
20
-1.396654
0
SEQEND
8
0
0
POLYLINE
8
0
66
1
40
0.000000
41
0.000000
0
VERTEX
8
0
10
-0.883504
20
-1.676654
0
VERTEX
8
0
10
-0.883504
20
-1.396654
0
SEQEND
8
0
0
POLYLINE
8
0
66
1
40
0.000000
41
0.000000
0
VERTEX
8
0
10
-0.879567
20
-1.676654
0
VERTEX
8
0
10
-0.879567
20
-1.396654
0
SEQEND
8
0
0
POLYLINE
8
0
66
1
40
0.000000
41
0.000000
0
VERTEX
8
0
10
-0.875630
20
-1.676654
0
VERTEX
8
0
10
-0.875630
20
-1.396654
0
SEQEND
8
0
0
POLYLINE
8
0
66
1
40
0.000000
41
0.000000
0
VERTEX
8
0
10
-0.871693
20
-1.676654
0
VERTEX
8
0
10
-0.871693
20
-1.396654
0
SEQEND
8
0
0
POLYLINE
8
0
66
1
40
0.000000
41
0.000000
0
VERTEX
8
0
10
-0.867756
20
-1.676654
0
VERTEX
8
0
10
-0.867756
20
-1.396654
0
SEQEND
8
0
0
POLYLINE
8
0
66
1
40
0.000000
41
0.000000
0
VERTEX
8
0
10
-0.863819
20
-1.676654
0
VERTEX
8
0
10
-0.863819
20
-1.396654
0
SEQEND
8
0
0
POLYLINE
8
0
66
1
40
0.000000
41
0.000000
0
VERTEX
8
0
10
-0.859882
20
-1.676654
0
VERTEX
8
0
10
-0.859882
20
-1.396654
0
SEQEND
8
0
0
POLYLINE
8
0
66
1
40
0.000000
41
0.000000
0
VERTEX
8
0
10
-0.855945
20
-1.676654
0
VERTEX
8
0
10
-0.855945
20
-1.396654
0
SEQEND
8
0
0
POLYLINE
8
0
66
1
40
0.000000
41
0.000000
0
VERTEX
8
0
10
-0.852008
20
-1.676654
0
VERTEX
8
0
10
-0.852008
20
-1.396654
0
SEQEND
8
0
0
POLYLINE
8
0
66
1
40
0.000000
41
0.000000
0
VERTEX
8
0
10
-0.848071
20
-1.676654
0
VERTEX
8
0
10
-0.848071
20
-1.396654
0
SEQEND
8
0
0
POLYLINE
8
0
66
1
40
0.000000
41
0.000000
0
VERTEX
8
0
10
-0.844134
20
-1.676654
0
VERTEX
8
0
10
-0.844134
20
-1.396654
0
SEQEND
8
0
0
POLYLINE
8
0
66
1
40
0.000000
41
0.000000
0
VERTEX
8
0
10
-0.840197
20
-1.676654
0
VERTEX
8
0
10
-0.840197
20
-1.396654
0
SEQEND
8
0
0
POLYLINE
8
0
66
1
40
0.000000
41
0.000000
0
VERTEX
8
0
10
-0.836260
20
-1.676654
0
VERTEX
8
0
10
-0.836260
20
-1.396654
0
SEQEND
8
0
0
POLYLINE
8
0
66
1
40
0.000000
41
0.000000
0
VERTEX
8
0
10
-0.832323
20
-1.676654
0
VERTEX
8
0
10
-0.832323
20
-1.396654
0
SEQEND
8
0
0
POLYLINE
8
0
66
1
40
0.000000
41
0.000000
0
VERTEX
8
0
10
-0.828386
20
-1.676654
0
VERTEX
8
0
10
-0.828386
20
-1.396654
0
SEQEND
8
0
0
POLYLINE
8
0
66
1
40
0.000000
41
0.000000
0
VERTEX
8
0
10
-0.824449
20
-1.676654
0
VERTEX
8
0
10
-0.824449
20
-1.396654
0
SEQEND
8
0
0
POLYLINE
8
0
66
1
40
0.000000
41
0.000000
0
VERTEX
8
0
10
-0.820512
20
-1.676654
0
VERTEX
8
0
10
-0.820512
20
-1.396654
0
SEQEND
8
0
0
POLYLINE
8
0
66
1
40
0.000000
41
0.000000
0
VERTEX
8
0
10
-0.816575
20
-1.676654
0
VERTEX
8
0
10
-0.816575
20
-1.396654
0
SEQEND
8
0
0
POLYLINE
8
0
66
1
40
0.000000
41
0.000000
0
VERTEX
8
0
10
-0.812638
20
-1.676654
0
VERTEX
8
0
10
-0.812638
20
-1.396654
0
SEQEND
8
0
0
POLYLINE
8
0
66
1
40
0.000000
41
0.000000
0
VERTEX
8
0
10
-0.808701
20
-1.676654
0
VERTEX
8
0
10
-0.808701
20
-1.396654
0
SEQEND
8
0
0
POLYLINE
8
0
66
1
40
0.000000
41
0.000000
0
VERTEX
8
0
10
-0.804764
20
-1.676654
0
VERTEX
8
0
10
-0.804764
20
-1.396654
0
SEQEND
8
0
0
POLYLINE
8
0
66
1
40
0.000000
41
0.000000
0
VERTEX
8
0
10
-0.800827
20
-1.676654
0
VERTEX
8
0
10
-0.800827
20
-1.396654
0
SEQEND
8
0
0
POLYLINE
8
0
66
1
40
0.000000
41
0.000000
0
VERTEX
8
0
10
-0.796890
20
-1.676654
0
VERTEX
8
0
10
-0.796890
20
-1.396654
0
SEQEND
8
0
0
POLYLINE
8
0
66
1
40
0.000000
41
0.000000
0
VERTEX
8
0
10
-0.792953
20
-1.676654
0
VERTEX
8
0
10
-0.792953
20
-1.396654
0
SEQEND
8
0
0
POLYLINE
8
0
66
1
40
0.000000
41
0.000000
0
VERTEX
8
0
10
-0.789016
20
-1.676654
0
VERTEX
8
0
10
-0.789016
20
-1.396654
0
SEQEND
8
0
0
POLYLINE
8
0
66
1
40
0.000000
41
0.000000
0
VERTEX
8
0
10
-0.785079
20
-1.676654
0
VERTEX
8
0
10
-0.785079
20
-1.396654
0
SEQEND
8
0
0
POLYLINE
8
0
66
1
40
0.000000
41
0.000000
0
VERTEX
8
0
10
-0.781142
20
-1.676654
0
VERTEX
8
0
10
-0.781142
20
-1.396654
0
SEQEND
8
0
0
POLYLINE
8
0
66
1
40
0.000000
41
0.000000
0
VERTEX
8
0
10
-0.777205
20
-1.676654
0
VERTEX
8
0
10
-0.777205
20
-1.396654
0
SEQEND
8
0
0
POLYLINE
8
0
66
1
40
0.000000
41
0.000000
0
VERTEX
8
0
10
-0.773268
20
-1.676654
0
VERTEX
8
0
10
-0.773268
20
-1.396654
0
SEQEND
8
0
0
POLYLINE
8
0
66
1
40
0.000000
41
0.000000
0
VERTEX
8
0
10
-0.769331
20
-1.676654
0
VERTEX
8
0
10
-0.769331
20
-1.396654
0
SEQEND
8
0
0
POLYLINE
8
0
66
1
40
0.000000
41
0.000000
0
VERTEX
8
0
10
-0.765394
20
-1.676654
0
VERTEX
8
0
10
-0.765394
20
-1.396654
0
SEQEND
8
0
0
POLYLINE
8
0
66
1
40
0.000000
41
0.000000
0
VERTEX
8
0
10
-0.761457
20
-1.676654
0
VERTEX
8
0
10
-0.761457
20
-1.396654
0
SEQEND
8
0
0
POLYLINE
8
0
66
1
40
0.000000
41
0.000000
0
VERTEX
8
0
10
-0.757520
20
-1.676654
0
VERTEX
8
0
10
-0.757520
20
-1.396654
0
SEQEND
8
0
0
POLYLINE
8
0
66
1
40
0.000000
41
0.000000
0
VERTEX
8
0
10
-0.753583
20
-1.676654
0
VERTEX
8
0
10
-0.753583
20
-1.396654
0
SEQEND
8
0
0
POLYLINE
8
0
66
1
40
0.000000
41
0.000000
0
VERTEX
8
0
10
-0.749646
20
-1.676654
0
VERTEX
8
0
10
-0.749646
20
-1.396654
0
SEQEND
8
0
0
POLYLINE
8
0
66
1
40
0.000000
41
0.000000
0
VERTEX
8
0
10
-0.745709
20
-1.676654
0
VERTEX
8
0
10
-0.745709
20
-1.396654
0
SEQEND
8
0
0
POLYLINE
8
0
66
1
40
0.000000
41
0.000000
0
VERTEX
8
0
10
-0.741772
20
-1.676654
0
VERTEX
8
0
10
-0.741772
20
-1.396654
0
SEQEND
8
0
0
POLYLINE
8
0
66
1
40
0.000000
41
0.000000
0
VERTEX
8
0
10
-0.737835
20
-1.676654
0
VERTEX
8
0
10
-0.737835
20
-1.396654
0
SEQEND
8
0
0
POLYLINE
8
0
66
1
40
0.000000
41
0.000000
0
VERTEX
8
0
10
-0.733898
20
-1.676654
0
VERTEX
8
0
10
-0.733898
20
-1.396654
0
SEQEND
8
0
0
POLYLINE
8
0
66
1
40
0.000000
41
0.000000
0
VERTEX
8
0
10
-0.729961
20
-1.676654
0
VERTEX
8
0
10
-0.729961
20
-1.396654
0
SEQEND
8
0
0
POLYLINE
8
0
66
1
40
0.000000
41
0.000000
0
VERTEX
8
0
10
-0.726024
20
-1.676654
0
VERTEX
8
0
10
-0.726024
20
-1.396654
0
SEQEND
8
0
0
POLYLINE
8
0
66
1
40
0.000000
41
0.000000
0
VERTEX
8
0
10
-0.722087
20
-1.676654
0
VERTEX
8
0
10
-0.722087
20
-1.396654
0
SEQEND
8
0
0
POLYLINE
8
0
66
1
40
0.000000
41
0.000000
0
VERTEX
8
0
10
-0.718150
20
-1.676654
0
VERTEX
8
0
10
-0.718150
20
-1.396654
0
SEQEND
8
0
0
POLYLINE
8
0
66
1
40
0.000000
41
0.000000
0
VERTEX
8
0
10
-0.714213
20
-1.676654
0
VERTEX
8
0
10
-0.714213
20
-1.396654
0
SEQEND
8
0
0
POLYLINE
8
0
66
1
40
0.000000
41
0.000000
0
VERTEX
8
0
10
-0.710276
20
-1.676654
0
VERTEX
8
0
10
-0.710276
20
-1.396654
0
SEQEND
8
0
0
POLYLINE
8
0
66
1
40
0.000000
41
0.000000
0
VERTEX
8
0
10
-0.706339
20
-1.676654
0
VERTEX
8
0
10
-0.706339
20
-1.396654
0
SEQEND
8
0
0
POLYLINE
8
0
66
1
40
0.000000
41
0.000000
0
VERTEX
8
0
10
-0.702402
20
-1.676654
0
VERTEX
8
0
10
-0.702402
20
-1.396654
0
SEQEND
8
0
0
POLYLINE
8
0
66
1
40
0.000000
41
0.000000
0
VERTEX
8
0
10
-0.698465
20
-1.676654
0
VERTEX
8
0
10
-0.698465
20
-1.396654
0
SEQEND
8
0
0
POLYLINE
8
0
66
1
40
0.000000
41
0.000000
0
VERTEX
8
0
10
-0.694528
20
-1.676654
0
VERTEX
8
0
10
-0.694528
20
-1.396654
0
SEQEND
8
0
0
POLYLINE
8
0
66
1
40
0.000000
41
0.000000
0
VERTEX
8
0
10
-0.690591
20
-1.676654
0
VERTEX
8
0
10
-0.690591
20
-1.396654
0
SEQEND
8
0
0
POLYLINE
8
0
66
1
40
0.000000
41
0.000000
0
VERTEX
8
0
10
-0.686654
20
-1.676654
0
VERTEX
8
0
10
-0.686654
20
-1.396654
0
SEQEND
8
0
0
POLYLINE
8
0
66
1
40
0.000000
41
0.000000
0
VERTEX
8
0
10
-0.682717
20
-1.676654
0
VERTEX
8
0
10
-0.682717
20
-1.396654
0
SEQEND
8
0
0
POLYLINE
8
0
66
1
40
0.000000
41
0.000000
0
VERTEX
8
0
10
-0.678780
20
-1.676654
0
VERTEX
8
0
10
-0.678780
20
-1.396654
0
SEQEND
8
0
0
POLYLINE
8
0
66
1
40
0.000000
41
0.000000
0
VERTEX
8
0
10
-0.674843
20
-1.676654
0
VERTEX
8
0
10
-0.674843
20
-1.396654
0
SEQEND
8
0
0
POLYLINE
8
0
66
1
40
0.000000
41
0.000000
0
VERTEX
8
0
10
-0.670906
20
-1.676654
0
VERTEX
8
0
10
-0.670906
20
-1.396654
0
SEQEND
8
0
0
POLYLINE
8
0
66
1
40
0.000000
41
0.000000
0
VERTEX
8
0
10
-0.666969
20
-1.676654
0
VERTEX
8
0
10
-0.666969
20
-1.396654
0
SEQEND
8
0
0
POLYLINE
8
0
66
1
40
0.000000
41
0.000000
0
VERTEX
8
0
10
-0.663031
20
-1.676654
0
VERTEX
8
0
10
-0.663031
20
-1.396654
0
SEQEND
8
0
0
POLYLINE
8
0
66
1
40
0.000000
41
0.000000
0
VERTEX
8
0
10
-0.659094
20
-1.676654
0
VERTEX
8
0
10
-0.659094
20
-1.396654
0
SEQEND
8
0
0
POLYLINE
8
0
66
1
40
0.000000
41
0.000000
0
VERTEX
8
0
10
-0.655157
20
-1.676654
0
VERTEX
8
0
10
-0.655157
20
-1.396654
0
SEQEND
8
0
0
POLYLINE
8
0
66
1
40
0.000000
41
0.000000
0
VERTEX
8
0
10
-0.651220
20
-1.676654
0
VERTEX
8
0
10
-0.651220
20
-1.396654
0
SEQEND
8
0
0
POLYLINE
8
0
66
1
40
0.000000
41
0.000000
0
VERTEX
8
0
10
-0.647283
20
-1.676654
0
VERTEX
8
0
10
-0.647283
20
-1.396654
0
SEQEND
8
0
0
POLYLINE
8
0
66
1
40
0.000000
41
0.000000
0
VERTEX
8
0
10
-0.643346
20
-1.676654
0
VERTEX
8
0
10
-0.643346
20
-1.396654
0
SEQEND
8
0
0
POLYLINE
8
0
66
1
40
0.000000
41
0.000000
0
VERTEX
8
0
10
-0.639409
20
-1.676654
0
VERTEX
8
0
10
-0.639409
20
-1.396654
0
SEQEND
8
0
0
POLYLINE
8
0
66
1
40
0.000000
41
0.000000
0
VERTEX
8
0
10
-0.635472
20
-1.676654
0
VERTEX
8
0
10
-0.635472
20
-1.396654
0
SEQEND
8
0
0
POLYLINE
8
0
66
1
40
0.000000
41
0.000000
0
VERTEX
8
0
10
-0.631535
20
-1.676654
0
VERTEX
8
0
10
-0.631535
20
-1.396654
0
SEQEND
8
0
0
POLYLINE
8
0
66
1
40
0.000000
41
0.000000
0
VERTEX
8
0
10
-0.627598
20
-1.676654
0
VERTEX
8
0
10
-0.627598
20
-1.396654
0
SEQEND
8
0
0
POLYLINE
8
0
66
1
40
0.000000
41
0.000000
0
VERTEX
8
0
10
-0.623661
20
-1.676654
0
VERTEX
8
0
10
-0.623661
20
-1.396654
0
SEQEND
8
0
0
POLYLINE
8
0
66
1
40
0.000000
41
0.000000
0
VERTEX
8
0
10
-0.619724
20
-1.676654
0
VERTEX
8
0
10
-0.619724
20
-1.396654
0
SEQEND
8
0
0
POLYLINE
8
0
66
1
40
0.000000
41
0.000000
0
VERTEX
8
0
10
-0.615787
20
-1.676654
0
VERTEX
8
0
10
-0.615787
20
-1.396654
0
SEQEND
8
0
0
POLYLINE
8
0
66
1
40
0.000000
41
0.000000
0
VERTEX
8
0
10
-0.611850
20
-1.676654
0
VERTEX
8
0
10
-0.611850
20
-1.396654
0
SEQEND
8
0
0
POLYLINE
8
0
66
1
40
0.000000
41
0.000000
0
VERTEX
8
0
10
-0.607913
20
-1.676654
0
VERTEX
8
0
10
-0.607913
20
-1.396654
0
SEQEND
8
0
0
POLYLINE
8
0
66
1
40
0.000000
41
0.000000
0
VERTEX
8
0
10
-0.603976
20
-1.676654
0
VERTEX
8
0
10
-0.603976
20
-1.396654
0
SEQEND
8
0
0
POLYLINE
8
0
66
1
40
0.000000
41
0.000000
0
VERTEX
8
0
10
-0.600039
20
-1.676654
0
VERTEX
8
0
10
-0.600039
20
-1.396654
0
SEQEND
8
0
0
POLYLINE
8
0
66
1
40
0.000000
41
0.000000
0
VERTEX
8
0
10
-0.596102
20
-1.676654
0
VERTEX
8
0
10
-0.596102
20
-1.396654
0
SEQEND
8
0
0
POLYLINE
8
0
66
1
40
0.000000
41
0.000000
0
VERTEX
8
0
10
-0.592165
20
-1.676654
0
VERTEX
8
0
10
-0.592165
20
-1.396654
0
SEQEND
8
0
0
POLYLINE
8
0
66
1
40
0.000000
41
0.000000
0
VERTEX
8
0
10
-0.588228
20
-1.676654
0
VERTEX
8
0
10
-0.588228
20
-1.396654
0
SEQEND
8
0
0
POLYLINE
8
0
66
1
40
0.000000
41
0.000000
0
VERTEX
8
0
10
-0.584291
20
-1.676654
0
VERTEX
8
0
10
-0.584291
20
-1.396654
0
SEQEND
8
0
0
POLYLINE
8
0
66
1
40
0.000000
41
0.000000
0
VERTEX
8
0
10
-0.580354
20
-1.676654
0
VERTEX
8
0
10
-0.580354
20
-1.396654
0
SEQEND
8
0
0
POLYLINE
8
0
66
1
40
0.000000
41
0.000000
0
VERTEX
8
0
10
-0.576417
20
-1.676654
0
VERTEX
8
0
10
-0.576417
20
-1.396654
0
SEQEND
8
0
0
POLYLINE
8
0
66
1
40
0.000000
41
0.000000
0
VERTEX
8
0
10
-0.572480
20
-1.676654
0
VERTEX
8
0
10
-0.572480
20
-1.396654
0
SEQEND
8
0
0
POLYLINE
8
0
66
1
40
0.000000
41
0.000000
0
VERTEX
8
0
10
-0.568543
20
-1.676654
0
VERTEX
8
0
10
-0.568543
20
-1.396654
0
SEQEND
8
0
0
POLYLINE
8
0
66
1
40
0.000000
41
0.000000
0
VERTEX
8
0
10
-0.564606
20
-1.676654
0
VERTEX
8
0
10
-0.564606
20
-1.396654
0
SEQEND
8
0
0
POLYLINE
8
0
66
1
40
0.000000
41
0.000000
0
VERTEX
8
0
10
-0.560669
20
-1.676654
0
VERTEX
8
0
10
-0.560669
20
-1.396654
0
SEQEND
8
0
0
POLYLINE
8
0
66
1
40
0.000000
41
0.000000
0
VERTEX
8
0
10
-0.556732
20
-1.676654
0
VERTEX
8
0
10
-0.556732
20
-1.396654
0
SEQEND
8
0
0
POLYLINE
8
0
66
1
40
0.000000
41
0.000000
0
VERTEX
8
0
10
-0.552795
20
-1.676654
0
VERTEX
8
0
10
-0.552795
20
-1.396654
0
SEQEND
8
0
0
POLYLINE
8
0
66
1
40
0.000000
41
0.000000
0
VERTEX
8
0
10
-0.548858
20
-1.676654
0
VERTEX
8
0
10
-0.548858
20
-1.396654
0
SEQEND
8
0
0
POLYLINE
8
0
66
1
40
0.000000
41
0.000000
0
VERTEX
8
0
10
-0.544921
20
-1.676654
0
VERTEX
8
0
10
-0.544921
20
-1.396654
0
SEQEND
8
0
0
POLYLINE
8
0
66
1
40
0.000000
41
0.000000
0
VERTEX
8
0
10
-0.540984
20
-1.676654
0
VERTEX
8
0
10
-0.540984
20
-1.396654
0
SEQEND
8
0
0
POLYLINE
8
0
66
1
40
0.000000
41
0.000000
0
VERTEX
8
0
10
-0.537047
20
-1.676654
0
VERTEX
8
0
10
-0.537047
20
-1.396654
0
SEQEND
8
0
0
POLYLINE
8
0
66
1
40
0.000000
41
0.000000
0
VERTEX
8
0
10
-0.533110
20
-1.676654
0
VERTEX
8
0
10
-0.533110
20
-1.396654
0
SEQEND
8
0
0
POLYLINE
8
0
66
1
40
0.000000
41
0.000000
0
VERTEX
8
0
10
-0.529173
20
-1.676654
0
VERTEX
8
0
10
-0.529173
20
-1.396654
0
SEQEND
8
0
0
POLYLINE
8
0
66
1
40
0.000000
41
0.000000
0
VERTEX
8
0
10
-0.525236
20
-1.676654
0
VERTEX
8
0
10
-0.525236
20
-1.396654
0
SEQEND
8
0
0
POLYLINE
8
0
66
1
40
0.000000
41
0.000000
0
VERTEX
8
0
10
-0.521299
20
-1.676654
0
VERTEX
8
0
10
-0.521299
20
-1.396654
0
SEQEND
8
0
0
POLYLINE
8
0
66
1
40
0.000000
41
0.000000
0
VERTEX
8
0
10
-0.517362
20
-1.676654
0
VERTEX
8
0
10
-0.517362
20
-1.396654
0
SEQEND
8
0
0
POLYLINE
8
0
66
1
40
0.000000
41
0.000000
0
VERTEX
8
0
10
-0.513425
20
-1.676654
0
VERTEX
8
0
10
-0.513425
20
-1.396654
0
SEQEND
8
0
0
POLYLINE
8
0
66
1
40
0.000000
41
0.000000
0
VERTEX
8
0
10
-0.509488
20
-1.676654
0
VERTEX
8
0
10
-0.509488
20
-1.396654
0
SEQEND
8
0
0
POLYLINE
8
0
66
1
40
0.000000
41
0.000000
0
VERTEX
8
0
10
-0.505551
20
-1.676654
0
VERTEX
8
0
10
-0.505551
20
-1.396654
0
SEQEND
8
0
0
POLYLINE
8
0
66
1
40
0.000000
41
0.000000
0
VERTEX
8
0
10
-0.501614
20
-1.676654
0
VERTEX
8
0
10
-0.501614
20
-1.396654
0
SEQEND
8
0
0
POLYLINE
8
0
66
1
40
0.000000
41
0.000000
0
VERTEX
8
0
10
-0.497677
20
-1.676654
0
VERTEX
8
0
10
-0.497677
20
-1.396654
0
SEQEND
8
0
0
POLYLINE
8
0
66
1
40
0.000000
41
0.000000
0
VERTEX
8
0
10
-0.493740
20
-1.676654
0
VERTEX
8
0
10
-0.493740
20
-1.396654
0
SEQEND
8
0
0
POLYLINE
8
0
66
1
40
0.000000
41
0.000000
0
VERTEX
8
0
10
-0.489803
20
-1.676654
0
VERTEX
8
0
10
-0.489803
20
-1.396654
0
SEQEND
8
0
0
POLYLINE
8
0
66
1
40
0.000000
41
0.000000
0
VERTEX
8
0
10
-0.485866
20
-1.676654
0
VERTEX
8
0
10
-0.485866
20
-1.396654
0
SEQEND
8
0
0
POLYLINE
8
0
66
1
40
0.000000
41
0.000000
0
VERTEX
8
0
10
-0.481929
20
-1.676654
0
VERTEX
8
0
10
-0.481929
20
-1.396654
0
SEQEND
8
0
0
POLYLINE
8
0
66
1
40
0.000000
41
0.000000
0
VERTEX
8
0
10
-0.477992
20
-1.676654
0
VERTEX
8
0
10
-0.477992
20
-1.396654
0
SEQEND
8
0
0
POLYLINE
8
0
66
1
40
0.000000
41
0.000000
0
VERTEX
8
0
10
-0.474055
20
-1.676654
0
VERTEX
8
0
10
-0.474055
20
-1.396654
0
SEQEND
8
0
0
POLYLINE
8
0
66
1
40
0.000000
41
0.000000
0
VERTEX
8
0
10
-0.470118
20
-1.676654
0
VERTEX
8
0
10
-0.470118
20
-1.396654
0
SEQEND
8
0
0
POLYLINE
8
0
66
1
40
0.000000
41
0.000000
0
VERTEX
8
0
10
-0.466181
20
-1.676654
0
VERTEX
8
0
10
-0.466181
20
-1.396654
0
SEQEND
8
0
0
POLYLINE
8
0
66
1
40
0.000000
41
0.000000
0
VERTEX
8
0
10
-0.462244
20
-1.676654
0
VERTEX
8
0
10
-0.462244
20
-1.396654
0
SEQEND
8
0
0
POLYLINE
8
0
66
1
40
0.000000
41
0.000000
0
VERTEX
8
0
10
-0.458307
20
-1.676654
0
VERTEX
8
0
10
-0.458307
20
-1.396654
0
SEQEND
8
0
0
POLYLINE
8
0
66
1
40
0.000000
41
0.000000
0
VERTEX
8
0
10
-0.454370
20
-1.676654
0
VERTEX
8
0
10
-0.454370
20
-1.396654
0
SEQEND
8
0
0
POLYLINE
8
0
66
1
40
0.000000
41
0.000000
0
VERTEX
8
0
10
-0.450433
20
-1.676654
0
VERTEX
8
0
10
-0.450433
20
-1.396654
0
SEQEND
8
0
0
POLYLINE
8
0
66
1
40
0.000000
41
0.000000
0
VERTEX
8
0
10
-0.446496
20
-1.676654
0
VERTEX
8
0
10
-0.446496
20
-1.396654
0
SEQEND
8
0
0
POLYLINE
8
0
66
1
40
0.000000
41
0.000000
0
VERTEX
8
0
10
-0.442559
20
-1.676654
0
VERTEX
8
0
10
-0.442559
20
-1.396654
0
SEQEND
8
0
0
POLYLINE
8
0
66
1
40
0.000000
41
0.000000
0
VERTEX
8
0
10
-0.438622
20
-1.676654
0
VERTEX
8
0
10
-0.438622
20
-1.396654
0
SEQEND
8
0
0
POLYLINE
8
0
66
1
40
0.000000
41
0.000000
0
VERTEX
8
0
10
-0.434685
20
-1.676654
0
VERTEX
8
0
10
-0.434685
20
-1.396654
0
SEQEND
8
0
0
POLYLINE
8
0
66
1
40
0.000000
41
0.000000
0
VERTEX
8
0
10
-0.430748
20
-1.676654
0
VERTEX
8
0
10
-0.430748
20
-1.396654
0
SEQEND
8
0
0
POLYLINE
8
0
66
1
40
0.000000
41
0.000000
0
VERTEX
8
0
10
-0.426811
20
-1.676654
0
VERTEX
8
0
10
-0.426811
20
-1.396654
0
SEQEND
8
0
0
POLYLINE
8
0
66
1
40
0.008000
41
0.008000
0
VERTEX
8
0
10
-1.424803
20
-1.676654
0
VERTEX
8
0
10
-0.424803
20
-1.676654
0
VERTEX
8
0
10
-0.424803
20
-1.396654
0
VERTEX
8
0
10
-1.424803
20
-1.396654
0
VERTEX
8
0
10
-1.424803
20
-1.676654
0
SEQEND
8
0
0
POLYLINE
8
0
66
1
40
0.000000
41
0.000000
0
VERTEX
8
0
10
-0.584291
20
-0.436654
0
VERTEX
8
0
10
-0.584291
20
1.603346
0
SEQEND
8
0
0
POLYLINE
8
0
66
1
40
0.000000
41
0.000000
0
VERTEX
8
0
10
-0.580354
20
-0.436654
0
VERTEX
8
0
10
-0.580354
20
1.603346
0
SEQEND
8
0
0
POLYLINE
8
0
66
1
40
0.000000
41
0.000000
0
VERTEX
8
0
10
-0.576417
20
-0.436654
0
VERTEX
8
0
10
-0.576417
20
1.603346
0
SEQEND
8
0
0
POLYLINE
8
0
66
1
40
0.000000
41
0.000000
0
VERTEX
8
0
10
-0.572480
20
-0.436654
0
VERTEX
8
0
10
-0.572480
20
1.603346
0
SEQEND
8
0
0
POLYLINE
8
0
66
1
40
0.000000
41
0.000000
0
VERTEX
8
0
10
-0.568543
20
-0.436654
0
VERTEX
8
0
10
-0.568543
20
1.603346
0
SEQEND
8
0
0
POLYLINE
8
0
66
1
40
0.000000
41
0.000000
0
VERTEX
8
0
10
-0.564606
20
-0.436654
0
VERTEX
8
0
10
-0.564606
20
1.603346
0
SEQEND
8
0
0
POLYLINE
8
0
66
1
40
0.000000
41
0.000000
0
VERTEX
8
0
10
-0.560669
20
-0.436654
0
VERTEX
8
0
10
-0.560669
20
1.603346
0
SEQEND
8
0
0
POLYLINE
8
0
66
1
40
0.000000
41
0.000000
0
VERTEX
8
0
10
-0.556732
20
-0.436654
0
VERTEX
8
0
10
-0.556732
20
1.603346
0
SEQEND
8
0
0
POLYLINE
8
0
66
1
40
0.000000
41
0.000000
0
VERTEX
8
0
10
-0.552795
20
-0.436654
0
VERTEX
8
0
10
-0.552795
20
1.603346
0
SEQEND
8
0
0
POLYLINE
8
0
66
1
40
0.000000
41
0.000000
0
VERTEX
8
0
10
-0.548858
20
-0.436654
0
VERTEX
8
0
10
-0.548858
20
1.603346
0
SEQEND
8
0
0
POLYLINE
8
0
66
1
40
0.000000
41
0.000000
0
VERTEX
8
0
10
-0.544921
20
-0.436654
0
VERTEX
8
0
10
-0.544921
20
1.603346
0
SEQEND
8
0
0
POLYLINE
8
0
66
1
40
0.000000
41
0.000000
0
VERTEX
8
0
10
-0.540984
20
-0.436654
0
VERTEX
8
0
10
-0.540984
20
1.603346
0
SEQEND
8
0
0
POLYLINE
8
0
66
1
40
0.000000
41
0.000000
0
VERTEX
8
0
10
-0.537047
20
-0.436654
0
VERTEX
8
0
10
-0.537047
20
1.603346
0
SEQEND
8
0
0
POLYLINE
8
0
66
1
40
0.000000
41
0.000000
0
VERTEX
8
0
10
-0.533110
20
-0.436654
0
VERTEX
8
0
10
-0.533110
20
1.603346
0
SEQEND
8
0
0
POLYLINE
8
0
66
1
40
0.000000
41
0.000000
0
VERTEX
8
0
10
-0.529173
20
-0.436654
0
VERTEX
8
0
10
-0.529173
20
1.603346
0
SEQEND
8
0
0
POLYLINE
8
0
66
1
40
0.000000
41
0.000000
0
VERTEX
8
0
10
-0.525236
20
-0.436654
0
VERTEX
8
0
10
-0.525236
20
1.603346
0
SEQEND
8
0
0
POLYLINE
8
0
66
1
40
0.000000
41
0.000000
0
VERTEX
8
0
10
-0.521299
20
-0.436654
0
VERTEX
8
0
10
-0.521299
20
1.603346
0
SEQEND
8
0
0
POLYLINE
8
0
66
1
40
0.000000
41
0.000000
0
VERTEX
8
0
10
-0.517362
20
-0.436654
0
VERTEX
8
0
10
-0.517362
20
1.603346
0
SEQEND
8
0
0
POLYLINE
8
0
66
1
40
0.000000
41
0.000000
0
VERTEX
8
0
10
-0.513425
20
-0.436654
0
VERTEX
8
0
10
-0.513425
20
1.603346
0
SEQEND
8
0
0
POLYLINE
8
0
66
1
40
0.000000
41
0.000000
0
VERTEX
8
0
10
-0.509488
20
-0.436654
0
VERTEX
8
0
10
-0.509488
20
1.603346
0
SEQEND
8
0
0
POLYLINE
8
0
66
1
40
0.000000
41
0.000000
0
VERTEX
8
0
10
-0.505551
20
-0.436654
0
VERTEX
8
0
10
-0.505551
20
1.603346
0
SEQEND
8
0
0
POLYLINE
8
0
66
1
40
0.000000
41
0.000000
0
VERTEX
8
0
10
-0.501614
20
-0.436654
0
VERTEX
8
0
10
-0.501614
20
1.603346
0
SEQEND
8
0
0
POLYLINE
8
0
66
1
40
0.000000
41
0.000000
0
VERTEX
8
0
10
-0.497677
20
-0.436654
0
VERTEX
8
0
10
-0.497677
20
1.603346
0
SEQEND
8
0
0
POLYLINE
8
0
66
1
40
0.000000
41
0.000000
0
VERTEX
8
0
10
-0.493740
20
-0.436654
0
VERTEX
8
0
10
-0.493740
20
1.603346
0
SEQEND
8
0
0
POLYLINE
8
0
66
1
40
0.000000
41
0.000000
0
VERTEX
8
0
10
-0.489803
20
-0.436654
0
VERTEX
8
0
10
-0.489803
20
1.603346
0
SEQEND
8
0
0
POLYLINE
8
0
66
1
40
0.000000
41
0.000000
0
VERTEX
8
0
10
-0.485866
20
-0.436654
0
VERTEX
8
0
10
-0.485866
20
1.603346
0
SEQEND
8
0
0
POLYLINE
8
0
66
1
40
0.000000
41
0.000000
0
VERTEX
8
0
10
-0.481929
20
-0.436654
0
VERTEX
8
0
10
-0.481929
20
1.603346
0
SEQEND
8
0
0
POLYLINE
8
0
66
1
40
0.000000
41
0.000000
0
VERTEX
8
0
10
-0.477992
20
-0.436654
0
VERTEX
8
0
10
-0.477992
20
1.603346
0
SEQEND
8
0
0
POLYLINE
8
0
66
1
40
0.000000
41
0.000000
0
VERTEX
8
0
10
-0.474055
20
-0.436654
0
VERTEX
8
0
10
-0.474055
20
1.603346
0
SEQEND
8
0
0
POLYLINE
8
0
66
1
40
0.000000
41
0.000000
0
VERTEX
8
0
10
-0.470118
20
-0.436654
0
VERTEX
8
0
10
-0.470118
20
1.603346
0
SEQEND
8
0
0
POLYLINE
8
0
66
1
40
0.000000
41
0.000000
0
VERTEX
8
0
10
-0.466181
20
-0.436654
0
VERTEX
8
0
10
-0.466181
20
1.603346
0
SEQEND
8
0
0
POLYLINE
8
0
66
1
40
0.000000
41
0.000000
0
VERTEX
8
0
10
-0.462244
20
-0.436654
0
VERTEX
8
0
10
-0.462244
20
1.603346
0
SEQEND
8
0
0
POLYLINE
8
0
66
1
40
0.000000
41
0.000000
0
VERTEX
8
0
10
-0.458307
20
-0.436654
0
VERTEX
8
0
10
-0.458307
20
1.603346
0
SEQEND
8
0
0
POLYLINE
8
0
66
1
40
0.000000
41
0.000000
0
VERTEX
8
0
10
-0.454370
20
-0.436654
0
VERTEX
8
0
10
-0.454370
20
1.603346
0
SEQEND
8
0
0
POLYLINE
8
0
66
1
40
0.000000
41
0.000000
0
VERTEX
8
0
10
-0.450433
20
-0.436654
0
VERTEX
8
0
10
-0.450433
20
1.603346
0
SEQEND
8
0
0
POLYLINE
8
0
66
1
40
0.000000
41
0.000000
0
VERTEX
8
0
10
-0.446496
20
-0.436654
0
VERTEX
8
0
10
-0.446496
20
1.603346
0
SEQEND
8
0
0
POLYLINE
8
0
66
1
40
0.000000
41
0.000000
0
VERTEX
8
0
10
-0.442559
20
-0.436654
0
VERTEX
8
0
10
-0.442559
20
1.603346
0
SEQEND
8
0
0
POLYLINE
8
0
66
1
40
0.000000
41
0.000000
0
VERTEX
8
0
10
-0.438622
20
-0.436654
0
VERTEX
8
0
10
-0.438622
20
1.603346
0
SEQEND
8
0
0
POLYLINE
8
0
66
1
40
0.000000
41
0.000000
0
VERTEX
8
0
10
-0.434685
20
-0.436654
0
VERTEX
8
0
10
-0.434685
20
1.603346
0
SEQEND
8
0
0
POLYLINE
8
0
66
1
40
0.000000
41
0.000000
0
VERTEX
8
0
10
-0.430748
20
-0.436654
0
VERTEX
8
0
10
-0.430748
20
1.603346
0
SEQEND
8
0
0
POLYLINE
8
0
66
1
40
0.000000
41
0.000000
0
VERTEX
8
0
10
-0.426811
20
-0.436654
0
VERTEX
8
0
10
-0.426811
20
1.603346
0
SEQEND
8
0
0
POLYLINE
8
0
66
1
40
0.000000
41
0.000000
0
VERTEX
8
0
10
-0.422874
20
-0.436654
0
VERTEX
8
0
10
-0.422874
20
1.603346
0
SEQEND
8
0
0
POLYLINE
8
0
66
1
40
0.000000
41
0.000000
0
VERTEX
8
0
10
-0.418937
20
-0.436654
0
VERTEX
8
0
10
-0.418937
20
1.603346
0
SEQEND
8
0
0
POLYLINE
8
0
66
1
40
0.000000
41
0.000000
0
VERTEX
8
0
10
-0.415000
20
-0.436654
0
VERTEX
8
0
10
-0.415000
20
1.603346
0
SEQEND
8
0
0
POLYLINE
8
0
66
1
40
0.000000
41
0.000000
0
VERTEX
8
0
10
-0.411063
20
-0.436654
0
VERTEX
8
0
10
-0.411063
20
1.603346
0
SEQEND
8
0
0
POLYLINE
8
0
66
1
40
0.000000
41
0.000000
0
VERTEX
8
0
10
-0.407126
20
-0.436654
0
VERTEX
8
0
10
-0.407126
20
1.603346
0
SEQEND
8
0
0
POLYLINE
8
0
66
1
40
0.000000
41
0.000000
0
VERTEX
8
0
10
-0.403189
20
-0.436654
0
VERTEX
8
0
10
-0.403189
20
1.603346
0
SEQEND
8
0
0
POLYLINE
8
0
66
1
40
0.000000
41
0.000000
0
VERTEX
8
0
10
-0.399252
20
-0.436654
0
VERTEX
8
0
10
-0.399252
20
1.603346
0
SEQEND
8
0
0
POLYLINE
8
0
66
1
40
0.000000
41
0.000000
0
VERTEX
8
0
10
-0.395315
20
-0.436654
0
VERTEX
8
0
10
-0.395315
20
1.603346
0
SEQEND
8
0
0
POLYLINE
8
0
66
1
40
0.000000
41
0.000000
0
VERTEX
8
0
10
-0.391378
20
-0.436654
0
VERTEX
8
0
10
-0.391378
20
1.603346
0
SEQEND
8
0
0
POLYLINE
8
0
66
1
40
0.000000
41
0.000000
0
VERTEX
8
0
10
-0.387441
20
-0.436654
0
VERTEX
8
0
10
-0.387441
20
1.603346
0
SEQEND
8
0
0
POLYLINE
8
0
66
1
40
0.000000
41
0.000000
0
VERTEX
8
0
10
-0.383504
20
-0.436654
0
VERTEX
8
0
10
-0.383504
20
1.603346
0
SEQEND
8
0
0
POLYLINE
8
0
66
1
40
0.000000
41
0.000000
0
VERTEX
8
0
10
-0.379567
20
-0.436654
0
VERTEX
8
0
10
-0.379567
20
1.603346
0
SEQEND
8
0
0
POLYLINE
8
0
66
1
40
0.000000
41
0.000000
0
VERTEX
8
0
10
-0.375630
20
-0.436654
0
VERTEX
8
0
10
-0.375630
20
1.603346
0
SEQEND
8
0
0
POLYLINE
8
0
66
1
40
0.000000
41
0.000000
0
VERTEX
8
0
10
-0.371693
20
-0.436654
0
VERTEX
8
0
10
-0.371693
20
1.603346
0
SEQEND
8
0
0
POLYLINE
8
0
66
1
40
0.000000
41
0.000000
0
VERTEX
8
0
10
-0.367756
20
-0.436654
0
VERTEX
8
0
10
-0.367756
20
1.603346
0
SEQEND
8
0
0
POLYLINE
8
0
66
1
40
0.000000
41
0.000000
0
VERTEX
8
0
10
-0.363819
20
-0.436654
0
VERTEX
8
0
10
-0.363819
20
1.603346
0
SEQEND
8
0
0
POLYLINE
8
0
66
1
40
0.000000
41
0.000000
0
VERTEX
8
0
10
-0.359882
20
-0.436654
0
VERTEX
8
0
10
-0.359882
20
1.603346
0
SEQEND
8
0
0
POLYLINE
8
0
66
1
40
0.000000
41
0.000000
0
VERTEX
8
0
10
-0.355945
20
-0.436654
0
VERTEX
8
0
10
-0.355945
20
1.603346
0
SEQEND
8
0
0
POLYLINE
8
0
66
1
40
0.000000
41
0.000000
0
VERTEX
8
0
10
-0.352008
20
-0.436654
0
VERTEX
8
0
10
-0.352008
20
1.603346
0
SEQEND
8
0
0
POLYLINE
8
0
66
1
40
0.000000
41
0.000000
0
VERTEX
8
0
10
-0.348071
20
-0.436654
0
VERTEX
8
0
10
-0.348071
20
1.603346
0
SEQEND
8
0
0
POLYLINE
8
0
66
1
40
0.000000
41
0.000000
0
VERTEX
8
0
10
-0.344134
20
-0.436654
0
VERTEX
8
0
10
-0.344134
20
1.603346
0
SEQEND
8
0
0
POLYLINE
8
0
66
1
40
0.000000
41
0.000000
0
VERTEX
8
0
10
-0.340197
20
-0.436654
0
VERTEX
8
0
10
-0.340197
20
1.603346
0
SEQEND
8
0
0
POLYLINE
8
0
66
1
40
0.000000
41
0.000000
0
VERTEX
8
0
10
-0.336260
20
-0.436654
0
VERTEX
8
0
10
-0.336260
20
1.603346
0
SEQEND
8
0
0
POLYLINE
8
0
66
1
40
0.000000
41
0.000000
0
VERTEX
8
0
10
-0.332323
20
-0.436654
0
VERTEX
8
0
10
-0.332323
20
1.603346
0
SEQEND
8
0
0
POLYLINE
8
0
66
1
40
0.000000
41
0.000000
0
VERTEX
8
0
10
-0.328386
20
-0.436654
0
VERTEX
8
0
10
-0.328386
20
1.603346
0
SEQEND
8
0
0
POLYLINE
8
0
66
1
40
0.000000
41
0.000000
0
VERTEX
8
0
10
-0.324449
20
-0.436654
0
VERTEX
8
0
10
-0.324449
20
1.603346
0
SEQEND
8
0
0
POLYLINE
8
0
66
1
40
0.000000
41
0.000000
0
VERTEX
8
0
10
-0.320512
20
-0.436654
0
VERTEX
8
0
10
-0.320512
20
1.603346
0
SEQEND
8
0
0
POLYLINE
8
0
66
1
40
0.000000
41
0.000000
0
VERTEX
8
0
10
-0.316575
20
-0.436654
0
VERTEX
8
0
10
-0.316575
20
1.603346
0
SEQEND
8
0
0
POLYLINE
8
0
66
1
40
0.000000
41
0.000000
0
VERTEX
8
0
10
-0.312638
20
-0.436654
0
VERTEX
8
0
10
-0.312638
20
1.603346
0
SEQEND
8
0
0
POLYLINE
8
0
66
1
40
0.000000
41
0.000000
0
VERTEX
8
0
10
-0.308701
20
-0.436654
0
VERTEX
8
0
10
-0.308701
20
1.603346
0
SEQEND
8
0
0
POLYLINE
8
0
66
1
40
0.000000
41
0.000000
0
VERTEX
8
0
10
-0.304764
20
-0.436654
0
VERTEX
8
0
10
-0.304764
20
1.603346
0
SEQEND
8
0
0
POLYLINE
8
0
66
1
40
0.000000
41
0.000000
0
VERTEX
8
0
10
-0.300827
20
-0.436654
0
VERTEX
8
0
10
-0.300827
20
1.603346
0
SEQEND
8
0
0
POLYLINE
8
0
66
1
40
0.000000
41
0.000000
0
VERTEX
8
0
10
-0.296890
20
-0.436654
0
VERTEX
8
0
10
-0.296890
20
1.603346
0
SEQEND
8
0
0
POLYLINE
8
0
66
1
40
0.000000
41
0.000000
0
VERTEX
8
0
10
-0.292953
20
-0.436654
0
VERTEX
8
0
10
-0.292953
20
1.603346
0
SEQEND
8
0
0
POLYLINE
8
0
66
1
40
0.000000
41
0.000000
0
VERTEX
8
0
10
-0.289016
20
-0.436654
0
VERTEX
8
0
10
-0.289016
20
1.603346
0
SEQEND
8
0
0
POLYLINE
8
0
66
1
40
0.000000
41
0.000000
0
VERTEX
8
0
10
-0.285079
20
-0.436654
0
VERTEX
8
0
10
-0.285079
20
1.603346
0
SEQEND
8
0
0
POLYLINE
8
0
66
1
40
0.000000
41
0.000000
0
VERTEX
8
0
10
-0.281142
20
-0.436654
0
VERTEX
8
0
10
-0.281142
20
1.603346
0
SEQEND
8
0
0
POLYLINE
8
0
66
1
40
0.000000
41
0.000000
0
VERTEX
8
0
10
-0.277205
20
-0.436654
0
VERTEX
8
0
10
-0.277205
20
1.603346
0
SEQEND
8
0
0
POLYLINE
8
0
66
1
40
0.000000
41
0.000000
0
VERTEX
8
0
10
-0.273268
20
-0.436654
0
VERTEX
8
0
10
-0.273268
20
1.603346
0
SEQEND
8
0
0
POLYLINE
8
0
66
1
40
0.000000
41
0.000000
0
VERTEX
8
0
10
-0.269331
20
-0.436654
0
VERTEX
8
0
10
-0.269331
20
1.603346
0
SEQEND
8
0
0
POLYLINE
8
0
66
1
40
0.000000
41
0.000000
0
VERTEX
8
0
10
-0.265394
20
-0.436654
0
VERTEX
8
0
10
-0.265394
20
1.603346
0
SEQEND
8
0
0
POLYLINE
8
0
66
1
40
0.000000
41
0.000000
0
VERTEX
8
0
10
-0.261457
20
-0.436654
0
VERTEX
8
0
10
-0.261457
20
1.603346
0
SEQEND
8
0
0
POLYLINE
8
0
66
1
40
0.000000
41
0.000000
0
VERTEX
8
0
10
-0.257520
20
-0.436654
0
VERTEX
8
0
10
-0.257520
20
1.603346
0
SEQEND
8
0
0
POLYLINE
8
0
66
1
40
0.000000
41
0.000000
0
VERTEX
8
0
10
-0.253583
20
-0.436654
0
VERTEX
8
0
10
-0.253583
20
1.603346
0
SEQEND
8
0
0
POLYLINE
8
0
66
1
40
0.000000
41
0.000000
0
VERTEX
8
0
10
-0.249646
20
-0.436654
0
VERTEX
8
0
10
-0.249646
20
1.603346
0
SEQEND
8
0
0
POLYLINE
8
0
66
1
40
0.000000
41
0.000000
0
VERTEX
8
0
10
-0.245709
20
-0.436654
0
VERTEX
8
0
10
-0.245709
20
1.603346
0
SEQEND
8
0
0
POLYLINE
8
0
66
1
40
0.000000
41
0.000000
0
VERTEX
8
0
10
-0.241772
20
-0.436654
0
VERTEX
8
0
10
-0.241772
20
1.603346
0
SEQEND
8
0
0
POLYLINE
8
0
66
1
40
0.000000
41
0.000000
0
VERTEX
8
0
10
-0.237835
20
-0.436654
0
VERTEX
8
0
10
-0.237835
20
1.603346
0
SEQEND
8
0
0
POLYLINE
8
0
66
1
40
0.000000
41
0.000000
0
VERTEX
8
0
10
-0.233898
20
-0.436654
0
VERTEX
8
0
10
-0.233898
20
1.603346
0
SEQEND
8
0
0
POLYLINE
8
0
66
1
40
0.000000
41
0.000000
0
VERTEX
8
0
10
-0.229961
20
-0.436654
0
VERTEX
8
0
10
-0.229961
20
1.603346
0
SEQEND
8
0
0
POLYLINE
8
0
66
1
40
0.000000
41
0.000000
0
VERTEX
8
0
10
-0.226024
20
-0.436654
0
VERTEX
8
0
10
-0.226024
20
1.603346
0
SEQEND
8
0
0
POLYLINE
8
0
66
1
40
0.000000
41
0.000000
0
VERTEX
8
0
10
-0.222087
20
-0.436654
0
VERTEX
8
0
10
-0.222087
20
1.603346
0
SEQEND
8
0
0
POLYLINE
8
0
66
1
40
0.000000
41
0.000000
0
VERTEX
8
0
10
-0.218150
20
-0.436654
0
VERTEX
8
0
10
-0.218150
20
1.603346
0
SEQEND
8
0
0
POLYLINE
8
0
66
1
40
0.000000
41
0.000000
0
VERTEX
8
0
10
-0.214213
20
-0.436654
0
VERTEX
8
0
10
-0.214213
20
1.603346
0
SEQEND
8
0
0
POLYLINE
8
0
66
1
40
0.000000
41
0.000000
0
VERTEX
8
0
10
-0.210276
20
-0.436654
0
VERTEX
8
0
10
-0.210276
20
1.603346
0
SEQEND
8
0
0
POLYLINE
8
0
66
1
40
0.000000
41
0.000000
0
VERTEX
8
0
10
-0.206339
20
-0.436654
0
VERTEX
8
0
10
-0.206339
20
1.603346
0
SEQEND
8
0
0
POLYLINE
8
0
66
1
40
0.000000
41
0.000000
0
VERTEX
8
0
10
-0.202402
20
-0.436654
0
VERTEX
8
0
10
-0.202402
20
1.603346
0
SEQEND
8
0
0
POLYLINE
8
0
66
1
40
0.000000
41
0.000000
0
VERTEX
8
0
10
-0.198465
20
-0.436654
0
VERTEX
8
0
10
-0.198465
20
1.603346
0
SEQEND
8
0
0
POLYLINE
8
0
66
1
40
0.000000
41
0.000000
0
VERTEX
8
0
10
-0.194528
20
-0.436654
0
VERTEX
8
0
10
-0.194528
20
1.603346
0
SEQEND
8
0
0
POLYLINE
8
0
66
1
40
0.000000
41
0.000000
0
VERTEX
8
0
10
-0.190591
20
-0.436654
0
VERTEX
8
0
10
-0.190591
20
1.603346
0
SEQEND
8
0
0
POLYLINE
8
0
66
1
40
0.000000
41
0.000000
0
VERTEX
8
0
10
-0.186654
20
-0.436654
0
VERTEX
8
0
10
-0.186654
20
1.603346
0
SEQEND
8
0
0
POLYLINE
8
0
66
1
40
0.000000
41
0.000000
0
VERTEX
8
0
10
-0.182717
20
-0.436654
0
VERTEX
8
0
10
-0.182717
20
1.603346
0
SEQEND
8
0
0
POLYLINE
8
0
66
1
40
0.000000
41
0.000000
0
VERTEX
8
0
10
-0.178780
20
-0.436654
0
VERTEX
8
0
10
-0.178780
20
1.603346
0
SEQEND
8
0
0
POLYLINE
8
0
66
1
40
0.000000
41
0.000000
0
VERTEX
8
0
10
-0.174843
20
-0.436654
0
VERTEX
8
0
10
-0.174843
20
1.603346
0
SEQEND
8
0
0
POLYLINE
8
0
66
1
40
0.000000
41
0.000000
0
VERTEX
8
0
10
-0.170906
20
-0.436654
0
VERTEX
8
0
10
-0.170906
20
1.603346
0
SEQEND
8
0
0
POLYLINE
8
0
66
1
40
0.000000
41
0.000000
0
VERTEX
8
0
10
-0.166969
20
-0.436654
0
VERTEX
8
0
10
-0.166969
20
1.603346
0
SEQEND
8
0
0
POLYLINE
8
0
66
1
40
0.000000
41
0.000000
0
VERTEX
8
0
10
-0.163031
20
-0.436654
0
VERTEX
8
0
10
-0.163031
20
1.603346
0
SEQEND
8
0
0
POLYLINE
8
0
66
1
40
0.000000
41
0.000000
0
VERTEX
8
0
10
-0.159094
20
-0.436654
0
VERTEX
8
0
10
-0.159094
20
1.603346
0
SEQEND
8
0
0
POLYLINE
8
0
66
1
40
0.000000
41
0.000000
0
VERTEX
8
0
10
-0.155157
20
-0.436654
0
VERTEX
8
0
10
-0.155157
20
1.603346
0
SEQEND
8
0
0
POLYLINE
8
0
66
1
40
0.000000
41
0.000000
0
VERTEX
8
0
10
-0.151220
20
-0.436654
0
VERTEX
8
0
10
-0.151220
20
1.603346
0
SEQEND
8
0
0
POLYLINE
8
0
66
1
40
0.000000
41
0.000000
0
VERTEX
8
0
10
-0.147283
20
-0.436654
0
VERTEX
8
0
10
-0.147283
20
1.603346
0
SEQEND
8
0
0
POLYLINE
8
0
66
1
40
0.000000
41
0.000000
0
VERTEX
8
0
10
-0.143346
20
-0.436654
0
VERTEX
8
0
10
-0.143346
20
1.603346
0
SEQEND
8
0
0
POLYLINE
8
0
66
1
40
0.000000
41
0.000000
0
VERTEX
8
0
10
-0.139409
20
-0.436654
0
VERTEX
8
0
10
-0.139409
20
1.603346
0
SEQEND
8
0
0
POLYLINE
8
0
66
1
40
0.000000
41
0.000000
0
VERTEX
8
0
10
-0.135472
20
-0.436654
0
VERTEX
8
0
10
-0.135472
20
1.603346
0
SEQEND
8
0
0
POLYLINE
8
0
66
1
40
0.000000
41
0.000000
0
VERTEX
8
0
10
-0.131535
20
-0.436654
0
VERTEX
8
0
10
-0.131535
20
1.603346
0
SEQEND
8
0
0
POLYLINE
8
0
66
1
40
0.000000
41
0.000000
0
VERTEX
8
0
10
-0.127598
20
-0.436654
0
VERTEX
8
0
10
-0.127598
20
1.603346
0
SEQEND
8
0
0
POLYLINE
8
0
66
1
40
0.000000
41
0.000000
0
VERTEX
8
0
10
-0.123661
20
-0.436654
0
VERTEX
8
0
10
-0.123661
20
1.603346
0
SEQEND
8
0
0
POLYLINE
8
0
66
1
40
0.000000
41
0.000000
0
VERTEX
8
0
10
-0.119724
20
-0.436654
0
VERTEX
8
0
10
-0.119724
20
1.603346
0
SEQEND
8
0
0
POLYLINE
8
0
66
1
40
0.000000
41
0.000000
0
VERTEX
8
0
10
-0.115787
20
-0.436654
0
VERTEX
8
0
10
-0.115787
20
1.603346
0
SEQEND
8
0
0
POLYLINE
8
0
66
1
40
0.000000
41
0.000000
0
VERTEX
8
0
10
-0.111850
20
-0.436654
0
VERTEX
8
0
10
-0.111850
20
1.603346
0
SEQEND
8
0
0
POLYLINE
8
0
66
1
40
0.000000
41
0.000000
0
VERTEX
8
0
10
-0.107913
20
-0.436654
0
VERTEX
8
0
10
-0.107913
20
1.603346
0
SEQEND
8
0
0
POLYLINE
8
0
66
1
40
0.000000
41
0.000000
0
VERTEX
8
0
10
-0.103976
20
-0.436654
0
VERTEX
8
0
10
-0.103976
20
1.603346
0
SEQEND
8
0
0
POLYLINE
8
0
66
1
40
0.000000
41
0.000000
0
VERTEX
8
0
10
-0.100039
20
-0.436654
0
VERTEX
8
0
10
-0.100039
20
1.603346
0
SEQEND
8
0
0
POLYLINE
8
0
66
1
40
0.000000
41
0.000000
0
VERTEX
8
0
10
-0.096102
20
-0.436654
0
VERTEX
8
0
10
-0.096102
20
1.603346
0
SEQEND
8
0
0
POLYLINE
8
0
66
1
40
0.000000
41
0.000000
0
VERTEX
8
0
10
-0.092165
20
-0.436654
0
VERTEX
8
0
10
-0.092165
20
1.603346
0
SEQEND
8
0
0
POLYLINE
8
0
66
1
40
0.000000
41
0.000000
0
VERTEX
8
0
10
-0.088228
20
-0.436654
0
VERTEX
8
0
10
-0.088228
20
1.603346
0
SEQEND
8
0
0
POLYLINE
8
0
66
1
40
0.000000
41
0.000000
0
VERTEX
8
0
10
-0.084291
20
-0.436654
0
VERTEX
8
0
10
-0.084291
20
1.603346
0
SEQEND
8
0
0
POLYLINE
8
0
66
1
40
0.000000
41
0.000000
0
VERTEX
8
0
10
-0.080354
20
-0.436654
0
VERTEX
8
0
10
-0.080354
20
1.603346
0
SEQEND
8
0
0
POLYLINE
8
0
66
1
40
0.000000
41
0.000000
0
VERTEX
8
0
10
-0.076417
20
-0.436654
0
VERTEX
8
0
10
-0.076417
20
1.603346
0
SEQEND
8
0
0
POLYLINE
8
0
66
1
40
0.000000
41
0.000000
0
VERTEX
8
0
10
-0.072480
20
-0.436654
0
VERTEX
8
0
10
-0.072480
20
1.603346
0
SEQEND
8
0
0
POLYLINE
8
0
66
1
40
0.000000
41
0.000000
0
VERTEX
8
0
10
-0.068543
20
-0.436654
0
VERTEX
8
0
10
-0.068543
20
1.603346
0
SEQEND
8
0
0
POLYLINE
8
0
66
1
40
0.000000
41
0.000000
0
VERTEX
8
0
10
-0.064606
20
-0.436654
0
VERTEX
8
0
10
-0.064606
20
1.603346
0
SEQEND
8
0
0
POLYLINE
8
0
66
1
40
0.000000
41
0.000000
0
VERTEX
8
0
10
-0.060669
20
-0.436654
0
VERTEX
8
0
10
-0.060669
20
1.603346
0
SEQEND
8
0
0
POLYLINE
8
0
66
1
40
0.000000
41
0.000000
0
VERTEX
8
0
10
-0.056732
20
-0.436654
0
VERTEX
8
0
10
-0.056732
20
1.603346
0
SEQEND
8
0
0
POLYLINE
8
0
66
1
40
0.000000
41
0.000000
0
VERTEX
8
0
10
-0.052795
20
-0.436654
0
VERTEX
8
0
10
-0.052795
20
1.603346
0
SEQEND
8
0
0
POLYLINE
8
0
66
1
40
0.000000
41
0.000000
0
VERTEX
8
0
10
-0.048858
20
-0.436654
0
VERTEX
8
0
10
-0.048858
20
1.603346
0
SEQEND
8
0
0
POLYLINE
8
0
66
1
40
0.000000
41
0.000000
0
VERTEX
8
0
10
-0.044921
20
-0.436654
0
VERTEX
8
0
10
-0.044921
20
1.603346
0
SEQEND
8
0
0
POLYLINE
8
0
66
1
40
0.000000
41
0.000000
0
VERTEX
8
0
10
-0.040984
20
-0.436654
0
VERTEX
8
0
10
-0.040984
20
1.603346
0
SEQEND
8
0
0
POLYLINE
8
0
66
1
40
0.000000
41
0.000000
0
VERTEX
8
0
10
-0.037047
20
-0.436654
0
VERTEX
8
0
10
-0.037047
20
1.603346
0
SEQEND
8
0
0
POLYLINE
8
0
66
1
40
0.000000
41
0.000000
0
VERTEX
8
0
10
-0.033110
20
-0.436654
0
VERTEX
8
0
10
-0.033110
20
1.603346
0
SEQEND
8
0
0
POLYLINE
8
0
66
1
40
0.000000
41
0.000000
0
VERTEX
8
0
10
-0.029173
20
-0.436654
0
VERTEX
8
0
10
-0.029173
20
1.603346
0
SEQEND
8
0
0
POLYLINE
8
0
66
1
40
0.000000
41
0.000000
0
VERTEX
8
0
10
-0.025236
20
-0.436654
0
VERTEX
8
0
10
-0.025236
20
1.603346
0
SEQEND
8
0
0
POLYLINE
8
0
66
1
40
0.000000
41
0.000000
0
VERTEX
8
0
10
-0.021299
20
-0.436654
0
VERTEX
8
0
10
-0.021299
20
1.603346
0
SEQEND
8
0
0
POLYLINE
8
0
66
1
40
0.000000
41
0.000000
0
VERTEX
8
0
10
-0.017362
20
-0.436654
0
VERTEX
8
0
10
-0.017362
20
1.603346
0
SEQEND
8
0
0
POLYLINE
8
0
66
1
40
0.000000
41
0.000000
0
VERTEX
8
0
10
-0.013425
20
-0.436654
0
VERTEX
8
0
10
-0.013425
20
1.603346
0
SEQEND
8
0
0
POLYLINE
8
0
66
1
40
0.000000
41
0.000000
0
VERTEX
8
0
10
-0.009488
20
-0.436654
0
VERTEX
8
0
10
-0.009488
20
1.603346
0
SEQEND
8
0
0
POLYLINE
8
0
66
1
40
0.000000
41
0.000000
0
VERTEX
8
0
10
-0.005551
20
-0.436654
0
VERTEX
8
0
10
-0.005551
20
1.603346
0
SEQEND
8
0
0
POLYLINE
8
0
66
1
40
0.000000
41
0.000000
0
VERTEX
8
0
10
-0.001614
20
-0.436654
0
VERTEX
8
0
10
-0.001614
20
1.603346
0
SEQEND
8
0
0
POLYLINE
8
0
66
1
40
0.000000
41
0.000000
0
VERTEX
8
0
10
0.002323
20
-0.436654
0
VERTEX
8
0
10
0.002323
20
1.603346
0
SEQEND
8
0
0
POLYLINE
8
0
66
1
40
0.000000
41
0.000000
0
VERTEX
8
0
10
0.006260
20
-0.436654
0
VERTEX
8
0
10
0.006260
20
1.603346
0
SEQEND
8
0
0
POLYLINE
8
0
66
1
40
0.000000
41
0.000000
0
VERTEX
8
0
10
0.010197
20
-0.436654
0
VERTEX
8
0
10
0.010197
20
1.603346
0
SEQEND
8
0
0
POLYLINE
8
0
66
1
40
0.000000
41
0.000000
0
VERTEX
8
0
10
0.014134
20
-0.436654
0
VERTEX
8
0
10
0.014134
20
1.603346
0
SEQEND
8
0
0
POLYLINE
8
0
66
1
40
0.000000
41
0.000000
0
VERTEX
8
0
10
0.018071
20
-0.436654
0
VERTEX
8
0
10
0.018071
20
1.603346
0
SEQEND
8
0
0
POLYLINE
8
0
66
1
40
0.000000
41
0.000000
0
VERTEX
8
0
10
0.022008
20
-0.436654
0
VERTEX
8
0
10
0.022008
20
1.603346
0
SEQEND
8
0
0
POLYLINE
8
0
66
1
40
0.000000
41
0.000000
0
VERTEX
8
0
10
0.025945
20
-0.436654
0
VERTEX
8
0
10
0.025945
20
1.603346
0
SEQEND
8
0
0
POLYLINE
8
0
66
1
40
0.000000
41
0.000000
0
VERTEX
8
0
10
0.029882
20
-0.436654
0
VERTEX
8
0
10
0.029882
20
1.603346
0
SEQEND
8
0
0
POLYLINE
8
0
66
1
40
0.000000
41
0.000000
0
VERTEX
8
0
10
0.033819
20
-0.436654
0
VERTEX
8
0
10
0.033819
20
1.603346
0
SEQEND
8
0
0
POLYLINE
8
0
66
1
40
0.000000
41
0.000000
0
VERTEX
8
0
10
0.037756
20
-0.436654
0
VERTEX
8
0
10
0.037756
20
1.603346
0
SEQEND
8
0
0
POLYLINE
8
0
66
1
40
0.000000
41
0.000000
0
VERTEX
8
0
10
0.041693
20
-0.436654
0
VERTEX
8
0
10
0.041693
20
1.603346
0
SEQEND
8
0
0
POLYLINE
8
0
66
1
40
0.000000
41
0.000000
0
VERTEX
8
0
10
0.045630
20
-0.436654
0
VERTEX
8
0
10
0.045630
20
1.603346
0
SEQEND
8
0
0
POLYLINE
8
0
66
1
40
0.000000
41
0.000000
0
VERTEX
8
0
10
0.049567
20
-0.436654
0
VERTEX
8
0
10
0.049567
20
1.603346
0
SEQEND
8
0
0
POLYLINE
8
0
66
1
40
0.000000
41
0.000000
0
VERTEX
8
0
10
0.053504
20
-0.436654
0
VERTEX
8
0
10
0.053504
20
1.603346
0
SEQEND
8
0
0
POLYLINE
8
0
66
1
40
0.000000
41
0.000000
0
VERTEX
8
0
10
0.057441
20
-0.436654
0
VERTEX
8
0
10
0.057441
20
1.603346
0
SEQEND
8
0
0
POLYLINE
8
0
66
1
40
0.000000
41
0.000000
0
VERTEX
8
0
10
0.061378
20
-0.436654
0
VERTEX
8
0
10
0.061378
20
1.603346
0
SEQEND
8
0
0
POLYLINE
8
0
66
1
40
0.000000
41
0.000000
0
VERTEX
8
0
10
0.065315
20
-0.436654
0
VERTEX
8
0
10
0.065315
20
1.603346
0
SEQEND
8
0
0
POLYLINE
8
0
66
1
40
0.000000
41
0.000000
0
VERTEX
8
0
10
0.069252
20
-0.436654
0
VERTEX
8
0
10
0.069252
20
1.603346
0
SEQEND
8
0
0
POLYLINE
8
0
66
1
40
0.000000
41
0.000000
0
VERTEX
8
0
10
0.073189
20
-0.436654
0
VERTEX
8
0
10
0.073189
20
1.603346
0
SEQEND
8
0
0
POLYLINE
8
0
66
1
40
0.000000
41
0.000000
0
VERTEX
8
0
10
0.077126
20
-0.436654
0
VERTEX
8
0
10
0.077126
20
1.603346
0
SEQEND
8
0
0
POLYLINE
8
0
66
1
40
0.000000
41
0.000000
0
VERTEX
8
0
10
0.081063
20
-0.436654
0
VERTEX
8
0
10
0.081063
20
1.603346
0
SEQEND
8
0
0
POLYLINE
8
0
66
1
40
0.000000
41
0.000000
0
VERTEX
8
0
10
0.085000
20
-0.436654
0
VERTEX
8
0
10
0.085000
20
1.603346
0
SEQEND
8
0
0
POLYLINE
8
0
66
1
40
0.000000
41
0.000000
0
VERTEX
8
0
10
0.088937
20
-0.436654
0
VERTEX
8
0
10
0.088937
20
1.603346
0
SEQEND
8
0
0
POLYLINE
8
0
66
1
40
0.000000
41
0.000000
0
VERTEX
8
0
10
0.092874
20
-0.436654
0
VERTEX
8
0
10
0.092874
20
1.603346
0
SEQEND
8
0
0
POLYLINE
8
0
66
1
40
0.000000
41
0.000000
0
VERTEX
8
0
10
0.096811
20
-0.436654
0
VERTEX
8
0
10
0.096811
20
1.603346
0
SEQEND
8
0
0
POLYLINE
8
0
66
1
40
0.000000
41
0.000000
0
VERTEX
8
0
10
0.100748
20
-0.436654
0
VERTEX
8
0
10
0.100748
20
1.603346
0
SEQEND
8
0
0
POLYLINE
8
0
66
1
40
0.000000
41
0.000000
0
VERTEX
8
0
10
0.104685
20
-0.436654
0
VERTEX
8
0
10
0.104685
20
1.603346
0
SEQEND
8
0
0
POLYLINE
8
0
66
1
40
0.000000
41
0.000000
0
VERTEX
8
0
10
0.108622
20
-0.436654
0
VERTEX
8
0
10
0.108622
20
1.603346
0
SEQEND
8
0
0
POLYLINE
8
0
66
1
40
0.000000
41
0.000000
0
VERTEX
8
0
10
0.112559
20
-0.436654
0
VERTEX
8
0
10
0.112559
20
1.603346
0
SEQEND
8
0
0
POLYLINE
8
0
66
1
40
0.000000
41
0.000000
0
VERTEX
8
0
10
0.116496
20
-0.436654
0
VERTEX
8
0
10
0.116496
20
1.603346
0
SEQEND
8
0
0
POLYLINE
8
0
66
1
40
0.000000
41
0.000000
0
VERTEX
8
0
10
0.120433
20
-0.436654
0
VERTEX
8
0
10
0.120433
20
1.603346
0
SEQEND
8
0
0
POLYLINE
8
0
66
1
40
0.000000
41
0.000000
0
VERTEX
8
0
10
0.124370
20
-0.436654
0
VERTEX
8
0
10
0.124370
20
1.603346
0
SEQEND
8
0
0
POLYLINE
8
0
66
1
40
0.000000
41
0.000000
0
VERTEX
8
0
10
0.128307
20
-0.436654
0
VERTEX
8
0
10
0.128307
20
1.603346
0
SEQEND
8
0
0
POLYLINE
8
0
66
1
40
0.000000
41
0.000000
0
VERTEX
8
0
10
0.132244
20
-0.436654
0
VERTEX
8
0
10
0.132244
20
1.603346
0
SEQEND
8
0
0
POLYLINE
8
0
66
1
40
0.000000
41
0.000000
0
VERTEX
8
0
10
0.136181
20
-0.436654
0
VERTEX
8
0
10
0.136181
20
1.603346
0
SEQEND
8
0
0
POLYLINE
8
0
66
1
40
0.000000
41
0.000000
0
VERTEX
8
0
10
0.140118
20
-0.436654
0
VERTEX
8
0
10
0.140118
20
1.603346
0
SEQEND
8
0
0
POLYLINE
8
0
66
1
40
0.000000
41
0.000000
0
VERTEX
8
0
10
0.144055
20
-0.436654
0
VERTEX
8
0
10
0.144055
20
1.603346
0
SEQEND
8
0
0
POLYLINE
8
0
66
1
40
0.000000
41
0.000000
0
VERTEX
8
0
10
0.147992
20
-0.436654
0
VERTEX
8
0
10
0.147992
20
1.603346
0
SEQEND
8
0
0
POLYLINE
8
0
66
1
40
0.000000
41
0.000000
0
VERTEX
8
0
10
0.151929
20
-0.436654
0
VERTEX
8
0
10
0.151929
20
1.603346
0
SEQEND
8
0
0
POLYLINE
8
0
66
1
40
0.000000
41
0.000000
0
VERTEX
8
0
10
0.155866
20
-0.436654
0
VERTEX
8
0
10
0.155866
20
1.603346
0
SEQEND
8
0
0
POLYLINE
8
0
66
1
40
0.000000
41
0.000000
0
VERTEX
8
0
10
0.159803
20
-0.436654
0
VERTEX
8
0
10
0.159803
20
1.603346
0
SEQEND
8
0
0
POLYLINE
8
0
66
1
40
0.000000
41
0.000000
0
VERTEX
8
0
10
0.163740
20
-0.436654
0
VERTEX
8
0
10
0.163740
20
1.603346
0
SEQEND
8
0
0
POLYLINE
8
0
66
1
40
0.000000
41
0.000000
0
VERTEX
8
0
10
0.167677
20
-0.436654
0
VERTEX
8
0
10
0.167677
20
1.603346
0
SEQEND
8
0
0
POLYLINE
8
0
66
1
40
0.000000
41
0.000000
0
VERTEX
8
0
10
0.171614
20
-0.436654
0
VERTEX
8
0
10
0.171614
20
1.603346
0
SEQEND
8
0
0
POLYLINE
8
0
66
1
40
0.000000
41
0.000000
0
VERTEX
8
0
10
0.175551
20
-0.436654
0
VERTEX
8
0
10
0.175551
20
1.603346
0
SEQEND
8
0
0
POLYLINE
8
0
66
1
40
0.000000
41
0.000000
0
VERTEX
8
0
10
0.179488
20
-0.436654
0
VERTEX
8
0
10
0.179488
20
1.603346
0
SEQEND
8
0
0
POLYLINE
8
0
66
1
40
0.000000
41
0.000000
0
VERTEX
8
0
10
0.183425
20
-0.436654
0
VERTEX
8
0
10
0.183425
20
1.603346
0
SEQEND
8
0
0
POLYLINE
8
0
66
1
40
0.000000
41
0.000000
0
VERTEX
8
0
10
0.187362
20
-0.436654
0
VERTEX
8
0
10
0.187362
20
1.603346
0
SEQEND
8
0
0
POLYLINE
8
0
66
1
40
0.000000
41
0.000000
0
VERTEX
8
0
10
0.191299
20
-0.436654
0
VERTEX
8
0
10
0.191299
20
1.603346
0
SEQEND
8
0
0
POLYLINE
8
0
66
1
40
0.000000
41
0.000000
0
VERTEX
8
0
10
0.195236
20
-0.436654
0
VERTEX
8
0
10
0.195236
20
1.603346
0
SEQEND
8
0
0
POLYLINE
8
0
66
1
40
0.000000
41
0.000000
0
VERTEX
8
0
10
0.199173
20
-0.436654
0
VERTEX
8
0
10
0.199173
20
1.603346
0
SEQEND
8
0
0
POLYLINE
8
0
66
1
40
0.000000
41
0.000000
0
VERTEX
8
0
10
0.203110
20
-0.436654
0
VERTEX
8
0
10
0.203110
20
1.603346
0
SEQEND
8
0
0
POLYLINE
8
0
66
1
40
0.000000
41
0.000000
0
VERTEX
8
0
10
0.207047
20
-0.436654
0
VERTEX
8
0
10
0.207047
20
1.603346
0
SEQEND
8
0
0
POLYLINE
8
0
66
1
40
0.000000
41
0.000000
0
VERTEX
8
0
10
0.210984
20
-0.436654
0
VERTEX
8
0
10
0.210984
20
1.603346
0
SEQEND
8
0
0
POLYLINE
8
0
66
1
40
0.000000
41
0.000000
0
VERTEX
8
0
10
0.214921
20
-0.436654
0
VERTEX
8
0
10
0.214921
20
1.603346
0
SEQEND
8
0
0
POLYLINE
8
0
66
1
40
0.000000
41
0.000000
0
VERTEX
8
0
10
0.218858
20
-0.436654
0
VERTEX
8
0
10
0.218858
20
1.603346
0
SEQEND
8
0
0
POLYLINE
8
0
66
1
40
0.000000
41
0.000000
0
VERTEX
8
0
10
0.222795
20
-0.436654
0
VERTEX
8
0
10
0.222795
20
1.603346
0
SEQEND
8
0
0
POLYLINE
8
0
66
1
40
0.000000
41
0.000000
0
VERTEX
8
0
10
0.226732
20
-0.436654
0
VERTEX
8
0
10
0.226732
20
1.603346
0
SEQEND
8
0
0
POLYLINE
8
0
66
1
40
0.000000
41
0.000000
0
VERTEX
8
0
10
0.230669
20
-0.436654
0
VERTEX
8
0
10
0.230669
20
1.603346
0
SEQEND
8
0
0
POLYLINE
8
0
66
1
40
0.000000
41
0.000000
0
VERTEX
8
0
10
0.234606
20
-0.436654
0
VERTEX
8
0
10
0.234606
20
1.603346
0
SEQEND
8
0
0
POLYLINE
8
0
66
1
40
0.000000
41
0.000000
0
VERTEX
8
0
10
0.238543
20
-0.436654
0
VERTEX
8
0
10
0.238543
20
1.603346
0
SEQEND
8
0
0
POLYLINE
8
0
66
1
40
0.000000
41
0.000000
0
VERTEX
8
0
10
0.242480
20
-0.436654
0
VERTEX
8
0
10
0.242480
20
1.603346
0
SEQEND
8
0
0
POLYLINE
8
0
66
1
40
0.000000
41
0.000000
0
VERTEX
8
0
10
0.246417
20
-0.436654
0
VERTEX
8
0
10
0.246417
20
1.603346
0
SEQEND
8
0
0
POLYLINE
8
0
66
1
40
0.000000
41
0.000000
0
VERTEX
8
0
10
0.250354
20
-0.436654
0
VERTEX
8
0
10
0.250354
20
1.603346
0
SEQEND
8
0
0
POLYLINE
8
0
66
1
40
0.000000
41
0.000000
0
VERTEX
8
0
10
0.254291
20
-0.436654
0
VERTEX
8
0
10
0.254291
20
1.603346
0
SEQEND
8
0
0
POLYLINE
8
0
66
1
40
0.000000
41
0.000000
0
VERTEX
8
0
10
0.258228
20
-0.436654
0
VERTEX
8
0
10
0.258228
20
1.603346
0
SEQEND
8
0
0
POLYLINE
8
0
66
1
40
0.000000
41
0.000000
0
VERTEX
8
0
10
0.262165
20
-0.436654
0
VERTEX
8
0
10
0.262165
20
1.603346
0
SEQEND
8
0
0
POLYLINE
8
0
66
1
40
0.000000
41
0.000000
0
VERTEX
8
0
10
0.266102
20
-0.436654
0
VERTEX
8
0
10
0.266102
20
1.603346
0
SEQEND
8
0
0
POLYLINE
8
0
66
1
40
0.000000
41
0.000000
0
VERTEX
8
0
10
0.270039
20
-0.436654
0
VERTEX
8
0
10
0.270039
20
1.603346
0
SEQEND
8
0
0
POLYLINE
8
0
66
1
40
0.000000
41
0.000000
0
VERTEX
8
0
10
0.273976
20
-0.436654
0
VERTEX
8
0
10
0.273976
20
1.603346
0
SEQEND
8
0
0
POLYLINE
8
0
66
1
40
0.000000
41
0.000000
0
VERTEX
8
0
10
0.277913
20
-0.436654
0
VERTEX
8
0
10
0.277913
20
1.603346
0
SEQEND
8
0
0
POLYLINE
8
0
66
1
40
0.000000
41
0.000000
0
VERTEX
8
0
10
0.281850
20
-0.436654
0
VERTEX
8
0
10
0.281850
20
1.603346
0
SEQEND
8
0
0
POLYLINE
8
0
66
1
40
0.000000
41
0.000000
0
VERTEX
8
0
10
0.285787
20
-0.436654
0
VERTEX
8
0
10
0.285787
20
1.603346
0
SEQEND
8
0
0
POLYLINE
8
0
66
1
40
0.000000
41
0.000000
0
VERTEX
8
0
10
0.289724
20
-0.436654
0
VERTEX
8
0
10
0.289724
20
1.603346
0
SEQEND
8
0
0
POLYLINE
8
0
66
1
40
0.000000
41
0.000000
0
VERTEX
8
0
10
0.293661
20
-0.436654
0
VERTEX
8
0
10
0.293661
20
1.603346
0
SEQEND
8
0
0
POLYLINE
8
0
66
1
40
0.000000
41
0.000000
0
VERTEX
8
0
10
0.297598
20
-0.436654
0
VERTEX
8
0
10
0.297598
20
1.603346
0
SEQEND
8
0
0
POLYLINE
8
0
66
1
40
0.000000
41
0.000000
0
VERTEX
8
0
10
0.301535
20
-0.436654
0
VERTEX
8
0
10
0.301535
20
1.603346
0
SEQEND
8
0
0
POLYLINE
8
0
66
1
40
0.000000
41
0.000000
0
VERTEX
8
0
10
0.305472
20
-0.436654
0
VERTEX
8
0
10
0.305472
20
1.603346
0
SEQEND
8
0
0
POLYLINE
8
0
66
1
40
0.000000
41
0.000000
0
VERTEX
8
0
10
0.309409
20
-0.436654
0
VERTEX
8
0
10
0.309409
20
1.603346
0
SEQEND
8
0
0
POLYLINE
8
0
66
1
40
0.000000
41
0.000000
0
VERTEX
8
0
10
0.313346
20
-0.436654
0
VERTEX
8
0
10
0.313346
20
1.603346
0
SEQEND
8
0
0
POLYLINE
8
0
66
1
40
0.000000
41
0.000000
0
VERTEX
8
0
10
0.317283
20
-0.436654
0
VERTEX
8
0
10
0.317283
20
1.603346
0
SEQEND
8
0
0
POLYLINE
8
0
66
1
40
0.000000
41
0.000000
0
VERTEX
8
0
10
0.321220
20
-0.436654
0
VERTEX
8
0
10
0.321220
20
1.603346
0
SEQEND
8
0
0
POLYLINE
8
0
66
1
40
0.000000
41
0.000000
0
VERTEX
8
0
10
0.325157
20
-0.436654
0
VERTEX
8
0
10
0.325157
20
1.603346
0
SEQEND
8
0
0
POLYLINE
8
0
66
1
40
0.000000
41
0.000000
0
VERTEX
8
0
10
0.329094
20
-0.436654
0
VERTEX
8
0
10
0.329094
20
1.603346
0
SEQEND
8
0
0
POLYLINE
8
0
66
1
40
0.000000
41
0.000000
0
VERTEX
8
0
10
0.333031
20
-0.436654
0
VERTEX
8
0
10
0.333031
20
1.603346
0
SEQEND
8
0
0
POLYLINE
8
0
66
1
40
0.000000
41
0.000000
0
VERTEX
8
0
10
0.336969
20
-0.436654
0
VERTEX
8
0
10
0.336969
20
1.603346
0
SEQEND
8
0
0
POLYLINE
8
0
66
1
40
0.000000
41
0.000000
0
VERTEX
8
0
10
0.340906
20
-0.436654
0
VERTEX
8
0
10
0.340906
20
1.603346
0
SEQEND
8
0
0
POLYLINE
8
0
66
1
40
0.000000
41
0.000000
0
VERTEX
8
0
10
0.344843
20
-0.436654
0
VERTEX
8
0
10
0.344843
20
1.603346
0
SEQEND
8
0
0
POLYLINE
8
0
66
1
40
0.000000
41
0.000000
0
VERTEX
8
0
10
0.348780
20
-0.436654
0
VERTEX
8
0
10
0.348780
20
1.603346
0
SEQEND
8
0
0
POLYLINE
8
0
66
1
40
0.000000
41
0.000000
0
VERTEX
8
0
10
0.352717
20
-0.436654
0
VERTEX
8
0
10
0.352717
20
1.603346
0
SEQEND
8
0
0
POLYLINE
8
0
66
1
40
0.000000
41
0.000000
0
VERTEX
8
0
10
0.356654
20
-0.436654
0
VERTEX
8
0
10
0.356654
20
1.603346
0
SEQEND
8
0
0
POLYLINE
8
0
66
1
40
0.000000
41
0.000000
0
VERTEX
8
0
10
0.360591
20
-0.436654
0
VERTEX
8
0
10
0.360591
20
1.603346
0
SEQEND
8
0
0
POLYLINE
8
0
66
1
40
0.000000
41
0.000000
0
VERTEX
8
0
10
0.364528
20
-0.436654
0
VERTEX
8
0
10
0.364528
20
1.603346
0
SEQEND
8
0
0
POLYLINE
8
0
66
1
40
0.000000
41
0.000000
0
VERTEX
8
0
10
0.368465
20
-0.436654
0
VERTEX
8
0
10
0.368465
20
1.603346
0
SEQEND
8
0
0
POLYLINE
8
0
66
1
40
0.000000
41
0.000000
0
VERTEX
8
0
10
0.372402
20
-0.436654
0
VERTEX
8
0
10
0.372402
20
1.603346
0
SEQEND
8
0
0
POLYLINE
8
0
66
1
40
0.000000
41
0.000000
0
VERTEX
8
0
10
0.376339
20
-0.436654
0
VERTEX
8
0
10
0.376339
20
1.603346
0
SEQEND
8
0
0
POLYLINE
8
0
66
1
40
0.000000
41
0.000000
0
VERTEX
8
0
10
0.380276
20
-0.436654
0
VERTEX
8
0
10
0.380276
20
1.603346
0
SEQEND
8
0
0
POLYLINE
8
0
66
1
40
0.000000
41
0.000000
0
VERTEX
8
0
10
0.384213
20
-0.436654
0
VERTEX
8
0
10
0.384213
20
1.603346
0
SEQEND
8
0
0
POLYLINE
8
0
66
1
40
0.000000
41
0.000000
0
VERTEX
8
0
10
0.388150
20
-0.436654
0
VERTEX
8
0
10
0.388150
20
1.603346
0
SEQEND
8
0
0
POLYLINE
8
0
66
1
40
0.000000
41
0.000000
0
VERTEX
8
0
10
0.392087
20
-0.436654
0
VERTEX
8
0
10
0.392087
20
1.603346
0
SEQEND
8
0
0
POLYLINE
8
0
66
1
40
0.000000
41
0.000000
0
VERTEX
8
0
10
0.396024
20
-0.436654
0
VERTEX
8
0
10
0.396024
20
1.603346
0
SEQEND
8
0
0
POLYLINE
8
0
66
1
40
0.000000
41
0.000000
0
VERTEX
8
0
10
0.399961
20
-0.436654
0
VERTEX
8
0
10
0.399961
20
1.603346
0
SEQEND
8
0
0
POLYLINE
8
0
66
1
40
0.000000
41
0.000000
0
VERTEX
8
0
10
0.403898
20
-0.436654
0
VERTEX
8
0
10
0.403898
20
1.603346
0
SEQEND
8
0
0
POLYLINE
8
0
66
1
40
0.000000
41
0.000000
0
VERTEX
8
0
10
0.407835
20
-0.436654
0
VERTEX
8
0
10
0.407835
20
1.603346
0
SEQEND
8
0
0
POLYLINE
8
0
66
1
40
0.000000
41
0.000000
0
VERTEX
8
0
10
0.411772
20
-0.436654
0
VERTEX
8
0
10
0.411772
20
1.603346
0
SEQEND
8
0
0
POLYLINE
8
0
66
1
40
0.000000
41
0.000000
0
VERTEX
8
0
10
0.415709
20
-0.436654
0
VERTEX
8
0
10
0.415709
20
1.603346
0
SEQEND
8
0
0
POLYLINE
8
0
66
1
40
0.000000
41
0.000000
0
VERTEX
8
0
10
0.419646
20
-0.436654
0
VERTEX
8
0
10
0.419646
20
1.603346
0
SEQEND
8
0
0
POLYLINE
8
0
66
1
40
0.000000
41
0.000000
0
VERTEX
8
0
10
0.423583
20
-0.436654
0
VERTEX
8
0
10
0.423583
20
1.603346
0
SEQEND
8
0
0
POLYLINE
8
0
66
1
40
0.000000
41
0.000000
0
VERTEX
8
0
10
0.427520
20
-0.436654
0
VERTEX
8
0
10
0.427520
20
1.603346
0
SEQEND
8
0
0
POLYLINE
8
0
66
1
40
0.000000
41
0.000000
0
VERTEX
8
0
10
0.431457
20
-0.436654
0
VERTEX
8
0
10
0.431457
20
1.603346
0
SEQEND
8
0
0
POLYLINE
8
0
66
1
40
0.000000
41
0.000000
0
VERTEX
8
0
10
0.435394
20
-0.436654
0
VERTEX
8
0
10
0.435394
20
1.603346
0
SEQEND
8
0
0
POLYLINE
8
0
66
1
40
0.000000
41
0.000000
0
VERTEX
8
0
10
0.439331
20
-0.436654
0
VERTEX
8
0
10
0.439331
20
1.603346
0
SEQEND
8
0
0
POLYLINE
8
0
66
1
40
0.000000
41
0.000000
0
VERTEX
8
0
10
0.443268
20
-0.436654
0
VERTEX
8
0
10
0.443268
20
1.603346
0
SEQEND
8
0
0
POLYLINE
8
0
66
1
40
0.000000
41
0.000000
0
VERTEX
8
0
10
0.447205
20
-0.436654
0
VERTEX
8
0
10
0.447205
20
1.603346
0
SEQEND
8
0
0
POLYLINE
8
0
66
1
40
0.000000
41
0.000000
0
VERTEX
8
0
10
0.451142
20
-0.436654
0
VERTEX
8
0
10
0.451142
20
1.603346
0
SEQEND
8
0
0
POLYLINE
8
0
66
1
40
0.000000
41
0.000000
0
VERTEX
8
0
10
0.455079
20
-0.436654
0
VERTEX
8
0
10
0.455079
20
1.603346
0
SEQEND
8
0
0
POLYLINE
8
0
66
1
40
0.000000
41
0.000000
0
VERTEX
8
0
10
0.459016
20
-0.436654
0
VERTEX
8
0
10
0.459016
20
1.603346
0
SEQEND
8
0
0
POLYLINE
8
0
66
1
40
0.000000
41
0.000000
0
VERTEX
8
0
10
0.462953
20
-0.436654
0
VERTEX
8
0
10
0.462953
20
1.603346
0
SEQEND
8
0
0
POLYLINE
8
0
66
1
40
0.000000
41
0.000000
0
VERTEX
8
0
10
0.466890
20
-0.436654
0
VERTEX
8
0
10
0.466890
20
1.603346
0
SEQEND
8
0
0
POLYLINE
8
0
66
1
40
0.000000
41
0.000000
0
VERTEX
8
0
10
0.470827
20
-0.436654
0
VERTEX
8
0
10
0.470827
20
1.603346
0
SEQEND
8
0
0
POLYLINE
8
0
66
1
40
0.000000
41
0.000000
0
VERTEX
8
0
10
0.474764
20
-0.436654
0
VERTEX
8
0
10
0.474764
20
1.603346
0
SEQEND
8
0
0
POLYLINE
8
0
66
1
40
0.000000
41
0.000000
0
VERTEX
8
0
10
0.478701
20
-0.436654
0
VERTEX
8
0
10
0.478701
20
1.603346
0
SEQEND
8
0
0
POLYLINE
8
0
66
1
40
0.000000
41
0.000000
0
VERTEX
8
0
10
0.482638
20
-0.436654
0
VERTEX
8
0
10
0.482638
20
1.603346
0
SEQEND
8
0
0
POLYLINE
8
0
66
1
40
0.000000
41
0.000000
0
VERTEX
8
0
10
0.486575
20
-0.436654
0
VERTEX
8
0
10
0.486575
20
1.603346
0
SEQEND
8
0
0
POLYLINE
8
0
66
1
40
0.000000
41
0.000000
0
VERTEX
8
0
10
0.490512
20
-0.436654
0
VERTEX
8
0
10
0.490512
20
1.603346
0
SEQEND
8
0
0
POLYLINE
8
0
66
1
40
0.000000
41
0.000000
0
VERTEX
8
0
10
0.494449
20
-0.436654
0
VERTEX
8
0
10
0.494449
20
1.603346
0
SEQEND
8
0
0
POLYLINE
8
0
66
1
40
0.000000
41
0.000000
0
VERTEX
8
0
10
0.498386
20
-0.436654
0
VERTEX
8
0
10
0.498386
20
1.603346
0
SEQEND
8
0
0
POLYLINE
8
0
66
1
40
0.000000
41
0.000000
0
VERTEX
8
0
10
0.502323
20
-0.436654
0
VERTEX
8
0
10
0.502323
20
1.603346
0
SEQEND
8
0
0
POLYLINE
8
0
66
1
40
0.000000
41
0.000000
0
VERTEX
8
0
10
0.506260
20
-0.436654
0
VERTEX
8
0
10
0.506260
20
1.603346
0
SEQEND
8
0
0
POLYLINE
8
0
66
1
40
0.000000
41
0.000000
0
VERTEX
8
0
10
0.510197
20
-0.436654
0
VERTEX
8
0
10
0.510197
20
1.603346
0
SEQEND
8
0
0
POLYLINE
8
0
66
1
40
0.000000
41
0.000000
0
VERTEX
8
0
10
0.514134
20
-0.436654
0
VERTEX
8
0
10
0.514134
20
1.603346
0
SEQEND
8
0
0
POLYLINE
8
0
66
1
40
0.000000
41
0.000000
0
VERTEX
8
0
10
0.518071
20
-0.436654
0
VERTEX
8
0
10
0.518071
20
1.603346
0
SEQEND
8
0
0
POLYLINE
8
0
66
1
40
0.000000
41
0.000000
0
VERTEX
8
0
10
0.522008
20
-0.436654
0
VERTEX
8
0
10
0.522008
20
1.603346
0
SEQEND
8
0
0
POLYLINE
8
0
66
1
40
0.000000
41
0.000000
0
VERTEX
8
0
10
0.525945
20
-0.436654
0
VERTEX
8
0
10
0.525945
20
1.603346
0
SEQEND
8
0
0
POLYLINE
8
0
66
1
40
0.000000
41
0.000000
0
VERTEX
8
0
10
0.529882
20
-0.436654
0
VERTEX
8
0
10
0.529882
20
1.603346
0
SEQEND
8
0
0
POLYLINE
8
0
66
1
40
0.000000
41
0.000000
0
VERTEX
8
0
10
0.533819
20
-0.436654
0
VERTEX
8
0
10
0.533819
20
1.603346
0
SEQEND
8
0
0
POLYLINE
8
0
66
1
40
0.000000
41
0.000000
0
VERTEX
8
0
10
0.537756
20
-0.436654
0
VERTEX
8
0
10
0.537756
20
1.603346
0
SEQEND
8
0
0
POLYLINE
8
0
66
1
40
0.000000
41
0.000000
0
VERTEX
8
0
10
0.541693
20
-0.436654
0
VERTEX
8
0
10
0.541693
20
1.603346
0
SEQEND
8
0
0
POLYLINE
8
0
66
1
40
0.000000
41
0.000000
0
VERTEX
8
0
10
0.545630
20
-0.436654
0
VERTEX
8
0
10
0.545630
20
1.603346
0
SEQEND
8
0
0
POLYLINE
8
0
66
1
40
0.000000
41
0.000000
0
VERTEX
8
0
10
0.549567
20
-0.436654
0
VERTEX
8
0
10
0.549567
20
1.603346
0
SEQEND
8
0
0
POLYLINE
8
0
66
1
40
0.008000
41
0.008000
0
VERTEX
8
0
10
-0.584803
20
-0.436654
0
VERTEX
8
0
10
0.550197
20
-0.436654
0
VERTEX
8
0
10
0.550197
20
1.603346
0
VERTEX
8
0
10
-0.584803
20
1.603346
0
VERTEX
8
0
10
-0.584803
20
-0.436654
0
SEQEND
8
0
0
ENDSEC
0
EOF

