G04 PROTEUS GERBER X2 FILE*
%TF.GenerationSoftware,Labcenter,Proteus,8.5-SP0-Build22067*%
%TF.CreationDate,2022-04-24T18:59:02+00:00*%
%TF.FileFunction,Legend,Top*%
%TF.FilePolarity,Positive*%
%TF.Part,Single*%
%FSLAX45Y45*%
%MOMM*%
G01*
%TA.AperFunction,Profile*%
%ADD71C,0.203200*%
%TA.AperFunction,Material*%
%ADD21C,0.203200*%
D71*
X+12700Y+0D02*
X+8012700Y+0D01*
X+8012700Y+9000000D01*
X+12700Y+9000000D01*
X+12700Y+0D01*
D21*
X+254700Y+4988000D02*
X+1270700Y+4988000D01*
X+254700Y+6512000D02*
X+1270700Y+6512000D01*
X+1270700Y+4988000D02*
X+1270700Y+6512000D01*
X+254700Y+6512000D02*
X+254700Y+4988000D01*
X+214060Y+5432500D02*
X+122620Y+5432500D01*
X+168340Y+5480125D01*
X+122620Y+5527750D01*
X+214060Y+5527750D01*
X+153100Y+5559500D02*
X+122620Y+5591250D01*
X+122620Y+5623000D01*
X+153100Y+5654750D01*
X+183580Y+5654750D01*
X+214060Y+5623000D01*
X+214060Y+5591250D01*
X+183580Y+5559500D01*
X+153100Y+5559500D01*
X+122620Y+5686500D02*
X+122620Y+5781750D01*
X+122620Y+5734125D02*
X+214060Y+5734125D01*
X+153100Y+5813500D02*
X+122620Y+5845250D01*
X+122620Y+5877000D01*
X+153100Y+5908750D01*
X+183580Y+5908750D01*
X+214060Y+5877000D01*
X+214060Y+5845250D01*
X+183580Y+5813500D01*
X+153100Y+5813500D01*
X+214060Y+5940500D02*
X+122620Y+5940500D01*
X+122620Y+6019875D01*
X+137860Y+6035750D01*
X+153100Y+6035750D01*
X+168340Y+6019875D01*
X+168340Y+5940500D01*
X+168340Y+6019875D02*
X+183580Y+6035750D01*
X+214060Y+6035750D01*
X+6754700Y+4980000D02*
X+7770700Y+4980000D01*
X+6754700Y+6504000D02*
X+7770700Y+6504000D01*
X+7770700Y+4980000D02*
X+7770700Y+6504000D01*
X+6754700Y+6504000D02*
X+6754700Y+4980000D01*
X+6622620Y+5488000D02*
X+6622620Y+5583250D01*
X+6622620Y+5535625D02*
X+6714060Y+5535625D01*
X+6714060Y+5615000D02*
X+6653100Y+5615000D01*
X+6622620Y+5646750D01*
X+6622620Y+5678500D01*
X+6653100Y+5710250D01*
X+6714060Y+5710250D01*
X+6683580Y+5615000D02*
X+6683580Y+5710250D01*
X+6698820Y+5837250D02*
X+6714060Y+5821375D01*
X+6714060Y+5773750D01*
X+6683580Y+5742000D01*
X+6653100Y+5742000D01*
X+6622620Y+5773750D01*
X+6622620Y+5821375D01*
X+6637860Y+5837250D01*
X+6653100Y+5869000D02*
X+6622620Y+5900750D01*
X+6622620Y+5932500D01*
X+6653100Y+5964250D01*
X+6683580Y+5964250D01*
X+6714060Y+5932500D01*
X+6714060Y+5900750D01*
X+6683580Y+5869000D01*
X+6653100Y+5869000D01*
X+4266700Y+242000D02*
X+4266700Y+1258000D01*
X+3250700Y+242000D02*
X+3250700Y+1258000D01*
X+4266700Y+1258000D02*
X+3250700Y+1258000D01*
X+4266700Y+242000D02*
X+3250700Y+242000D01*
X+3441200Y+109920D02*
X+3441200Y+201360D01*
X+3536450Y+201360D01*
X+3441200Y+155640D02*
X+3504700Y+155640D01*
X+3568200Y+170880D02*
X+3599950Y+201360D01*
X+3631700Y+201360D01*
X+3663450Y+170880D01*
X+3663450Y+140400D01*
X+3631700Y+109920D01*
X+3599950Y+109920D01*
X+3568200Y+140400D01*
X+3568200Y+170880D01*
X+3695200Y+109920D02*
X+3695200Y+201360D01*
X+3790450Y+109920D01*
X+3790450Y+201360D01*
X+3822200Y+201360D02*
X+3917450Y+201360D01*
X+3869825Y+201360D02*
X+3869825Y+109920D01*
X+4044450Y+109920D02*
X+3949200Y+109920D01*
X+3949200Y+201360D01*
X+4044450Y+201360D01*
X+3949200Y+155640D02*
X+4012700Y+155640D01*
X+4242700Y+1258000D02*
X+4242700Y+242000D01*
X+5766700Y+1258000D02*
X+5766700Y+242000D01*
X+4242700Y+242000D02*
X+5766700Y+242000D01*
X+5766700Y+1258000D02*
X+4242700Y+1258000D01*
X+4560200Y+1298640D02*
X+4560200Y+1359600D01*
X+4591950Y+1390080D01*
X+4623700Y+1390080D01*
X+4655450Y+1359600D01*
X+4655450Y+1298640D01*
X+4560200Y+1329120D02*
X+4655450Y+1329120D01*
X+4687200Y+1298640D02*
X+4687200Y+1390080D01*
X+4766575Y+1390080D01*
X+4782450Y+1374840D01*
X+4782450Y+1359600D01*
X+4766575Y+1344360D01*
X+4687200Y+1344360D01*
X+4766575Y+1344360D02*
X+4782450Y+1329120D01*
X+4782450Y+1298640D01*
X+4814200Y+1298640D02*
X+4814200Y+1390080D01*
X+4877700Y+1390080D01*
X+4909450Y+1359600D01*
X+4909450Y+1329120D01*
X+4877700Y+1298640D01*
X+4814200Y+1298640D01*
X+4941200Y+1390080D02*
X+4941200Y+1313880D01*
X+4957075Y+1298640D01*
X+5020575Y+1298640D01*
X+5036450Y+1313880D01*
X+5036450Y+1390080D01*
X+5084075Y+1390080D02*
X+5147575Y+1390080D01*
X+5115825Y+1390080D02*
X+5115825Y+1298640D01*
X+5084075Y+1298640D02*
X+5147575Y+1298640D01*
X+5195200Y+1298640D02*
X+5195200Y+1390080D01*
X+5290450Y+1298640D01*
X+5290450Y+1390080D01*
X+5322200Y+1359600D02*
X+5353950Y+1390080D01*
X+5385700Y+1390080D01*
X+5417450Y+1359600D01*
X+5417450Y+1329120D01*
X+5385700Y+1298640D01*
X+5353950Y+1298640D01*
X+5322200Y+1329120D01*
X+5322200Y+1359600D01*
X+3381700Y+2123000D02*
X+4143700Y+2123000D01*
X+4143700Y+2377000D01*
X+3381700Y+2377000D01*
X+3381700Y+2123000D01*
X+3381700Y+2377000D02*
X+3381700Y+2504000D01*
X+4143700Y+2504000D01*
X+4143700Y+2377000D01*
X+3381700Y+2377000D02*
X+3508700Y+2504000D01*
X+3508700Y+2377000D02*
X+3635700Y+2504000D01*
X+3635700Y+2377000D02*
X+3762700Y+2504000D01*
X+3762700Y+2377000D02*
X+3889700Y+2504000D01*
X+3889700Y+2377000D02*
X+4016700Y+2504000D01*
X+4016700Y+2377000D02*
X+4143700Y+2504000D01*
X+3635700Y+2605600D02*
X+3667450Y+2636080D01*
X+3699200Y+2636080D01*
X+3730950Y+2605600D01*
X+3730950Y+2575120D01*
X+3699200Y+2544640D01*
X+3667450Y+2544640D01*
X+3635700Y+2575120D01*
X+3635700Y+2605600D01*
X+3699200Y+2575120D02*
X+3730950Y+2544640D01*
X+3794450Y+2605600D02*
X+3826200Y+2636080D01*
X+3826200Y+2544640D01*
X+4401700Y+1750000D02*
X+4274700Y+1750000D01*
X+3766700Y+1686500D02*
X+4274700Y+1686500D01*
X+4274700Y+1813500D01*
X+3766700Y+1813500D01*
X+3766700Y+1686500D01*
X+3766700Y+1750000D02*
X+3639700Y+1750000D01*
X+3893700Y+1554420D02*
X+3893700Y+1645860D01*
X+3973075Y+1645860D01*
X+3988950Y+1630620D01*
X+3988950Y+1615380D01*
X+3973075Y+1600140D01*
X+3893700Y+1600140D01*
X+3973075Y+1600140D02*
X+3988950Y+1584900D01*
X+3988950Y+1554420D01*
X+4052450Y+1615380D02*
X+4084200Y+1645860D01*
X+4084200Y+1554420D01*
X+5123700Y+1750000D02*
X+5250700Y+1750000D01*
X+5250700Y+1686500D02*
X+5758700Y+1686500D01*
X+5758700Y+1813500D01*
X+5250700Y+1813500D01*
X+5250700Y+1686500D01*
X+5758700Y+1750000D02*
X+5885700Y+1750000D01*
X+5377700Y+1854140D02*
X+5377700Y+1945580D01*
X+5457075Y+1945580D01*
X+5472950Y+1930340D01*
X+5472950Y+1915100D01*
X+5457075Y+1899860D01*
X+5377700Y+1899860D01*
X+5457075Y+1899860D02*
X+5472950Y+1884620D01*
X+5472950Y+1854140D01*
X+5520575Y+1930340D02*
X+5536450Y+1945580D01*
X+5584075Y+1945580D01*
X+5599950Y+1930340D01*
X+5599950Y+1915100D01*
X+5584075Y+1899860D01*
X+5536450Y+1899860D01*
X+5520575Y+1884620D01*
X+5520575Y+1854140D01*
X+5599950Y+1854140D01*
X+2619000Y+1762700D02*
X+2492000Y+1762700D01*
X+1984000Y+1699200D02*
X+2492000Y+1699200D01*
X+2492000Y+1826200D01*
X+1984000Y+1826200D01*
X+1984000Y+1699200D01*
X+1984000Y+1762700D02*
X+1857000Y+1762700D01*
X+2111000Y+1567120D02*
X+2111000Y+1658560D01*
X+2190375Y+1658560D01*
X+2206250Y+1643320D01*
X+2206250Y+1628080D01*
X+2190375Y+1612840D01*
X+2111000Y+1612840D01*
X+2190375Y+1612840D02*
X+2206250Y+1597600D01*
X+2206250Y+1567120D01*
X+2253875Y+1643320D02*
X+2269750Y+1658560D01*
X+2317375Y+1658560D01*
X+2333250Y+1643320D01*
X+2333250Y+1628080D01*
X+2317375Y+1612840D01*
X+2333250Y+1597600D01*
X+2333250Y+1582360D01*
X+2317375Y+1567120D01*
X+2269750Y+1567120D01*
X+2253875Y+1582360D01*
X+2285625Y+1612840D02*
X+2317375Y+1612840D01*
X+1978920Y+2130620D02*
X+2497080Y+2130620D01*
X+2497080Y+2397320D01*
X+1978920Y+2397320D01*
X+1978920Y+2130620D01*
X+2060200Y+2394780D02*
X+2060200Y+2133160D01*
X+1907800Y+2262700D02*
X+1978920Y+2262700D01*
X+2497080Y+2262700D02*
X+2568200Y+2262700D01*
X+2111000Y+2437960D02*
X+2111000Y+2529400D01*
X+2174500Y+2529400D01*
X+2206250Y+2498920D01*
X+2206250Y+2468440D01*
X+2174500Y+2437960D01*
X+2111000Y+2437960D01*
X+2269750Y+2498920D02*
X+2301500Y+2529400D01*
X+2301500Y+2437960D01*
X+1520700Y+2004000D02*
X+1519147Y+2043687D01*
X+1506550Y+2123062D01*
X+1480340Y+2202437D01*
X+1438005Y+2281812D01*
X+1373922Y+2361187D01*
X+1294558Y+2426635D01*
X+1215183Y+2469902D01*
X+1135808Y+2496857D01*
X+1056433Y+2510114D01*
X+1012700Y+2512000D01*
X+504700Y+2004000D02*
X+506253Y+2043687D01*
X+518850Y+2123062D01*
X+545060Y+2202437D01*
X+587395Y+2281812D01*
X+651478Y+2361187D01*
X+730842Y+2426635D01*
X+810217Y+2469902D01*
X+889592Y+2496857D01*
X+968967Y+2510114D01*
X+1012700Y+2512000D01*
X+504700Y+2004000D02*
X+506253Y+1964313D01*
X+518850Y+1884938D01*
X+545060Y+1805563D01*
X+587395Y+1726188D01*
X+651478Y+1646813D01*
X+730842Y+1581365D01*
X+810217Y+1538098D01*
X+889592Y+1511143D01*
X+968967Y+1497886D01*
X+1012700Y+1496000D01*
X+1520700Y+2004000D02*
X+1519147Y+1964313D01*
X+1506550Y+1884938D01*
X+1480340Y+1805563D01*
X+1438005Y+1726188D01*
X+1373922Y+1646813D01*
X+1294558Y+1581365D01*
X+1215183Y+1538098D01*
X+1135808Y+1511143D01*
X+1056433Y+1497886D01*
X+1012700Y+1496000D01*
X+758700Y+1686500D02*
X+758700Y+1813500D01*
X+695200Y+1750000D02*
X+822200Y+1750000D01*
X+448820Y+1971990D02*
X+464060Y+1956115D01*
X+464060Y+1908490D01*
X+433580Y+1876740D01*
X+403100Y+1876740D01*
X+372620Y+1908490D01*
X+372620Y+1956115D01*
X+387860Y+1971990D01*
X+387860Y+2019615D02*
X+372620Y+2035490D01*
X+372620Y+2083115D01*
X+387860Y+2098990D01*
X+403100Y+2098990D01*
X+418340Y+2083115D01*
X+418340Y+2035490D01*
X+433580Y+2019615D01*
X+464060Y+2019615D01*
X+464060Y+2098990D01*
X+5139700Y+2250000D02*
X+5138873Y+2270483D01*
X+5132155Y+2311450D01*
X+5118137Y+2352417D01*
X+5095359Y+2393384D01*
X+5060559Y+2434229D01*
X+5019592Y+2465845D01*
X+4978625Y+2486392D01*
X+4937658Y+2498629D01*
X+4896691Y+2503762D01*
X+4885700Y+2504000D01*
X+4631700Y+2250000D02*
X+4632527Y+2270483D01*
X+4639245Y+2311450D01*
X+4653263Y+2352417D01*
X+4676041Y+2393384D01*
X+4710841Y+2434229D01*
X+4751808Y+2465845D01*
X+4792775Y+2486392D01*
X+4833742Y+2498629D01*
X+4874709Y+2503762D01*
X+4885700Y+2504000D01*
X+4631700Y+2250000D02*
X+4632527Y+2229517D01*
X+4639245Y+2188550D01*
X+4653263Y+2147583D01*
X+4676041Y+2106616D01*
X+4710841Y+2065771D01*
X+4751808Y+2034155D01*
X+4792775Y+2013608D01*
X+4833742Y+2001371D01*
X+4874709Y+1996238D01*
X+4885700Y+1996000D01*
X+5139700Y+2250000D02*
X+5138873Y+2229517D01*
X+5132155Y+2188550D01*
X+5118137Y+2147583D01*
X+5095359Y+2106616D01*
X+5060559Y+2065771D01*
X+5019592Y+2034155D01*
X+4978625Y+2013608D01*
X+4937658Y+2001371D01*
X+4896691Y+1996238D01*
X+4885700Y+1996000D01*
X+5076200Y+2123000D02*
X+4949200Y+2123000D01*
X+5012700Y+2059500D02*
X+5012700Y+2186500D01*
X+4854870Y+1879160D02*
X+4838995Y+1863920D01*
X+4791370Y+1863920D01*
X+4759620Y+1894400D01*
X+4759620Y+1924880D01*
X+4791370Y+1955360D01*
X+4838995Y+1955360D01*
X+4854870Y+1940120D01*
X+4918370Y+1924880D02*
X+4950120Y+1955360D01*
X+4950120Y+1863920D01*
X+4901700Y+2750000D02*
X+4774700Y+2750000D01*
X+4266700Y+2686500D02*
X+4774700Y+2686500D01*
X+4774700Y+2813500D01*
X+4266700Y+2813500D01*
X+4266700Y+2686500D01*
X+4266700Y+2750000D02*
X+4139700Y+2750000D01*
X+4393700Y+2554420D02*
X+4393700Y+2645860D01*
X+4473075Y+2645860D01*
X+4488950Y+2630620D01*
X+4488950Y+2615380D01*
X+4473075Y+2600140D01*
X+4393700Y+2600140D01*
X+4473075Y+2600140D02*
X+4488950Y+2584900D01*
X+4488950Y+2554420D01*
X+4615950Y+2584900D02*
X+4520700Y+2584900D01*
X+4584200Y+2645860D01*
X+4584200Y+2554420D01*
M02*
